<?xml version="1.0" encoding="utf-8"?>
<!-- Generator: Adobe Illustrator 26.0.1, SVG Export Plug-In . SVG Version: 6.00 Build 0)  -->
<svg version="1.1" id="Layer_1" xmlns="http://www.w3.org/2000/svg" xmlns:xlink="http://www.w3.org/1999/xlink" x="0px" y="0px"
	 viewBox="0 0 140 140" style="enable-background:new 0 0 140 140;" xml:space="preserve">
<style type="text/css">
	.st0{fill:none;stroke:#253F8E;stroke-width:1.5;stroke-miterlimit:10;}
	.st1{fill:#253F8E;}
	.st2{fill:#253F8E;stroke:#253F8E;stroke-width:3;stroke-miterlimit:10;}
	.st3{fill:none;stroke:#253F8E;stroke-width:3;stroke-miterlimit:10;}
	.st4{fill:none;}
	.st5{fill:#FFC0C0;stroke:#253F8E;stroke-width:3;stroke-miterlimit:10;}
</style>
<g>
	<circle class="st0" cx="-290" cy="-46.3" r="68"/>
	<g>
		<polyline class="st0" points="-290.3,22.3 -290.3,21.7 -290.3,2.5 -290.3,-4 -290.3,-11.5 		"/>
		<polyline class="st0" points="-290.3,-30.7 -290.3,-41.4 -290.3,-42 		"/>
		<circle class="st0" cx="-290.3" cy="-21.1" r="9.6"/>
		<circle class="st0" cx="-268.9" cy="-36.1" r="7.5"/>
		<circle class="st0" cx="-310.6" cy="-36.1" r="7.5"/>
		<path class="st1" d="M-252.4-16.2c1.3,3-6.8,9.2-18,13.9c-8.3,3.5-16,5.1-19.9,4.5c0-1.9,0-4.1,0.1-6.4c3.1-2.9,8.7-6.2,15.3-9
			C-263.7-17.8-253.6-19.2-252.4-16.2z"/>
		<path class="st1" d="M-327.6-16.2c-1.3,3,6.8,9.2,18,13.9c8.3,3.5,15.4,5.3,19.4,4.7c0-1.9,0.1-4.1,0-6.4
			c-3.1-2.9-8.2-6.4-14.8-9.2C-316.3-17.8-326.4-19.2-327.6-16.2z"/>
		<line class="st0" x1="-275.3" y1="-31.8" x2="-281.7" y2="-26.5"/>
		<line class="st0" x1="-304.2" y1="-31.8" x2="-297.8" y2="-26.5"/>
		<ellipse class="st0" cx="-290.3" cy="-62.9" rx="15" ry="21.4"/>
		<path class="st0" d="M-287.1-83.7c0,0-11.8,10.1-5.4,19.1s9.6,17.1,2.1,23.2"/>
	</g>
</g>
<g>
	<path d="M1392.9,489.9c-0.4-47.4-26.1-90.9-61.9-116.2c-17.8-12.9-38.1-21.4-58.7-25.8c-20.4-4.1-40.3-6.1-60-6.6
		c-39.2-0.8-76.2,4.4-109.9,11.8c-33.8,7.4-64.4,17-92.1,26.5c-27.9,8.7-52.3,20.4-72.1,32.5c-19.9,12.2-35.7,24.9-46.7,37.2
		c-11.1,12.2-16.9,24-19,32.4s-1.3,13-1.5,13c0.2,0-0.4-4.6,2.1-12.8c2.4-8.2,8.6-19.5,20.1-31c11.3-11.6,27.3-23.5,47.4-34.7
		c20.1-11.3,44-21.7,72.1-29.6c27.8-8.6,58.4-17.2,91.8-23.7s69.6-10.7,107.5-9.2c18.9,0.8,38.3,3,57.4,7.2
		c18.8,4.3,37.2,12.4,53.3,24.2c32.2,23.3,55.1,62.7,55.4,104.9c0.2,21-5,41.7-14.9,59.6c-1.3-0.9-6.1,4.4-15.4,12.6
		c-0.8,0.7-1.7,1.5-2.5,2.2c-3.3,1.8-6.7,3.5-10.5,5.3c-27.4,13-68.9,22.4-115.2,22.9c-4.4,0.1-8.7,0-13,0
		c-4.7-0.1-9.7-0.3-15.2-0.7c-28.7-1.8-68.2-7.6-110.4-19.8c-42.3-12-79-27.9-104.5-41.1c-25.6-13.2-40.2-23.6-40.6-23
		c-0.2,0.3,13.9,11.4,39.4,25.3c25.4,13.9,62.2,30.2,104.7,42.4c4.2,1.2,8.5,2.3,12.7,3.4c-24.2-5.1-38.7-9.1-38.9-8.6
		c-0.1,0.4,17.8,6.4,47.6,13.1c29.7,6.5,71.7,13.5,118.4,12.8c46.4-0.5,88.3-10.4,115.7-24c-8.1,6-18.3,12.3-30.7,17.8
		c-19.8,8.9-45.1,15.3-74,17.7s-61.1,0.9-94.5-4.2c-67-10.4-125.4-32.2-165.2-52c-1.7-0.8-3.3-1.6-4.9-2.5c-2.4-1.6-4.8-3.1-6.9-4.6
		c-13.5-9.1-21.1-15.8-21.5-15.4c-0.2,0.2,3.6,4.5,11.2,10.7c-25.6-14.7-39.2-26.1-41-24.4c-2.3,1.9,15.6,25.7,55.5,49.8
		c39.4,24.2,99.3,49.3,169.4,60.2c35,5.4,69.2,6.4,100,2.6c30.8-3.6,58.2-12.4,79-24c4-2.2,7.7-4.5,11.2-6.9
		c-31,25.1-69.2,37.7-105.9,42.2c-37.5,4.6-73.9,1.7-107.1-4.6c-33.3-6.3-63.5-16.2-90.1-27.4c-53.3-22.6-91.7-51-114.7-73.9
		c-23.1-22.9-31.6-39.3-31.8-39.1c0.2-0.2,7.8,16.6,30.1,40.7c22.2,24,59.9,54.4,113.3,79c26.7,12.3,57.2,23.2,91.1,30.6
		c33.8,7.3,71.3,11.2,110.5,7.1c38.9-4,80.5-16.9,114.7-44.6c17-13.9,31.8-30.5,43-50.6C1387.2,536.8,1393.2,513.5,1392.9,489.9z"/>
	<path d="M1775.6,700.7c-2.1-6.4-4.9-9.6-7.5-13.5c-2.8-3.6-5.6-6.9-8.5-10.1c-23.5-25.2-48.4-46.2-73.1-65.4
		c-6.2-4.7-12.4-9.3-18.8-13.6c-6.4-4.4-12.9-8.1-19.1-12c-12.6-7.6-25.1-14.7-37.3-21.2c-24.5-13-48.1-23.5-70.7-30.6
		s-44.1-10.6-63-9.8c-18.9,0.6-34.8,5.8-46.4,12.1c-11.6,6.4-19.2,13.4-24,18.4c-4.7,5-6.9,7.9-6.9,7.9s2.4-2.7,7.4-7.4
		c5-4.6,12.9-11.1,24.6-16.7c11.6-5.6,27.2-9.7,45.5-9.5c18.3,0.1,38.9,4.4,60.5,12.2c21.8,7.8,44.6,18.9,68.3,32.5
		c11.8,6.8,23.9,14.1,36.1,22c6.1,4,12.4,7.8,18.3,12.1c6,4.3,12,8.9,17.9,13.7c23.6,19.2,48.1,40.7,70.2,65c2.7,3,5.3,6.2,7.6,9.3
		c2.3,3,4.6,6.8,5.1,8.6l0.2,1.9c0,0.8,0.1,1.7,0.1,2.5c0,1.1-0.2,2-0.4,3c-8.7,5.5-23.6,13.9-44.6,21.2
		c-17.4,6.1-38.8,11.4-62.9,14.1c-12,1.4-24.7,2.1-37.8,1.9c-13.4-0.2-27.2-0.6-41.2-1.5c-28.1-1.8-54.7-5.5-78.1-11.5
		c-23.5-5.9-43.8-14.3-59.5-23.8c-15.8-9.4-27-19.6-34-27.2c-7.1-7.7-10.4-12.5-10.4-12.5c0.1-0.1,2.5,5.3,8.6,13.9
		c6.1,8.6,16.2,20.5,31.7,31.9c9.4,6.9,20.7,13.6,33.6,19.4c-1.2-0.3-2-0.4-2-0.2c-0.3,0.6,23.2,11.2,55.2,20.3
		c-13.5-3.5-28.4-8.1-43.6-14.1c-28.2-11-52.1-24.6-68.2-36c-16.2-11.4-24.8-20.2-25.3-19.7c-0.2,0.2,7.8,9.8,23.8,21.8
		c15.9,12.1,39.9,26.2,68.4,37.3c28.4,11.2,55.5,17.3,75.4,19.7c19.9,2.5,32.3,1.5,32.3,1.1c0-0.1-0.2-0.1-0.5-0.2
		c8.7,0.1,13.8-0.6,13.8-0.9c0-0.6-7.6-0.6-19.7-1.8c-11.5-1.1-27.1-3.6-44.1-7.8c13.4,2.4,27.5,4,41.8,4.9
		c14.4,0.9,28.6,1.1,42.2,0.9c13.8-0.2,27.1-1.6,39.6-3.7c20.4-3.5,38.4-9.1,53.8-15.3c2.3,0.5,5.2,0.9,8.6,0.8c-1,0.4-2,0.7-3,1.1
		c-16.4,5.4-33.4,9-50.4,12.7l-25.1,6.1c-8.1,1.8-16.3,3.3-24.4,4.5c-32.5,4.9-64.6,4.1-94.4-1.1c-29.8-5.2-57.5-14.4-82.3-25.2
		c-24.4-10.7-45.2-25.9-57.3-45c-2.6-4.1-4.7-8.3-6.5-12.5c1.6,2.3,3.5,5,5.8,7.7c9.2,11.4,24.3,25.3,43.3,37.1
		c18.9,11.9,37.8,19.6,51.7,23.8c14,4.2,23.1,5.1,23.1,4.7c0.1-0.6-8.7-2.4-22.3-7.2c-13.6-4.8-32-12.7-50.6-24.4
		c-18.7-11.6-33.7-24.9-43.2-35.7c-4.6-5.1-7.9-9.6-10.2-12.9c-4.2-13.4-4.7-27.1-3-39.1c2.5-18.1,8.9-32.9,14.8-44.4
		c12.3-22.9,22.7-33.5,22.4-33.7c0.3,0.2-10.7,10-24.4,32.5c-6.6,11.3-13.8,26.1-17.4,44.7c-3.6,18.4-2.3,41.8,10.2,63
		c12.3,21.3,34.1,38.3,59.4,50.3c25.2,11.9,53.3,22.2,84.3,28.3c30.9,6.1,64.5,7.5,98.6,2.8c8.5-1.1,17.1-2.6,25.6-4.4
		c8.6-1.8,16.9-4.2,25.2-5.9c16.8-3.6,34.4-7.2,51.9-12.9c8.8-2.9,17.4-6.2,25.7-10.6c8.2-4.5,16.4-9.9,22.8-18.1
		c3.2-4.1,5.7-9,7-14.2c0.6-2.6,1-5.3,1-8c0-1.3,0-2.6-0.1-3.9C1776.1,703.8,1776.1,702.9,1775.6,700.7z M1739.8,729.2
		c0.5,0,1,0,1.6,0c-1.6,0.8-3.3,1.6-5.1,2.5c-2.3,1.1-4.5,2.2-6.5,3.2C1733.4,732.9,1736.7,731,1739.8,729.2z M1756.8,722.4
		c-3.5,4.4-8.1,8.1-13.5,11.3c-3.9,2.1-8.9,4.5-14.9,6.1c-4.9,1.4-9.6,1.9-13.4,2c1.6-0.7,3.2-1.3,4.7-2c1.6-0.7,2.9-1.5,4.4-2.2
		c-2.7,1.4-4.4,2.4-4.2,2.9c0.3,1,8.7-1,18-5.6c9.4-4.6,16.1-9.8,15.6-10.6c0-0.8-2.2-1.1-5.1-0.6c5.2-3.5,9.4-6.7,12.6-9.5
		C1760.2,717.1,1758.8,719.8,1756.8,722.4z"/>
	<path d="M1789.6,332.5c-0.9-1.9-1.7-3-2.7-4.2c-1.8-2.3-3.7-4.1-5.6-5.7c-3.8-3.2-7.7-5.7-11.6-8.1c-7.8-4.7-15.7-8.5-23.5-12.1
		c-31.5-14.1-62.7-24.5-92.8-33.7c-15-4.5-29.7-8.6-44.4-11.9c-15.3-3.1-29.3-4.1-43.4-5.3c-27.9-2.1-54-2.3-77.7-0.9
		c-47.5,2.8-85.6,13.5-108.3,27.8c-11.4,7-18.8,14.4-23.2,19.8c-4.4,5.4-6.1,8.7-6.1,8.7c0.1,0.5,7.3-13.7,30.5-26.5
		c22.9-12.9,60.7-21.5,107.4-22.4c23.4-0.6,49.1,0.6,76.5,3.5c13.5,1.6,28.2,3.2,41.8,6.3c14,3.5,28.6,8,43.3,12.8
		c29.5,9.7,60.3,20.6,90.6,34.6c7.5,3.5,15,7.3,22,11.6c3.5,2.1,6.8,4.4,9.7,6.8c2.8,2.1,5.1,5.9,4.4,4.9c0,0,0,0-0.1,0.1
		c-0.9,0.7-1.9,1.2-4.1,2.1c-4,1.7-8,3.4-12,5c-8.1,3.2-16.4,6.2-24.8,9.1c-33.7,11.3-67.8,19-100.8,26.8c-21.5,5-42.5,10-62.9,14.4
		c4.4-1.7,6.8-3,6.7-3.2c-0.2-0.5-8.1,2.1-21,5.3c-12.9,3.3-31,6.7-51.2,9.2c-7.1,0.9-14,1.6-20.6,2.3c-11.3,0.9-22.1,1.2-33,0.6
		c-27.3-1.2-52.8-5.2-74-14c-10.5-4.4-19.9-10.2-26.5-17.7s-10.6-16.6-10.9-25.4c-0.7-18.1,6.1-33.6,13.1-44.2
		c7.3-10.8,15.4-17.3,21.2-21.2c5.7-3.8,9.2-5.2,9.2-5.3c0,0.1-3.5,1.3-9.5,4.7c-6,3.5-14.6,9.6-22.7,20.4
		c-7.8,10.7-15.7,26.1-15.9,45.7c-0.1,9.9,3.9,20.5,11,29.2c3.9,4.7,8.6,8.8,13.8,12.4c0,1,8.9,6.5,20.8,11.7c1.4,1.1,3.1,2.3,5,3.5
		c3.2,2.1,7.4,4.1,11.9,6c-4-1.1-7.4-2.2-10.3-3.2c-4.8-2.3-9.3-4.6-13.3-6.9c-1.1-0.9-1.8-1.4-2.2-1.4c-3.4-2.1-6.6-4.1-9.2-6.1
		c-6.8-5-10.6-8.8-11-8.4c-0.3,0.3,2.8,4.7,9.4,10.4c3.3,2.9,7.5,6,12.5,9c1.5,2.5,4,5.6,7.9,9c8.3,7.4,22.6,15.2,41.3,20.4
		c37.4,10.8,91.7,12.5,149.3,2.3c57.7-10.1,107.4-29.8,141.2-47.5c33.9-17.7,52.3-32.7,51.3-34.2c4.2-1.7,8.4-3.4,12.5-5.3
		c1.9-0.8,4.9-2.1,7.5-4.2c3.3-2.7,5.7-6.9,5.5-11.2C1791,336.6,1790.5,334.5,1789.6,332.5z M1637.6,395.4
		c8.2-1.8,16.5-3.7,24.8-5.6c-12.9,4.1-24.8,7-33.6,8.4c-4.9,0.8-8.8,1.2-11.4,1.6C1624.2,398.4,1630.8,396.9,1637.6,395.4z
		 M1640,399.3c-4.7,1.6-9.3,2.9-13.7,4.1c2.8-1.2,5-2.2,6.4-3C1635.1,400.1,1637.5,399.8,1640,399.3z M1577.7,408.2
		c11.9-2.4,24-4.9,36.2-7.5c0.2,0.4,4.8,0.9,12.4,0.4c-6.2,1.9-15.2,4.7-25.8,7.3c-0.7,0.1-1.5,0.2-2.2,0.2
		c-11.4,0.8-18.5-0.4-18.6,0.2c-0.1,0.2,3.3,1.3,9.3,1.9c-11.7,2.1-22.6,2.6-30.4,2.1c-0.8-0.1-1.5-0.1-2.3-0.2
		C1563,411.5,1570.3,410.1,1577.7,408.2z M1423.6,426.4c-3.1-1.1-6.7-2.3-10.6-3.7c2.1,0.4,4.2,0.7,6.4,1c3.3,0.4,6.5,0.6,9.6,0.9
		c27.9,4.7,50.2,1.5,50,0.6c0-0.6-7.1-0.3-18.1-0.9c1.2-0.2,1.9-0.3,1.9-0.5c0-1.1-13.9-1.2-32.5-2.8c-1.9-0.3-3.8-0.7-5.8-1.1
		c-11.3-2.2-21.4-5.4-29.4-8.9c3.4,0.9,6.2,1.4,8.1,1.6c15.2,3.9,31.6,6.3,48.7,7.6c4,0.4,8.1,0.6,12.3,0.7
		c-4.3,0.2-6.9,0.4-6.9,0.6c0,0.4,6.9,1.4,18.2,1.3c11.3-0.1,26.9-1.6,43.8-5c0.6-0.1,1.1-0.2,1.7-0.4c5.7-0.7,11.5-1.5,17.2-2.4
		c-4,2.1-9.9,4.6-17.5,6.8c-15.7,4.7-38.2,8-63.2,7.5C1445.4,429.4,1433.9,428.2,1423.6,426.4z M1709.7,384.3
		c-34.3,15-83.2,32.6-139.3,42.3c-40.6,7.2-79.2,9.1-111.1,6.7c24.6,0.3,46.7-3.5,62.1-8.7c9.7-3.2,16.4-7.1,20.1-9.8
		c1.6-0.3,3.3-0.6,4.9-0.9c1-0.1,2-0.2,3-0.3c2.2,0.7,5.1,1.3,8.8,1.8c8.4,1.3,20.3,1.1,33-1.3c5-1,9.6-2.1,14-3.4
		c10.8-0.9,23.9-3.8,37.7-8.5c16.7-5.7,31.6-11.5,42.6-14.7c11-3.3,18-4.6,18-5.1c0-0.4-5.5-0.2-14.3,1.7c1.6-0.6,3.2-1.3,4.7-1.9
		c15.3-3.9,30.7-8.2,46.1-13.4c4.6-1.6,9.1-3.3,13.7-5C1744.1,368.3,1729.2,375.8,1709.7,384.3z"/>
	<path d="M1424,686c-13.4-8.9-23.8-19.1-30.9-29c-14.1-19.9-16.6-35.9-18.5-35.4c-0.7,0.1-0.8,4.2,0.6,11.2s4.6,17.3,11.4,28.5
		s17.5,23.1,31.6,33.1s31.2,18.2,49.9,24.4c37.4,12.3,72.6,15.8,97.8,17.7c25.3,1.7,40.9,1.4,41-0.1c0.2-1.6-15.3-4.1-40.2-7.7
		c-24.8-3.9-59.2-8.6-95.1-20.4C1453.7,702.4,1437.4,694.9,1424,686z"/>
	<path d="M1669.3,712.6c0-0.5-17.7,1.5-46.1-0.3c-28.4-1.7-67.6-6.7-109.5-18c-41.9-11.2-78.3-27.5-100.8-44.8
		c-22.9-17.1-30.1-34.2-30.6-33.8c-0.2,0.1,1.3,4.3,5.7,11.1c4.4,6.7,12,15.8,23.3,24.7c22.5,18.2,59.2,35,101.4,46.3
		c42.2,11.4,81.8,16,110.4,17.1C1651.7,716,1669.3,713,1669.3,712.6z"/>
	<path d="M1486,636.6c27.2,8.1,51.6,16.2,68.8,23.2c17.3,6.9,27.5,12.1,27.8,11.6c0.2-0.4-9.7-6.5-26.8-14
		c-17.1-7.7-41.5-16.2-68.8-24.4s-52-15.4-69.5-21.5c-17.6-6-28.3-10.4-28.5-9.9c-0.1,0.4,10.1,5.7,27.6,12.4
		C1434.1,620.8,1458.8,628.4,1486,636.6z"/>
	<path d="M1440.7,586.1c23.8,8.5,57.2,18.7,93.8,30.8c36.5,12,69,24.7,91.8,35.4c22.9,10.6,36.4,18.4,36.7,17.9
		c0.2-0.3-12.9-9-35.6-20.3c-22.7-11.4-55.2-24.5-91.8-36.6c-36.6-12.1-70.1-21.9-94.1-29.7c-24-7.7-38.7-13.1-38.9-12.6
		C1402.5,571.5,1416.9,577.7,1440.7,586.1z"/>
	<path d="M1433.3,552.4c-0.3,1.2,69.7,12.7,149.1,47.8c39.7,17.3,73.7,36.9,97.4,52.6c23.7,15.6,37.3,26.8,37.7,26.3
		c0.2-0.3-12.8-12.2-36.3-28.5c-23.4-16.2-57.5-36.4-97.3-53.8C1504,561.5,1433.2,551.6,1433.3,552.4z"/>
	<path d="M1577.4,575.3c0.4-0.8-24.8-13.1-57.8-22.3c-33.1-9.2-60.3-14.2-60.5-13.4c-0.3,1.2,26.6,7.8,59.5,17
		C1551.4,565.7,1576.9,576.3,1577.4,575.3z"/>
	<path d="M1386.3,372.8c24.5,7.4,59.4,15,98.7,16.3c39.2,1.5,74.6-3.4,99.6-8.4c25.1-5.1,40.2-10,40.1-10.4
		c-0.2-0.6-15.5,3.4-40.6,7.8s-60.2,8.8-99,7.3c-38.9-1.3-73.6-8.3-98.1-15.1c-24.6-6.7-39.3-12.5-39.6-11.9
		C1347.3,358.7,1361.7,365.3,1386.3,372.8z"/>
	<path d="M1451.6,343.8c23.6-1.2,44.7-2.6,60.1-2.2c15.4,0.3,24.8,1.5,24.9,1c0.1-0.4-9.3-2.6-24.8-3.6c-15.5-1.1-36.9-0.2-60.4,1.1
		c-23.5,1.3-44.7,1.2-59.9-0.9c-15.2-1.8-24.4-4.6-24.6-4c-0.2,0.4,8.8,4.1,24.2,6.7C1406.5,344.6,1428.1,345.1,1451.6,343.8z"/>
	<path d="M1414.5,309.1c19.3,0.6,45.8,0.8,75.2,1.1c29.4,0.3,55.9,1,75.1,2s31,1.9,31.1,1.4c0.1-0.4-11.7-2.3-30.9-3.9
		c-19.2-1.7-45.8-2.8-75.2-3.1c-29.4-0.3-55.9-0.1-75.2,0c-19.2,0.1-31.1,0.1-31.1,0.6C1383.4,307.6,1395.3,308.4,1414.5,309.1z"/>
	<path d="M1717.3,322.2c0.1-0.5-17.5-5.2-45.9-13.3c-28.4-7.9-67.7-19.4-112.1-27.3c-44.5-8.1-86-8.5-115.3-3.1
		c-29.3,5.1-45.9,13.8-45.7,14c0.2,0.7,17.1-7,46.2-11.4c29-4.7,70-3.8,114.2,4.2c44.2,7.8,83.5,19,112.1,26.2
		C1699.3,318.9,1717.2,322.8,1717.3,322.2z"/>
	<path d="M989.3,490c36.3-2.1,86.5-4.8,141.9-2.9c55.4,1.8,105.2,9.3,140.1,19.4c35,9.8,54.9,20.7,55.2,20
		c0.2-0.1-19.4-12-54.5-22.5c-34.9-10.8-85.1-18.8-140.6-20.6c-55.6-1.9-105.9,1.2-142.2,4c-36.3,2.9-58.6,5.6-58.6,6.1
		C930.6,494,953.1,492.2,989.3,490z"/>
	<path d="M1000.5,462c35.4-4.4,84.7-7.2,139.1-6.2s103.6,5.8,138.4,13.4c17.4,3.7,31.2,8.2,40.2,12.2c9.1,4,13.5,7.3,13.7,7.1
		c0.1-0.1-4.1-3.9-13.1-8.4s-22.8-9.4-40.2-13.4c-34.9-8.3-84.3-13.5-138.9-14.5s-104.1,2.3-139.5,7.4
		c-35.5,4.8-56.6,12.4-56.4,12.9C943.9,472.8,965,466.1,1000.5,462z"/>
	<path d="M1136.3,411.3c51.4-0.6,97.9,4.5,130.8,11.5c33,6.9,52.4,14.9,52.6,14.3c0.2-0.3-19-9.2-52.1-16.8
		c-33-7.8-79.7-13.3-131.4-12.7c-103.6,1-185.3,23.2-184.9,23.9C951.5,432.8,1033.2,412.4,1136.3,411.3z"/>
	<path d="M1259.5,384.6c29.1,5.4,46,13,46.2,12.3c0.2-0.3-16.5-8.7-45.7-14.9c-29.1-6.3-70.6-9.1-115.9-5.2
		c-90.9,7.7-160.3,35.2-159.8,35.8c0.2,1.3,69.8-24.5,160.1-32.1C1189.4,376.6,1230.5,379.1,1259.5,384.6z"/>
	<path d="M1140.2,537c-50.9-6.6-96.6-15.1-129.5-22c-32.9-6.9-53-12.5-53.3-11.5s19.3,8.3,52.1,16.6s78.6,17.6,129.8,24.3
		c51.1,6.7,97.9,9.3,131.8,8.1c33.9-1,54.5-6.1,54.3-7.1s-20.8,2.2-54.4,1.9S1191.1,543.7,1140.2,537z"/>
</g>
<g>
	<path class="st0" d="M352,2c-37.6,0-68,30.5-68,68c0,37.6,30.4,68,68,68s68-30.4,68-68C420,32.5,389.6,2,352,2z M350,127
		c0,0,0.1,0,0.1,0.1l0,0c9.3-4.6,15.1-13.7,16.8-16.4c4.5-7.2,6.1-14.2,6.6-21.7"/>
</g>
<path class="st2" d="M373.5,89.1c0-0.5,0.1-1,0.1-1.5l0,0c0.2-3.6,0.2-7.2,0.1-11c-0.1-20.2-6.5-34.6-7.8-37.6
	c-4.5-10-13.7-30.2-26.2-30.7c0,0,0,0-0.1,0h-0.1c-0.2,0-0.3,0-0.5,0c-0.6,0-1.2,0.1-1.8,0.2c-11.8,2-20.2,21.4-24.5,31.5
	c-6.5,15.1-7.1,28-7.3,34.6c-0.5,14.5-1,27.3,7.3,39c1.9,2.6,10.6,15,24.3,16l0,0c0.7,0.1,1.3,0.1,2,0.1c0.4,0,0.7,0,1,0h0.1
	c3.6-0.2,6.9-1.2,9.9-2.6l0,0"/>
<path class="st1" d="M350.1,127.1L350.1,127.1c-0.1,0-0.1,0-0.1-0.1"/>
<line class="st3" x1="339.1" y1="8.3" x2="339.1" y2="129.7"/>
<path class="st2" d="M339.6,8.3c4,0.2,6.4,7.6,10.7,20.5c2.3,6.9,5.9,19.5,7.3,42.9c2,33.7-3.4,43.2-5.4,46.3
	c-2.9,4.6-7.6,12.1-13.2,11.7L339.6,8.3z"/>
<path class="st2" d="M337.3,8.4c-3.5,1.1-5.9,8.3-10,20.3c-2.3,6.9-5.9,19.5-7.3,42.9c-2,33.7,3.4,43.2,5.4,46.3
	c2.9,4.6,7.6,12.1,13.2,11.7"/>
<path class="st2" d="M350,127c0,0,0.1,0,0.1,0.1c11.3,6.2,24.5-0.2,27.7-1.7c10-4.8,14.9-12.8,20.3-21.5c9-14.6,11-27.9,11.3-30.6
	c1.2-9.2,3.8-28-5-34c-0.1-0.1-0.3-0.2-0.4-0.3c-0.5-0.3-0.9-0.5-1.4-0.7l0,0c-9.4-3.9-24.2,6.3-31.9,11.7c-0.1,0.1-0.2,0.1-0.3,0.2
	"/>
<line class="st4" x1="346.3" y1="124.3" x2="346.3" y2="124.3"/>
<line class="st3" x1="404" y1="39" x2="373.5" y2="87.8"/>
<path class="st2" d="M402.9,58.8c-1.5,6-4.5,16.8-14.1,34.3c-13.8,25.2-21.9,29.6-24.8,31c-3.8,1.8-9.9,4.8-13.8,3
	c9.3-4.6,15.1-13.7,16.8-16.4c4.5-7.2,6.1-14.2,6.6-21.7l30.9-49.9l0,0c0,0,0.1,0,0.1,0.1C407.1,41.3,405.6,47.7,402.9,58.8z"/>
<path class="st1" d="M70,0.5C31.7,0.5,0.5,31.7,0.5,70s31.2,69.5,69.5,69.5s69.5-31.2,69.5-69.5S108.3,0.5,70,0.5z M70,136.5
	c-36.7,0-66.5-29.8-66.5-66.5C3.5,33.3,33.3,3.5,70,3.5c36.7,0,66.5,29.8,66.5,66.5C136.5,106.7,106.7,136.5,70,136.5z M123.9,38.6
	c-0.2-0.2-0.4-0.4-0.6-0.5l-0.4-0.3h-0.2c-0.2-0.1-0.4-0.2-0.6-0.3c-0.3-0.3-0.7-0.4-1-0.5l0,0c0,0,0,0,0,0
	c-9.9-4.1-24.5,5.7-32.3,11.1c-1.5-4.7-2.9-8.1-3.7-9.7c-4.6-10.1-14-30.8-27.3-31.5c-0.1,0-0.2,0-0.2,0l0,0c-0.2,0-0.3,0-0.5,0
	c0,0-0.1,0-0.1,0c-0.4,0-0.7,0-1.1,0.1l0-0.1c-0.4,0-0.8,0.1-1.2,0.2C42.4,9.2,34.1,28.5,29.5,39.2l-0.1,0.2
	c-6.5,15.3-7.1,28.7-7.4,35.1c-0.6,14.2-1.2,27.6,7.6,39.9c2.6,3.8,12,16,26.1,16.7c0.2,0,0.4,0,0.7,0c0.2,0,0.3,0,0.5,0
	c0,0,0.1,0,0.1,0c0,0,0.1,0,0.1,0c0.1,0,0.3,0,0.4,0c0.1,0,0.2,0,0.3,0c3-0.1,6.5-0.7,10.3-2.4c3.3,1.7,6.9,2.5,10.9,2.5
	c5.2,0,11-1.5,17.3-4.4l0.2-0.1c10.3-4.9,15.4-13.1,20.8-21.8l0.2-0.2c9.5-15.5,11.3-29.7,11.5-31.2l0.1-0.4
	C130.2,63.3,132.6,45.4,123.9,38.6z M119.3,58.4c-0.9,3.6-3.4,14.8-14,33.9c-9.2,16.9-17.4,27.1-24.2,30.4c-2.1,1-5.2,2.4-7.9,3.1
	c4.2-3,8.6-7.5,12.8-14.1l0.1-0.1c4.9-7.7,6.4-15.4,6.9-23.3l29.1-46.5C122.7,44.5,121.1,51,119.3,58.4z M119.8,39.7L93.2,82.2
	c0-1.8,0-3.7,0-5.6l-1.5,0l1.5,0c0-5.1-0.4-9.8-1.1-14c4.6-5.2,8.8-9.4,13.1-12.9l0.6-0.5C112.4,43.8,117.3,39.8,119.8,39.7z
	 M123.5,38.3c-0.1,0-0.1-0.1-0.2-0.2c-0.1-0.1-0.2-0.1-0.3-0.2l-0.1-0.1C123.1,37.9,123.3,38,123.5,38.3z M114,39.1
	c-2.7,1.7-5.9,4.4-10,7.8l-0.6,0.5c-3.9,3.1-7.8,6.9-11.9,11.4c-0.5-2.8-1.1-5.3-1.7-7.7C95,47.4,105.5,40.1,114,39.1z M82.5,39.6
	c1.8,3.8,7.6,17.7,7.7,37v0.1c0.1,12.1,0.2,22.6-6.6,33.2l-0.1,0.1c-6,9.3-12.1,14.1-17.5,16.4c2.2-2.4,4-5.3,5.4-7.5
	c5.1-7.9,7-23.8,5.6-47.2c-1.4-23.1-4.9-35.8-7.4-43.3l-0.2-0.6c-2.4-7.2-4.2-12.5-6-16C72.2,16.9,78.9,31.7,82.5,39.6z M55.6,9.9
	C55.6,9.9,55.6,9.9,55.6,9.9l0,118.2c-4.3-0.6-8.3-7-10.8-11c-4.8-7.4-6.5-22.7-5.2-45.4C41,49,44.4,36.6,46.8,29.3l0.2-0.6
	C50.4,18.5,52.9,11,55.6,9.9z M66.7,28.6l0.2,0.6c2.4,7.3,5.9,19.8,7.2,42.5c1.3,22.7-0.4,38-5.2,45.5c-2.4,3.8-6.2,9.8-10.3,10.8
	V10.2C61.1,11.9,63.5,19.1,66.7,28.6z M32,112.7c-8.1-11.5-7.6-24.4-7-38.1c0.3-6.7,0.9-19.3,7.2-34.1l0.1-0.2
	c3.3-7.7,9.4-22,17.5-27.9c-1.7,3.5-3.4,8.5-5.6,15.2L44,28.3c-2.5,7.5-6,20.2-7.4,43.3c-1.4,23.4,0.5,39.3,5.7,47.3
	c1.4,2.1,3.1,4.9,5.2,7.3C39.3,122.7,33.9,115.4,32,112.7z M126,72.7l-0.1,0.4c-0.2,1.5-1.9,15.1-11.1,30l-0.1,0.2
	c-5.4,8.7-10,16.1-19.5,20.7l-0.2,0.1c-7.1,3.3-13.5,4.7-19,4c2.4-0.8,4.7-1.8,6.6-2.7c2.7-1.3,11.1-5.3,25.5-31.6
	c10.7-19.5,13.4-30.9,14.2-34.7c1.4-5.9,2.6-10.5,2.9-13.9C128.6,52.8,126.9,65.7,126,72.7z"/>
<g>
	<g>
		<circle class="st3" cx="237.2" cy="-223.1" r="68"/>
	</g>
	<g>
		<g>
			<path class="st3" d="M258.9-216.5c0.1,12.1,0.2,23.1-6.8,34.1c-2.3,3.6-12,19-27.8,19c-14.8,0.1-24.4-13.3-26.3-16.1
				c-8.3-11.7-7.9-24.6-7.3-39c0.3-6.7,0.9-19.6,7.3-34.6c4.6-10.7,13.5-31.6,26.3-31.7s22.2,20.6,26.8,30.7
				C252.5-251.1,258.8-236.7,258.9-216.5z"/>
			<line class="st3" x1="224.3" y1="-284.8" x2="224.3" y2="-163.3"/>
			<path class="st3" d="M224.8-284.8c4,0.2,6.4,7.6,10.7,20.5c2.3,6.9,5.9,19.5,7.3,42.9c2,33.7-3.4,43.2-5.4,46.3
				c-2.9,4.6-7.6,12.1-13.2,11.7"/>
			<path class="st3" d="M223.3-284.8c-4,0.2-6.4,7.6-10.7,20.5c-2.3,6.9-5.9,19.5-7.3,42.9c-2,33.7,3.4,43.2,5.4,46.3
				c2.9,4.6,7.6,12.1,13.2,11.7"/>
		</g>
		<g>
			<path class="st3" d="M235.2-166.1c0,0,0.1,0,0.1,0.1c11.3,6.2,24.5-0.2,27.7-1.7c10-4.8,14.9-12.8,20.3-21.5
				c9-14.6,11-27.9,11.3-30.6c1.2-9.2,3.8-28-5-34c-0.1-0.1-0.3-0.2-0.4-0.3c-0.5-0.3-0.9-0.5-1.4-0.7l0,0
				c-9.4-3.9-24.2,6.3-31.9,11.7c-0.1,0.1-0.2,0.1-0.3,0.2"/>
			<line class="st3" x1="231.5" y1="-168.7" x2="231.5" y2="-168.7"/>
			<line class="st3" x1="289.2" y1="-254.1" x2="258.7" y2="-205.3"/>
			<path class="st3" d="M235.2-166.1h0.1c3.9,1.7,10-1.2,13.8-3c2.9-1.4,11-5.8,24.8-31c9.6-17.5,12.7-28.3,14.1-34.3
				c2.7-11.1,4.2-17.5,1.6-19.5c0,0-0.1,0-0.1-0.1"/>
			<path class="st3" d="M258-231.3c5.9-6.8,10.4-10.8,13.5-13.3c8.3-6.8,13.2-10.9,16.3-10.2l0,0c0.2,0.1,0.5,0.1,0.7,0.3"/>
		</g>
	</g>
</g>
<g>
	<g>
		<path class="st1" d="M-21.6-36.3c-38.3,0-69.5-31.2-69.5-69.5s31.2-69.5,69.5-69.5s69.5,31.2,69.5,69.5S16.7-36.3-21.6-36.3z
			 M-21.6-172.3c-36.7,0-66.5,29.8-66.5,66.5s29.8,66.5,66.5,66.5s66.5-29.8,66.5-66.5S15.1-172.3-21.6-172.3z"/>
	</g>
	<path class="st1" d="M-23.5-48.7L-23.5-48.7C-23.5-48.7-23.6-48.7-23.5-48.7"/>
	<line class="st4" x1="-27.3" y1="-51.5" x2="-27.3" y2="-51.5"/>
	<path class="st5" d="M-23.5-48.7"/>
	<g>
		<g>
			<path class="st1" d="M-24.6-58.8c-2.3,3.7-6,9.5-10,10.8v-105.1v-12.2c2.4,2.3,4.8,9.4,7.8,18.6c2.5,7.4,5.9,19.8,7.2,42.5
				C-18.1-81.6-19.8-66.3-24.6-58.8z"/>
			<path class="st1" d="M-50.5-57.2c1.5,2.3,3.4,5.4,5.7,7.9c-6.1-2.3-12-7.1-16.9-14c-8-11.3-7.6-23.7-7-38.1
				c0.2-6.2,0.7-19,7.2-34.1c3.7-8.5,10.9-25.5,20.5-29.8c-2.5,3.4-5,9.1-7.8,17.5c-2.5,7.5-6,20.2-7.4,43.3
				C-58.2-69.4-52.4-60.2-50.5-57.2z"/>
			<rect x="-38" y="-48" class="st1" width="0" height="0.2"/>
			<path class="st1" d="M-3.2-93c-0.1,1.7-0.2,3.4-0.4,5.2c0,0.2,0,0.4,0,0.6v0.2l0,0c0,0.3,0,0.6-0.1,0.8c0,0.1,0,0.3,0,0.4
				s0,0.3,0,0.5c-0.4,4.7-1.4,8.8-2.9,12.6l0,0C-9.5-64.1-15.1-54-26-50.3c0,0-0.1,0-0.1,0.1l0,0l0,0c-0.4,0.2-0.8,0.4-1.3,0.6
				c2.2-2.4,4-5.3,5.4-7.5c1.9-3,7.7-12.2,5.6-47.2c-1.4-23.1-4.9-35.8-7.4-43.3s-4.4-13.1-6.3-16.7c8.8,5.2,15.5,20.1,19.1,28
				c1.8,4.1,5.7,13.8,7.1,27.1l0,0c0.3,2.9,0.5,6,0.5,9.3C-3.3-97.3-3.2-94.9-3.2-93z"/>
			<path class="st1" d="M-6.6-72.7c1.5-3.8,2.4-7.9,2.9-12.6C-4-82.9-4.8-78.1-6.6-72.7z M-6.6-72.7c1.5-3.8,2.4-7.9,2.9-12.6
				C-4-82.9-4.8-78.1-6.6-72.7z M-36.1-46.3L-36.1-46.3L-36.1-46.3L-36.1-46.3L-36.1-46.3z M-0.9-109.3c0.2,2.8,0.4,6.2,0.5,9.6
				C-0.4-103.1-0.6-106.3-0.9-109.3z M-3.4-99.9c0,0.2,0,0.3,0,0.5v0.5c0,3.6,0,7-0.1,10.4c0,0.2,0,0.4,0,0.7
				c0.2-1.7,0.3-3.5,0.4-5.2C-3.2-94.9-3.3-97.3-3.4-99.9z M-0.7-85.9c0-0.1,0-0.1,0-0.2s0-0.1,0-0.2C-0.6-86.1-0.7-86-0.7-85.9z
				 M-6.6-72.7c1.5-3.8,2.4-7.9,2.9-12.6C-4-82.9-4.8-78.1-6.6-72.7z M-6.6-72.7c1.5-3.8,2.4-7.9,2.9-12.6
				C-4-82.9-4.8-78.1-6.6-72.7z M-6.6-72.7c1.5-3.8,2.4-7.9,2.9-12.6C-4-82.9-4.8-78.1-6.6-72.7z M-6.6-72.7
				c1.5-3.8,2.4-7.9,2.9-12.6C-4-82.9-4.8-78.1-6.6-72.7z M-5.1-68.7c-0.7,1.4-1.5,2.8-2.3,4.2c-3.9,6.2-8.3,11-13,14.3
				c0.1,0,0.2,0,0.4-0.1l1.6-0.4C-10-56.2-5.5-65.4-3.1-73.1c1.4-4.5,2.1-8.5,2.4-11c0-0.1,0-0.2,0-0.4c0-0.4,0.1-0.7,0.1-1
				c0-0.1,0-0.2,0-0.3C-1.5-79.4-2.9-73.7-5.1-68.7z"/>
		</g>
		<g>
			<polygon class="st1" points="-36.1,-46.3 -36.1,-46.3 -36.1,-46.3 			"/>
			<path class="st1" d="M-24.6-58.8c-2.3,3.7-6,9.5-10,10.8v-105.1v-12.2c2.4,2.3,4.8,9.4,7.8,18.6c2.5,7.4,5.9,19.8,7.2,42.5
				C-18.1-81.6-19.8-66.3-24.6-58.8z"/>
			<path class="st1" d="M-36.1-46.3L-36.1-46.3L-36.1-46.3L-36.1-46.3L-36.1-46.3z M-38-48c0.1,0,0.3,0.1,0.4,0.1v-107.2L-38-48z"/>
		</g>
		<g>
			<path class="st1" d="M-37.6-164.6v9.5L-38-48l0,0c-4-1.3-7.6-7.1-9.9-10.8c-4.8-7.6-6.5-22.9-5.1-45.5
				c1.3-22.7,4.8-35.2,7.2-42.5c3.3-9.9,5.9-15,7.8-17.3C-37.8-164.3-37.7-164.4-37.6-164.6z"/>
			<path class="st1" d="M-37.6-155.1v107.2c-0.1,0-0.3-0.1-0.4-0.1L-37.6-155.1z"/>
			<polygon class="st1" points="-36.1,-46.3 -36.1,-46.3 -36.1,-46.3 			"/>
		</g>
		<g>
			<path class="st1" d="M28.7-133.8L-0.6-86.5c0,0.1,0,0.2,0,0.4c0,0.1,0,0.1,0,0.2v0.1c0,0.1,0,0.2,0,0.3c0,0.3-0.1,0.6-0.1,1
				c0,0.1,0,0.2,0,0.4c-0.5,4-1.2,7.7-2.4,11c-2.4,7.7-6.9,16.9-15.3,22.4c2.2-0.7,4.5-1.8,6.2-2.6c6.9-3.3,15-13.6,24.2-30.4
				c9.3-17,12.4-27.5,14-33.9c1.6-6.5,2.9-12.1,2.9-15.3C28.7-133.2,28.7-133.5,28.7-133.8z M31.6-130.9c-0.3,3.4-1.4,8-2.9,14.1
				c-1.6,6.6-4.8,17.3-14.2,34.6C0.2-56-8.2-51.9-11-50.6c-1.8,0.9-4,1.9-6.3,2.7c4.7,0.5,11-0.3,18.8-4.1
				c9.6-4.6,14.3-12.2,19.7-21c8.2-13.3,10.5-25.4,11.1-30C33.4-110,35.1-123.1,31.6-130.9z M28.7-133.8L-0.6-86.5
				c0,0.1,0,0.2,0,0.4c0,0.1,0,0.1,0,0.2v0.1c0,0.1,0,0.2,0,0.3c0,0.3-0.1,0.6-0.1,1c0,0.1,0,0.2,0,0.4c-0.5,4-1.2,7.7-2.4,11
				c-2.4,7.7-6.9,16.9-15.3,22.4c2.2-0.7,4.5-1.8,6.2-2.6c6.9-3.3,15-13.6,24.2-30.4c9.3-17,12.4-27.5,14-33.9
				c1.6-6.5,2.9-12.1,2.9-15.3C28.7-133.2,28.7-133.5,28.7-133.8z M-3.4-125.2c0.3,1.4,1,4.1,1.6,7.7c5-5.5,9-9,11.6-11.1
				c4.6-3.8,9.2-6.6,12.5-8.4C13.9-137.1,2.8-129.5-3.4-125.2z M28.7-133.8L-0.6-86.5l0,0l0,0v0.1c0,0.1,0,0.2,0,0.4v0.1
				C-1.4-79.5-2.9-73.8-5-68.8c-0.7,1.4-1.5,2.8-2.3,4.2c-3.9,6.2-8.3,11-13,14.3c0.1,0,0.2,0,0.4-0.1l1.6-0.4
				c2.2-0.7,4.5-1.8,6.2-2.6c6.9-3.3,15-13.6,24.2-30.4c9.3-17,12.4-27.5,14-33.9c1.6-6.5,2.9-12.1,2.9-15.3
				C28.7-133.2,28.7-133.5,28.7-133.8z M-0.9-109.3c0.2,2.8,0.4,6.2,0.5,9.6c0,0.1,0,0.2,0,0.3v0.5c0,2.2,0,4.3,0,6.4l0.2-0.3
				l0.1-0.1c0-0.3,0-0.6,0-0.9c0.2-7.4-0.4-14.3-1.2-19.8C-1.2-112.6-1.1-111.2-0.9-109.3C-0.9-109.5-0.9-109.4-0.9-109.3z"/>
			<path class="st1" d="M-7.4-64.5c-3.9,6.2-8.3,11-13,14.3c0.1,0,0.2,0,0.4-0.1c6.6-4.3,11.7-10.5,15-18.5
				C-5.8-67.2-6.6-65.8-7.4-64.5z M-1.3-113.7c0.1,1,0.2,2.4,0.3,4.2c0,0.1,0,0.2,0,0.3c0.2,2.8,0.4,6.2,0.5,9.6c0,0.1,0,0.2,0,0.3
				v0.5c0,2.2,0,4.3,0,6.4l0.2-0.3l0.1-0.1c0-0.3,0-0.6,0-0.9C0.1-101.3-0.5-108.2-1.3-113.7z M-0.6-86.4L-0.6-86.4
				c0,0.2,0,0.3,0,0.5c0-0.1,0-0.1,0-0.2C-0.6-86.2-0.6-86.3-0.6-86.4L-0.6-86.4L-0.6-86.4z M-7.9-69.8L-7.9-69.8
				c-3.4,8.1-9.1,15.1-18,19.4c10.8-3.7,16.5-13.8,19.4-22.4l0,0c1.5-3.8,2.4-7.9,2.9-12.6c0-0.2,0-0.3,0-0.5c0-0.1,0-0.3,0-0.4
				c0-0.3,0.1-0.5,0.1-0.8l0,0v-0.2c0-0.2,0-0.4,0-0.6C-4.1-81.7-5.5-75.5-7.9-69.8z"/>
		</g>
		<g>
			<path class="st1" d="M26.4-135.8L-0.1-93l-0.1,0.2l-0.2,0.3c0-2.1,0-4.2,0-6.4v-0.5c0-0.1,0-0.2,0-0.3c-0.1-3.3-0.4-6.8-0.5-9.6
				c0-0.1,0-0.2,0-0.3c-0.1-1.7-0.2-3.2-0.3-4.2c5.7-6.5,10.1-10.4,12.9-12.7C17.9-131.5,23.9-134.6,26.4-135.8z"/>
			<path class="st1" d="M-3.4-99.9c-0.1-2.9-0.3-6.1-0.5-9.3C-3.6-106.3-3.4-103.1-3.4-99.9z"/>
			<path class="st1" d="M-0.4-92.5c0-2.1,0-4.2,0-6.4v-0.5c0.1,2.4,0.2,4.7,0.2,6.6L-0.4-92.5z"/>
		</g>
		<path class="st1" d="M28.7-132.2c-0.1,3.3-1.4,8.6-2.9,14.7c-1.5,6.4-4.7,16.9-14,33.9c-9.2,16.8-17.3,27-24.2,30.4
			c-1.7,0.8-3.9,1.9-6.2,2.6l-1.6,0.4c-0.1,0-0.2,0.1-0.4,0.1c4.8-3.3,9.1-8.1,13-14.3c0.9-1.4,1.6-2.8,2.3-4.2
			c2.2-5,3.6-10.7,4.4-17.1v-0.1c0-0.1,0-0.2,0-0.4v-0.1l0,0l0,0l29.6-47.5c0,0.1,0,0.3,0,0.5C28.7-133.3,28.7-132.3,28.7-132.2z"/>
		<path class="st4" d="M-7.9-69.8L-7.9-69.8c-0.6,1.3-1.3,2.5-2,3.7c-4.8,7.6-10.2,12.9-16.2,15.8l0,0c0,0,0.1,0,0.1-0.1
			c10.8-3.7,16.5-13.8,19.4-22.4C-7-71.7-7.4-70.7-7.9-69.8z M-5.1-68.7c0.7-1.4,1.3-2.9,1.8-4.4c1.2-3.4,2-7,2.4-11
			c0-0.1,0-0.2,0-0.4c0-0.4,0.1-0.7,0.1-1c0-0.1,0-0.2,0-0.3C-1.5-79.4-2.9-73.7-5.1-68.7z M-18.5-50.6c-0.5,0.2-1.1,0.3-1.6,0.4"/>
	</g>
</g>
</svg>
