<?xml version="1.0" encoding="utf-8"?>
<!-- Generator: Adobe Illustrator 26.0.1, SVG Export Plug-In . SVG Version: 6.00 Build 0)  -->
<svg version="1.1" id="Layer_1" xmlns="http://www.w3.org/2000/svg" xmlns:xlink="http://www.w3.org/1999/xlink" x="0px" y="0px"
	 viewBox="0 0 140 140" style="enable-background:new 0 0 140 140;" xml:space="preserve">
<style type="text/css">
	.st0{fill:none;stroke:#253F8E;stroke-width:1.5;stroke-miterlimit:10;}
	.st1{fill:#253F8E;}
</style>
<g>
	<circle class="st0" cx="-290" cy="-46.3" r="68"/>
	<g>
		<polyline class="st0" points="-290.3,22.3 -290.3,21.7 -290.3,2.5 -290.3,-4 -290.3,-11.5 		"/>
		<polyline class="st0" points="-290.3,-30.7 -290.3,-41.4 -290.3,-42 		"/>
		<circle class="st0" cx="-290.3" cy="-21.1" r="9.6"/>
		<circle class="st0" cx="-268.9" cy="-36.1" r="7.5"/>
		<circle class="st0" cx="-310.6" cy="-36.1" r="7.5"/>
		<path class="st1" d="M-252.4-16.2c1.3,3-6.8,9.2-18,13.9c-8.3,3.5-16,5.1-19.9,4.5c0-1.9,0-4.1,0.1-6.4c3.1-2.9,8.7-6.2,15.3-9
			C-263.7-17.8-253.6-19.2-252.4-16.2z"/>
		<path class="st1" d="M-327.6-16.2c-1.3,3,6.8,9.2,18,13.9c8.3,3.5,15.4,5.3,19.4,4.7c0-1.9,0.1-4.1,0-6.4
			c-3.1-2.9-8.2-6.4-14.8-9.2C-316.3-17.8-326.4-19.2-327.6-16.2z"/>
		<line class="st0" x1="-275.3" y1="-31.8" x2="-281.7" y2="-26.5"/>
		<line class="st0" x1="-304.2" y1="-31.8" x2="-297.8" y2="-26.5"/>
		<ellipse class="st0" cx="-290.3" cy="-62.9" rx="15" ry="21.4"/>
		<path class="st0" d="M-287.1-83.7c0,0-11.8,10.1-5.4,19.1s9.6,17.1,2.1,23.2"/>
	</g>
</g>
<image style="display:none;overflow:visible;" width="458" height="437" xlink:href="D4885A69.jpg"  transform="matrix(0.4873 0 0 0.4873 -35.96 -26)">
</image>
<g>
	<path class="st1" d="M139.5,53.1c0-1.3,0-2.5,0-3.7c0-3,0-5.5,0-8.1c0-0.7-0.1-1.5-0.7-2.2c-0.7-0.7-1.5-0.7-2.3-0.7
		c-5.3,0-10.7,0-15.9,0l-4,0l0-13.4c0-3.1-1.3-4.4-4.4-4.4l-22.5,0V19c0-3.4-1.3-6.6-3.7-9c-2.4-2.4-5.6-3.7-9-3.7
		c-7,0-12.7,5.7-12.7,12.7v1.7c-6.9,0-13.8,0-20.5,0l-7.8,0l-10.4,0c-6.9,0-13.9,0-20.8,0c-3.1,0-4.4,1.3-4.4,4.4l0,14
		c0,12.8,0,25.9,0,38.9C0.6,97,12,113.7,29.6,120.5c0.1,0,0.1,0,0.2,0.1c0,0,0,0.1,0,0.2c0,2.2,0,4.4,0,6.5l0,1.8
		c0,3.3,1.2,4.5,4.5,4.5H65h17.8c3.3,0,4.5-1.2,4.5-4.5l0-1.7c0-2.1,0-4.4,0-6.6c0-0.1,0-0.2,0-0.2c0,0,0.1,0,0.2-0.1
		c15.2-5.9,25.7-19.1,28.4-34.9c11.5-1,21.6-9.6,23.2-19.9c0.5-2.9,0.4-5.8,0.3-8.4C139.4,55.9,139.4,54.5,139.5,53.1z M67.3,19
		c0-5.3,4.3-9.7,9.7-9.7c2.6,0,5,1,6.8,2.8s2.8,4.3,2.8,6.8v1.7l-19.4,0V19z M113.6,77.9c-0.1,18.1-10.5,33.3-27.2,39.8
		c-1.5,0.6-2.1,1.5-2.1,3.1c0,2.1,0,4.3,0,6.5l0,1.8c0,1.1-0.1,1.4-0.1,1.4c0,0-0.3,0.2-1.4,0.2H34.3c-1.1,0-1.3-0.1-1.4-0.1
		c0,0-0.2-0.3-0.2-1.4l0-1.8c0-2.1,0-4.3,0-6.5c0-1.6-0.6-2.6-2.1-3.1C14,111.3,3.6,96,3.5,77.9c-0.1-13,0-26.1,0-38.9l0-14
		c0-1,0.1-1.2,0.1-1.2c0,0,0.2-0.1,1.2-0.1c6.9,0,13.9,0,20.8,0l10.4,0l7.8,0c7.7,0,15.6,0,23.4,0l19.4,0v5
		c-3.2,2-10.8,6.6-13.5,8.2c-1.1,0.6-1.6,1.5-1.6,2.8c0,11,0,21.9,0,32.9c0,1.9,0.7,2.6,2.5,2.6c9.4,0,18.8,0,28.2,0
		c1.8,0,2.5-0.7,2.5-2.6c0-11,0-21.9,0-32.9c0-1.3-0.5-2.1-1.6-2.7c-2.9-1.6-10.3-6.1-13.5-8.1v-5.1l22.5,0c1,0,1.2,0.1,1.2,0.1
		c0,0,0.1,0.2,0.1,1.2l0,14C113.6,51.8,113.6,65,113.6,77.9z M136.5,49.4c0,1.2,0,2.4,0,3.6c-0.1,1.4-0.1,2.9,0,4.5
		c0.1,2.6,0.1,5.2-0.3,7.8c-1.4,8.6-10.1,16.1-19.8,17.3c0.2-1.5,0.2-3.1,0.3-4.7c0-12.2,0-24.5,0-36.5l4,0c5.2,0,10.6,0,15.9,0
		C136.4,44,136.5,46.6,136.5,49.4z"/>
	<path class="st1" d="M83.1,122.1c0-0.4,0.1-1.5-0.8-2.2c-0.8-0.7-1.9-0.4-2.3-0.3c-1.4,0.4-3.3,0.8-5.2,0.8c-2.8,0-5.6,0.1-8.4,0.2
		c-9.9,0.2-20,0.4-30.1-0.8c-0.7-0.1-1.4,0.1-1.9,0.6c-0.5,0.4-0.8,1.1-0.8,1.8l0,0.8c0,1.4,0,2.8,0,4.2c0,0.3,0,1.3,0.6,2
		s1.6,0.7,2,0.7c2.6,0,5.2,0,7.8,0l3,0l7.5,0c8.5,0,17,0,25.6,0c0,0,0.1,0,0.1,0c0.6,0,1.5,0,2.2-0.8c0.7-0.7,0.7-1.6,0.6-2.2
		C83,125,83,123.5,83.1,122.1z M62.1,126.7c-2.5,0-5,0-7.5,0l-7.5,0l-2.9,0c-2.5,0-5,0-7.4,0c0-1.3,0-2.6,0-3.8l0-0.1
		c10,1.2,20.1,1,29.8,0.8c2.8-0.1,5.6-0.1,8.4-0.1c1.9,0,3.7-0.4,5.2-0.7c-0.1,1.3,0,2.6,0,4C74.1,126.7,68.1,126.7,62.1,126.7z"/>
</g>
</svg>
