<?xml version="1.0" encoding="utf-8"?>
<!-- Generator: Adobe Illustrator 26.0.1, SVG Export Plug-In . SVG Version: 6.00 Build 0)  -->
<svg version="1.1" id="Layer_1" xmlns="http://www.w3.org/2000/svg" xmlns:xlink="http://www.w3.org/1999/xlink" x="0px" y="0px"
	 viewBox="0 0 140 140" style="enable-background:new 0 0 140 140;" xml:space="preserve">
<style type="text/css">
	.st0{fill:none;stroke:#253F8E;stroke-width:1.5;stroke-miterlimit:10;}
	.st1{fill:#253F8E;}
	.st2{fill:none;stroke:#253F8E;stroke-width:3;stroke-miterlimit:10;}
	.st3{fill:#222222;}
	.st4{fill:#3C3C3C;}
	.st5{fill:#4B4B4B;}
</style>
<g>
	<circle class="st0" cx="-290" cy="-46.3" r="68"/>
	<g>
		<polyline class="st0" points="-290.3,22.3 -290.3,21.7 -290.3,2.5 -290.3,-4 -290.3,-11.5 		"/>
		<polyline class="st0" points="-290.3,-30.7 -290.3,-41.4 -290.3,-42 		"/>
		<circle class="st0" cx="-290.3" cy="-21.1" r="9.6"/>
		<circle class="st0" cx="-268.9" cy="-36.1" r="7.5"/>
		<circle class="st0" cx="-310.6" cy="-36.1" r="7.5"/>
		<path class="st1" d="M-252.4-16.2c1.3,3-6.8,9.2-18,13.9c-8.3,3.5-16,5.1-19.9,4.5c0-1.9,0-4.1,0.1-6.4c3.1-2.9,8.7-6.2,15.3-9
			C-263.7-17.8-253.6-19.2-252.4-16.2z"/>
		<path class="st1" d="M-327.6-16.2c-1.3,3,6.8,9.2,18,13.9c8.3,3.5,15.4,5.3,19.4,4.7c0-1.9,0.1-4.1,0-6.4
			c-3.1-2.9-8.2-6.4-14.8-9.2C-316.3-17.8-326.4-19.2-327.6-16.2z"/>
		<line class="st0" x1="-275.3" y1="-31.8" x2="-281.7" y2="-26.5"/>
		<line class="st0" x1="-304.2" y1="-31.8" x2="-297.8" y2="-26.5"/>
		<ellipse class="st0" cx="-290.3" cy="-62.9" rx="15" ry="21.4"/>
		<path class="st0" d="M-287.1-83.7c0,0-11.8,10.1-5.4,19.1s9.6,17.1,2.1,23.2"/>
	</g>
</g>
<image style="display:none;overflow:visible;" width="458" height="437" xlink:href="CFD8637C.jpg"  transform="matrix(0.4873 0 0 0.4873 -35.96 -26)">
</image>
<path class="st1" d="M42.2,90.7c-0.7,0.5-2.9,1.8-5.2,0.1c-1.5-1.1-2-2.8-1.4-4.9c0.1-0.5,0.2-1,0.3-1.4c0-0.1,0-0.3,0.1-0.4
	c-0.1-2.7-1.1-4.7-2.9-6.1c-0.6-0.5-2.6-2.1-1.8-4.8c0.8-2.8,3.4-3,4.3-3c3.3-0.2,5.6-1.9,6.9-5c0.8-2,2.2-3,4.1-3c1.8,0,3.2,1,4,3
	c1.3,3.2,3.5,4.8,6.8,5c0.9,0.1,3.5,0.2,4.3,3c0.8,2.6-1.1,4.3-1.8,4.8c-2.6,2.1-3.4,4.7-2.6,8c0.2,0.8,0.8,3.4-1.5,5
	c-0.8,0.6-1.6,0.8-2.3,0.8c-1.3,0-2.3-0.6-2.8-1C47.8,88.9,45.1,88.9,42.2,90.7z M116.7,103.7c0.5,0.3,1.5,1,2.8,1
	c0.7,0,1.5-0.2,2.3-0.8c2.4-1.7,1.7-4.2,1.5-5c-0.8-3.2,0-5.9,2.6-8c0.6-0.5,2.6-2.2,1.8-4.8c-0.9-2.8-3.5-2.9-4.3-3
	c-3.4-0.2-5.6-1.9-6.8-5c-0.8-2-2.1-3-4-3c-1.9,0-3.3,1-4.1,3c-1.3,3.2-3.5,4.8-6.9,5c-0.9,0.1-3.5,0.2-4.3,3
	c-0.8,2.7,1.2,4.3,1.8,4.8c1.8,1.5,2.8,3.4,2.9,6.1c0,0.1,0,0.2-0.1,0.4c-0.1,0.4-0.1,1-0.3,1.4c-0.6,2.2-0.1,3.8,1.4,4.9
	c2.3,1.7,4.5,0.3,5.2-0.1C111.1,101.9,113.8,101.9,116.7,103.7z M139.5,91.8c0,24.5-20,44.5-44.5,44.5c-9,0-17.6-2.7-25-7.7
	c-7.1,4.9-15.7,7.7-25,7.7c-24.5,0-44.5-20-44.5-44.5c0-20.8,14.4-38.3,33.7-43.2c-2.4-4.8-3.3-10.3-3.8-14.7
	c-0.8-6.9-0.1-14.2,1.9-22.4c0.2-0.7,0.5-1.5,1.3-1.9c0.9-0.5,1.9-0.1,2.3,0.1c7.1,3,13.1,6.7,18.2,11.2c8.1,7.2,12.5,16.5,13,27.6
	c0,0.7,0,1.5,0,2.2l0,0.5c0,0.4,0,0.8-0.1,1.2c0,0.2,0,0.4,0,0.7c1,0.6,2,1.2,2.9,1.8c0-1.7,0.2-3.3,0.3-4.8
	c1.2-10.4,4.6-18.7,10.3-25.6c5.1-6.2,11.8-11.2,20.6-15.5c4.2-2,8.7-3.8,13.5-5.1l0.1,0c0.3-0.1,1.1-0.4,1.9,0
	c0.6,0.3,0.9,0.9,1,1.7c2.6,15.7,1.5,28.2-3.4,39.5c-0.8,1.8-1.7,3.5-2.8,5.3C128.3,57.2,139.5,73.6,139.5,91.8z M91.5,47.4l2.1-3.9
	c0.2-0.4,0.4-0.7,0.6-1c0.4-0.6,0.7-1.3,1.1-1.9c0.2-0.5,0.5-1.3-0.3-1.8c-0.9-0.5-1.5,0.4-1.7,0.6c-1.6,2.8-3.1,5.6-4.6,8.3
	C89.6,47.6,90.6,47.5,91.5,47.4z M73,53.1c0.1,0,0.1-0.1,0.2-0.1c0.3-0.2,0.6-0.3,0.8-0.5l0.6-0.3c3.3-1.7,6.7-2.9,10.2-3.7
	c0,0,0,0,0,0c0,0,0,0,0-0.1l0.9-1.7c1.6-2.9,3.2-5.9,4.9-8.8c1.2-2.2,3.7-3,5.7-1.8c2.1,1.2,2.7,3.5,1.5,5.8c-0.4,0.7-0.7,1.4-1.1,2
	c-0.2,0.3-0.4,0.7-0.6,1l-1.2,2.2c1.5-0.1,3.5-0.1,5.6,0.1c2.9,0.4,5.9,1.3,7.6,1.9c0.1,0,0.3,0.1,0.4,0.1c1.1-1.8,2.1-3.5,2.8-5.2
	c4.5-10.5,5.6-22.3,3.3-37c-4.4,1.3-8.5,2.9-12.4,4.8c-8.4,4.1-14.8,8.9-19.6,14.7c-5.3,6.4-8.5,14.3-9.6,24.1v0
	C73.2,51.4,73.1,52.2,73,53.1z M37.2,48c2.5-0.4,5.1-0.7,7.8-0.7c0.1,0,0.2,0,0.3,0c0.5,0,0.9-0.1,1.2-0.1l0.1,0l1.2,0.1l-0.5-1
	c-0.8-1.6-1.6-3.1-2.4-4.7c-0.8-1.7-0.6-3.4,0.7-4.8c1.1-1.2,2.7-1.5,4.4-1c1.5,0.5,2.2,1.9,2.6,2.5c1.8,3.5,3.6,7,5.4,10.5
	c0,0.1,0.1,0.2,0.1,0.3c1.2,0.3,2.2,0.8,3.2,1.3c0.9,0.4,1.9,0.8,2.8,1.2c0-0.1,0-0.2,0-0.3l0-0.5c0-0.7,0-1.4,0-2.1
	c-0.5-10.5-4.4-18.8-12-25.5c-4.7-4.2-10.3-7.6-17-10.5c-1.9,7.6-2.4,14.4-1.7,20.9C33.9,38,34.8,43.4,37.2,48z M54.3,48.3
	c-1.5-2.8-2.9-5.7-4.4-8.6c-0.3-0.7-0.6-0.9-0.8-1c-0.7-0.2-1,0-1.3,0.2c-0.4,0.4-0.5,0.8-0.2,1.3c0.8,1.6,1.6,3.1,2.4,4.7l1.2,2.3
	c0.1,0.2,0.2,0.3,0.3,0.5C52.4,47.9,53.4,48.1,54.3,48.3z M45,133.3c22.9,0,41.5-18.6,41.5-41.5c0-16.2-9.4-30.3-23-37.1
	c-1-0.4-2-0.8-2.9-1.3c-0.2-0.1-0.3-0.2-0.5-0.2c-3.2-1.3-6.6-2.1-10.1-2.6l-1.7-0.2c-1-0.1-2-0.1-3-0.1c-1.8,0.1-4.6,0.4-6.5,0.6
	C38.1,51,37.6,51,37.1,51C18,54.7,3.5,71.6,3.5,91.8C3.5,114.7,22.1,133.3,45,133.3z M136.5,91.8c0-17.6-11.1-33.3-27.7-39.2
	c-4.4-1.6-9-2.3-13.8-2.3c-0.6,0-1.2,0-1.7,0c0,0-0.1,0-0.1,0c-0.3,0-0.6,0.1-0.9,0c-2.1,0.1-4.2,0.4-6.2,0.9
	c-0.1,0-0.3,0.1-0.4,0.1c0,0-0.1,0-0.1,0c-1,0.3-3,0.8-5.4,1.7c-1.7,0.6-3.7,1.6-5.5,2.5c-0.7,0.4-1.4,0.8-2,1.2
	C82.9,65,89.5,77.7,89.5,91.8c0,14.1-6.6,26.7-16.9,34.9c6.7,4.3,14.4,6.6,22.4,6.6C117.9,133.3,136.5,114.7,136.5,91.8z"/>
<g>
	<path class="st2" d="M460.8-133.9c1.1-9.2,4-17.6,10-24.9c5.5-6.6,12.4-11.4,20.1-15.1c4.3-2.1,8.7-3.7,13.2-5
		c0.5-0.1,1-0.6,1.2,0.5c2.2,13.2,2.1,26.2-3.3,38.7c-1,2.2-2.2,4.3-3.5,6.4c-0.1,0.2-4.7-1.7-8.9-2.2c-4.1-0.5-8,0.2-8.1,0.2
		c0.8-1.5,1.7-3.1,2.6-4.6c0.6-1,1.1-2,1.7-3c0.8-1.5,0.4-3-0.9-3.8c-1.3-0.7-2.9-0.3-3.7,1.2c-1.9,3.5-3.9,6.9-5.8,10.4
		c-0.1,0.2-0.3,0.5-0.4,0.7c-0.1,0.1-2.8,0.7-6.3,2c-2.7,1.1-6.2,2.8-8.1,3.9C460.4-130.4,460.6-132.2,460.8-133.9z"/>
	<path class="st2" d="M420.9-150.5c-0.8-7.4,0.1-14.6,1.9-21.8c0.3-1,0.6-1.2,1.6-0.8c6.5,2.7,12.5,6.2,17.7,10.9
		c8,7.1,12,16,12.5,26.6c0,0.9,0,1.8,0,2.7c0,0.7-0.1,1.5-0.1,2.4c-3.1-0.8-5.3-2.5-8.1-3.2c-0.5-0.1-0.6-0.6-0.8-1
		c-1.8-3.5-3.6-7-5.4-10.5c-0.4-0.8-0.8-1.5-1.7-1.8c-1-0.3-2-0.2-2.8,0.6c-0.9,0.9-1,1.9-0.5,3.1c1.2,2.3,2.4,4.6,3.5,7
		c0.2,0.4,0.4,0.8,0.6,1.2l-3.9-0.4c-2,0-10.1,0.9-10.1,0.9C422.6-139.3,421.5-145.1,420.9-150.5z"/>
	<g>
		<path class="st2" d="M446.2-112.7c-4-0.3-6.7-2.3-8.1-6c-0.5-1.2-1.2-2.1-2.6-2.1c-1.4,0-2.2,0.8-2.7,2.1c-1.5,3.7-4.2,5.7-8.2,6
			c-1.4,0.1-2.5,0.5-3,2c-0.4,1.4,0.3,2.3,1.3,3.2c2.3,1.8,3.3,4.3,3.5,7.4c-0.1,0.5-0.2,1.3-0.4,2.1c-0.3,1.3-0.3,2.5,0.8,3.4
			c1.2,0.9,2.3,0.5,3.5-0.2c3.3-2,6.7-2,10,0c1.1,0.7,2.2,1.1,3.4,0.3c1.2-0.9,1.3-2,0.9-3.4c-0.9-3.8,0.1-7,3.1-9.5
			c1-0.9,1.7-1.8,1.3-3.2C448.8-112.2,447.6-112.6,446.2-112.7z"/>
	</g>
	<path class="st3" d="M433.4-49c0.5-0.4,1.1-0.4,1.6,0C434.5-49,433.9-49,433.4-49z"/>
	<path class="st3" d="M483.9-49c0.4-0.4,0.9-0.4,1.3,0C484.8-49,484.3-49,483.9-49z"/>
	<path class="st4" d="M437.4-49c0.2-0.3,0.4-0.3,0.5,0C437.8-49,437.6-49,437.4-49z"/>
	<path class="st5" d="M480.7-49c0.2-0.3,0.4-0.3,0.5,0C481.1-49,480.9-49,480.7-49z"/>
	<path class="st2" d="M510.9-88.8c-3.3,2.7-4.5,6.1-3.4,10.3c0.1,0.3,0.1,0.5,0.1,0.7c0,1.1-0.4,1.9-1.3,2.4c-1,0.6-2,0.5-3-0.2
		c-2.6-1.7-5.4-2.2-8.3-1.2c-0.8,0.3-1.6,0.7-2.3,1.2c-1,0.7-2.1,0.7-3.1,0c-1-0.8-1.3-1.8-1-3c1.1-4,0-7.4-3.2-10.1
		c-1-0.8-1.5-1.8-1.1-3c0.4-1.3,1.4-1.8,2.7-1.9c4-0.2,6.8-2.2,8.3-5.9c0.5-1.3,1.2-2.2,2.7-2.2c1.4,0,2.2,0.9,2.7,2.1
		c1.5,3.8,4.4,5.8,8.4,6c1.3,0.1,2.2,0.6,2.6,1.8C512.2-90.6,511.9-89.6,510.9-88.8z"/>
	<path class="st2" d="M449.2-110.7c-0.4-1.4-1.6-1.9-3-2c-4-0.3-6.7-2.3-8.1-6c-0.5-1.2-1.2-2.1-2.6-2.1c-1.4,0-2.2,0.8-2.7,2.1
		c-1.5,3.7-4.2,5.7-8.2,6c-1.4,0.1-2.5,0.5-3,2c-0.4,1.4,0.3,2.3,1.3,3.2c2.3,1.8,3.3,4.3,3.5,7.4c-0.1,0.5-0.2,1.3-0.4,2.1
		c-0.3,1.3-0.3,2.5,0.8,3.4c1.2,0.9,2.3,0.5,3.5-0.2c3.3-2,6.7-2,10,0c1.1,0.7,2.2,1.1,3.4,0.3c1.2-0.9,1.3-2,0.9-3.4
		c-0.9-3.8,0.1-7,3.1-9.5C448.9-108.4,449.7-109.3,449.2-110.7z"/>
	<path class="st2" d="M510.9-88.8c-3.3,2.7-4.5,6.1-3.4,10.3c0.1,0.3,0.1,0.5,0.1,0.7c0,1.1-0.4,1.9-1.3,2.4c-1,0.6-2,0.5-3-0.2
		c-2.6-1.7-5.4-2.2-8.3-1.2c-0.8,0.3-1.6,0.7-2.3,1.2c-1,0.7-2.1,0.7-3.1,0c-1-0.8-1.3-1.8-1-3c1.1-4,0-7.4-3.2-10.1
		c-1-0.8-1.5-1.8-1.1-3c0.4-1.3,1.4-1.8,2.7-1.9c4-0.2,6.8-2.2,8.3-5.9c0.5-1.3,1.2-2.2,2.7-2.2c1.4,0,2.2,0.9,2.7,2.1
		c1.5,3.8,4.4,5.8,8.4,6c1.3,0.1,2.2,0.6,2.6,1.8C512.2-90.6,511.9-89.6,510.9-88.8z"/>
	<circle class="st2" cx="434" cy="-92.5" r="43"/>
	<path class="st2" d="M459-57.5c7,5,15.7,8,25,8c23.8,0,43-19.2,43-43c0-18.8-12-34.7-28.7-40.6c-4.5-1.6-9.3-2.4-14.3-2.4
		c-0.9,0-1.7,0-2.5,0.1c-2.3,0.1-4.5,0.4-6.7,0.9c-3.8,0.8-7.4,2.2-10.7,3.9c0,0,0,0-0.1,0c-0.1,0-0.1,0.1-0.2,0.1
		c-1.7,0.9-3.2,1.9-4.8,3"/>
</g>
</svg>
