<?xml version="1.0" encoding="utf-8"?>
<!-- Generator: Adobe Illustrator 26.0.1, SVG Export Plug-In . SVG Version: 6.00 Build 0)  -->
<svg version="1.1" id="Layer_1" xmlns="http://www.w3.org/2000/svg" xmlns:xlink="http://www.w3.org/1999/xlink" x="0px" y="0px"
	 viewBox="0 0 140 140" style="enable-background:new 0 0 140 140;" xml:space="preserve">
<style type="text/css">
	.st0{fill:none;stroke:#253F8E;stroke-width:1.5;stroke-miterlimit:10;}
	.st1{fill:#253F8E;}
	.st2{fill:none;stroke:#253F8E;stroke-width:3;stroke-linecap:round;stroke-linejoin:round;stroke-miterlimit:10;}
</style>
<g>
	<circle class="st0" cx="-290" cy="-46.3" r="68"/>
	<g>
		<polyline class="st0" points="-290.3,22.3 -290.3,21.7 -290.3,2.5 -290.3,-4 -290.3,-11.5 		"/>
		<polyline class="st0" points="-290.3,-30.7 -290.3,-41.4 -290.3,-42 		"/>
		<circle class="st0" cx="-290.3" cy="-21.1" r="9.6"/>
		<circle class="st0" cx="-268.9" cy="-36.1" r="7.5"/>
		<circle class="st0" cx="-310.6" cy="-36.1" r="7.5"/>
		<path class="st1" d="M-252.4-16.2c1.3,3-6.8,9.2-18,13.9c-8.3,3.5-16,5.1-19.9,4.5c0-1.9,0-4.1,0.1-6.4c3.1-2.9,8.7-6.2,15.3-9
			C-263.7-17.8-253.6-19.2-252.4-16.2z"/>
		<path class="st1" d="M-327.6-16.2c-1.3,3,6.8,9.2,18,13.9c8.3,3.5,15.4,5.3,19.4,4.7c0-1.9,0.1-4.1,0-6.4
			c-3.1-2.9-8.2-6.4-14.8-9.2C-316.3-17.8-326.4-19.2-327.6-16.2z"/>
		<line class="st0" x1="-275.3" y1="-31.8" x2="-281.7" y2="-26.5"/>
		<line class="st0" x1="-304.2" y1="-31.8" x2="-297.8" y2="-26.5"/>
		<ellipse class="st0" cx="-290.3" cy="-62.9" rx="15" ry="21.4"/>
		<path class="st0" d="M-287.1-83.7c0,0-11.8,10.1-5.4,19.1s9.6,17.1,2.1,23.2"/>
	</g>
</g>
<image style="display:none;overflow:visible;" width="458" height="437" xlink:href="B228D9D3.jpg"  transform="matrix(0.4873 0 0 0.4873 -35.96 -26)">
</image>
<path class="st1" d="M75.8,18.9c0.2-0.8,1.1-1.2,1.9-1c1.1,0.3,3.9,1.4,5.6,4.5c1.6,3,1.2,5.9,0.9,7c-0.2,0.7-0.8,1.1-1.5,1.1
	c-0.1,0-0.3,0-0.4,0c-0.8-0.2-1.3-1-1.1-1.8c0.2-0.8,0.5-2.7-0.6-4.8c-1.2-2.2-3.2-2.9-3.8-3.1C76,20.5,75.5,19.7,75.8,18.9z
	 M138.8,116.2c0,4.2-3.4,7.6-7.6,7.6h-3.4c0.2,0.9,0.3,1.8,0.3,2.7c0,7.2-5.9,13.1-13.1,13.1H23.4c-7.2,0-13.1-5.9-13.1-13.1
	c0-0.9,0.1-1.8,0.3-2.7H8.7c-4.2,0-7.6-3.4-7.6-7.6s3.4-7.6,7.6-7.6h7.3c-2.6-2.3-4.3-5.6-4.3-9.3c0-4.6,2.6-8.6,6.3-10.7
	c-3.7-2-6.3-5.9-6.3-10.4c0-4.4,2.5-8.3,6.1-10.3c-3.6-2-6.1-5.9-6.1-10.3c0-6.5,5.3-11.7,11.7-11.7h8.2c-1.6-1.2-2.7-3.2-2.7-5.4
	c0-1.9,0.8-3.6,2-4.8c1.2-1.2,2.9-2,4.8-2h14.2c-2-2.4-3-5.3-3-8.4C47,18,53,12.1,60.3,12.1c3.6,0,6.9,1.4,9.4,3.9
	c2.3-2.1,5.3-3.3,8.4-3.5c0.1-0.3,0.2-0.5,0.4-0.8c0.1-0.2,10.2-16.7,30.4-9.3c1.8,0.6,2.9,2.4,2.7,4.3c-1,10.6-8.9,18.7-19.8,20.1
	l0,0c-0.2,2.5-1.1,4.9-2.7,7h14.3c3.8,0,6.8,3,6.8,6.8c0,1.9-0.8,3.6-2,4.8c-0.2,0.2-0.5,0.4-0.7,0.6h7.9c6.5,0,11.7,5.3,11.7,11.7
	c0,4.4-2.5,8.3-6.1,10.3c3.6,2,6.1,5.9,6.1,10.3c0,4.5-2.6,8.4-6.3,10.4c3.8,2.1,6.3,6.1,6.3,10.7c0,3.7-1.7,7-4.3,9.3h8.4
	C135.5,108.6,138.8,112,138.8,116.2z M81.3,12.7c5.4,1.1,9.6,5.5,10.4,11c9.3-1.4,16-8.3,16.9-17.4c0-0.5-0.3-1-0.8-1.2
	C91.7-0.6,83.1,10.2,81.3,12.7z M70.7,19.1c-1.5,1.8-2.4,4.2-2.4,6.6c0,2.3,0.7,4.4,2.1,6.2c0.2,0.3,0.4,0.6,0.7,0.8
	c0.4,0.4,0.8,0.7,1.2,1h12.6c0.4-0.3,0.8-0.7,1.2-1c1.8-1.9,2.8-4.4,2.8-7c0-0.2,0-0.5,0-0.7c-0.3-5.3-4.6-9.4-9.8-9.6
	c-0.1,0-0.3,0-0.4,0C75.6,15.5,72.7,16.8,70.7,19.1z M50,25.3c0,2.8,1.1,5.4,3.1,7.4c0.4,0.4,0.9,0.8,1.3,1.1h1.8h9.7
	c0.5-0.3,0.9-0.7,1.3-1.1c-1.3-2.1-2-4.5-2-7c0-2.7,0.8-5.3,2.3-7.4c-1.9-2-4.6-3.2-7.4-3.2C54.6,15.1,50,19.7,50,25.3z M115.4,49
	H94.3c-2.4,2-4.1,5.4-4.1,8.2c0,2.8,0,5.6,0,8.4l0,0.8h25.2c4.8,0,8.7-3.9,8.7-8.7S120.2,49,115.4,49z M23.5,66.4H74l0-0.9
	c-0.1-2.9,0-5.8-0.1-8.6c-0.1-2.6-2.2-5.9-4.7-7.9H23.5c-4.8,0-8.7,3.9-8.7,8.7S18.7,66.4,23.5,66.4z M23.5,87h91.9
	c4.8,0,8.7-3.9,8.7-8.7c0-4.8-3.9-8.7-8.7-8.7H90.2l0,3.8c-0.1,4.8-4.3,8.3-9.1,7.7c-4.3-0.5-7.1-4-7.1-8.7l0-2.9H23.5
	c-4.8,0-8.7,3.9-8.7,8.7C14.8,83,18.7,87,23.5,87z M24.1,108.6h90.8c5.1,0,9.3-4.2,9.3-9.3c0-5.1-4.2-9.3-9.3-9.3H24.1
	c-5.1,0-9.3,4.2-9.3,9.3C14.8,104.4,19,108.6,24.1,108.6z M124.8,123.7H13.7c-0.2,0.9-0.4,1.8-0.4,2.7c0,5.5,4.5,10.1,10.1,10.1
	h91.7c5.5,0,10.1-4.5,10.1-10.1C125.2,125.5,125.1,124.6,124.8,123.7z M135.8,116.2c0-2.5-2-4.6-4.6-4.6h-16.5H24.1H8.7
	c-2.5,0-4.6,2-4.6,4.6s2,4.6,4.6,4.6h3.9c0,0,0,0,0,0h113.3c0,0,0,0,0,0h5.3C133.8,120.7,135.8,118.7,135.8,116.2z"/>
<g>
	<path class="st2" d="M336.4-123.3c0,3.1-1.2,6-3.2,8.1c-2.1,2.3-5.2,3.7-8.5,3.7c-3.4,0-6.4-1.4-8.5-3.7c-0.3-0.3-0.5-0.6-0.8-0.9
		c-1.5-2-2.4-4.5-2.4-7.1c0-2.9,1-5.5,2.7-7.5c2.2-2.6,5.4-4.2,9-4.2c0.2,0,0.3,0,0.4,0c6,0.2,10.9,5,11.3,11
		C336.4-123.8,336.4-123.6,336.4-123.3z"/>
	<path class="st2" d="M315.6-130.8c-2.1-2.8-5.5-4.6-9.3-4.6c-6.5,0-11.7,5.3-11.7,11.7c0,3.3,1.4,6.3,3.6,8.4c2.1,2,5,3.3,8.2,3.3
		c3.2,0,6.1-1.3,8.2-3.3c0.3-0.3,0.6-0.6,0.9-0.9"/>
	<path class="st2" d="M336.4-123.5l1.3-0.2c10.4-1.4,17.6-9.2,18.5-18.8c0.1-1.2-0.6-2.3-1.8-2.7c-19.3-7-28.6,8.7-28.6,8.7
		c-0.3,0.5-0.5,1-0.7,1.5"/>
	<path class="st2" d="M323.2-129.7c0.5,0.2,3.2,1,4.7,3.8c1.5,2.7,0.9,5.3,0.7,5.9"/>
	<path class="st1" d="M356.2-108.4c0,1.9-0.8,3.6-2,4.8c-0.5,0.5-1.1,0.9-1.7,1.2c-2,0.3-4.8,0.6-8.4,0.8c-4.2,0.2-7.8,5.7-7.9,9.9
		c0,2.8,0,5.6,0,8.4l0,7.8c-0.1,4.8-4.3,8.3-9.1,7.7c-4.3-0.5-7.1-4-7.1-8.7l0-6.9c-0.1-2.9,0-5.8-0.1-8.6c-0.1-3.8-4.8-9.5-8.6-9.5
		h-29.5c-3.8,0-6.8-3-6.8-6.8c0-1.9,0.8-3.6,2-4.8c1.2-1.2,2.9-2,4.8-2h18.5c0.4,0.3,0.9,0.6,1.3,0.8l0.6-0.8h47.1
		C353.1-115.2,356.2-112.2,356.2-108.4z"/>
	<path class="st1" d="M300.4-115.2h1.9l-0.6,0.8C301.3-114.7,300.8-114.9,300.4-115.2z"/>
	<path class="st1" d="M352.5-102.4c-0.9,0.5-2,0.8-3.1,0.8h-5.3C347.7-101.8,350.5-102.1,352.5-102.4z"/>
	<path class="st2" d="M360.8-38.9h-90.8c-5.9,0-10.8-4.8-10.8-10.8v0c0-5.9,4.8-10.8,10.8-10.8h90.8c5.9,0,10.8,4.8,10.8,10.8v0
		C371.6-43.7,366.8-38.9,360.8-38.9z"/>
	<path class="st2" d="M361.4-60.5h-91.9c-5.6,0-10.2-4.6-10.2-10.2v0c0-5.6,4.6-10.2,10.2-10.2h91.9c5.6,0,10.2,4.6,10.2,10.2v0
		C371.6-65.1,367-60.5,361.4-60.5z"/>
	<path class="st2" d="M361.4-81.1h-91.9c-5.6,0-10.2-4.6-10.2-10.2v0c0-5.6,4.6-10.2,10.2-10.2h91.9c5.6,0,10.2,4.6,10.2,10.2v0
		C371.6-85.7,367-81.1,361.4-81.1z"/>
	<path class="st2" d="M377.3-26.8H254.7c-3.3,0-6.1-2.7-6.1-6.1v0c0-3.3,2.7-6.1,6.1-6.1h122.6c3.3,0,6.1,2.7,6.1,6.1v0
		C383.3-29.5,380.6-26.8,377.3-26.8z"/>
	<path class="st2" d="M371.8-27.1c0.6,1.4,0.9,2.9,0.9,4.5v0c0,6.4-5.2,11.6-11.6,11.6h-91.7c-6.4,0-11.6-5.2-11.6-11.6v0
		c0-1.5,0.3-2.9,0.8-4.2"/>
</g>
<image style="overflow:visible;" width="512" height="512" xlink:href="C:\Users\Admin\Downloads\pancake (1).png"  transform="matrix(0.75 0 0 0.75 980.64 -53.16)">
</image>
</svg>
