<?xml version="1.0" encoding="utf-8"?>
<!-- Generator: Adobe Illustrator 26.0.1, SVG Export Plug-In . SVG Version: 6.00 Build 0)  -->
<svg version="1.1" id="Layer_1" xmlns="http://www.w3.org/2000/svg" xmlns:xlink="http://www.w3.org/1999/xlink" x="0px" y="0px"
	 viewBox="0 0 140 140" style="enable-background:new 0 0 140 140;" xml:space="preserve">
<style type="text/css">
	.st0{fill:none;stroke:#253F8E;stroke-width:1.5;stroke-miterlimit:10;}
	.st1{fill:#253F8E;}
	.st2{fill:#3E3E3E;}
	.st3{fill:none;stroke:#253F8E;stroke-width:3;stroke-miterlimit:10;}
	.st4{fill:none;stroke:#253F8E;stroke-width:3;stroke-linecap:round;stroke-linejoin:round;stroke-miterlimit:10;}
</style>
<g>
	<circle class="st0" cx="-290" cy="-46.3" r="68"/>
	<g>
		<polyline class="st0" points="-290.3,22.3 -290.3,21.7 -290.3,2.5 -290.3,-4 -290.3,-11.5 		"/>
		<polyline class="st0" points="-290.3,-30.7 -290.3,-41.4 -290.3,-42 		"/>
		<circle class="st0" cx="-290.3" cy="-21.1" r="9.6"/>
		<circle class="st0" cx="-268.9" cy="-36.1" r="7.5"/>
		<circle class="st0" cx="-310.6" cy="-36.1" r="7.5"/>
		<path class="st1" d="M-252.4-16.2c1.3,3-6.8,9.2-18,13.9c-8.3,3.5-16,5.1-19.9,4.5c0-1.9,0-4.1,0.1-6.4c3.1-2.9,8.7-6.2,15.3-9
			C-263.7-17.8-253.6-19.2-252.4-16.2z"/>
		<path class="st1" d="M-327.6-16.2c-1.3,3,6.8,9.2,18,13.9c8.3,3.5,15.4,5.3,19.4,4.7c0-1.9,0.1-4.1,0-6.4
			c-3.1-2.9-8.2-6.4-14.8-9.2C-316.3-17.8-326.4-19.2-327.6-16.2z"/>
		<line class="st0" x1="-275.3" y1="-31.8" x2="-281.7" y2="-26.5"/>
		<line class="st0" x1="-304.2" y1="-31.8" x2="-297.8" y2="-26.5"/>
		<ellipse class="st0" cx="-290.3" cy="-62.9" rx="15" ry="21.4"/>
		<path class="st0" d="M-287.1-83.7c0,0-11.8,10.1-5.4,19.1s9.6,17.1,2.1,23.2"/>
	</g>
</g>
<image style="display:none;overflow:visible;" width="458" height="437" xlink:href="3C993A79.jpg"  transform="matrix(0.4873 0 0 0.4873 -35.96 -26)">
</image>
<path class="st0" d="M212.2-85.9c-0.6,4.2-3,7.3-6.5,9.5c-0.7,0.4-1.1,0.9-1.3,1.7c-1,3.2-2.1,6.4-3.2,9.6
	c-1.6,4.9-5.2,7.5-10.3,7.5c-23.7,0-47.5,0-71.2,0c-5.1,0-8.7-2.6-10.3-7.4c-1.1-3.3-2.2-6.5-3.3-9.8c-0.2-0.6-0.5-1.1-1.1-1.4
	c-4.2-2.7-6.9-6.5-6.8-11.7c0.1-5.2,2.9-8.8,7.2-11.4c0.5-0.3,0.8-0.6,0.9-1.2c2.3-10.8,8.5-19,17.3-25.4c6.1-4.3,12.9-7.1,20.2-8.5
	c0.7-0.1,1-0.2,0.5-1c-3.5-6.8-0.4-14.7,6.9-17.3c0.5-0.2,0.7-0.4,0.8-1c0.8-3.9,2.8-7.1,6.1-9.5c1.8-1.3,3.8-1.1,5,0.5
	c1.1,1.6,0.8,3.5-1,4.8c-1.5,1.1-2.6,2.5-3.2,4.3c-0.2,0.5-0.1,0.7,0.5,1c6.9,2.6,10.1,10.7,6.5,17.3c-0.4,0.8,0.1,0.7,0.6,0.8
	c7.4,1.5,14.3,4.3,20.5,8.7c8.5,6.1,14.4,13.9,16.9,24.2c0.3,1.3,0.9,2.1,2,2.8c3.4,2.2,5.6,5.2,6.3,9.3c0,0.1,0.1,0.2,0.2,0.3
	c0,0.7,0,1.5,0,2.2C212.2-86.7,212.4-86.3,212.2-85.9z"/>
<path class="st2" d="M212.2-85.9c-0.1-0.4-0.1-0.8,0.2-1.2c0,0.4,0,0.7,0,1.1l-0.1,0.1L212.2-85.9z"/>
<path class="st0" d="M156.4-129c10,0.2,20.1,3.1,28.8,10.1c6.8,5.5,11.4,12.4,12.8,21.2c0.3,1.7,1.1,2.9,2.8,3.5
	c1.4,0.5,2.6,1.5,3.5,2.6c1.9,2.4,1.9,5.2,0.1,7.6c-3.4,4.3-10.8,4.8-14.9,1c-2.2-2.1-3.6-2.1-5.8,0c-4.1,3.8-11.3,3.3-14.8-1.1
	c-1.6-2-4-2-5.6,0c-4,5-11.9,5-15.8,0c-1.6-2-4-2-5.6,0c-3.6,4.5-10.7,5-14.9,1c-2.1-2-3.6-2-5.7,0c-3.8,3.6-10.7,3.5-14.4-0.3
	c-2.6-2.6-2.6-6-0.1-8.7c1-1.1,2.2-1.8,3.6-2.4c1.2-0.5,1.9-1.4,2.1-2.6c2.2-13.5,10.5-22.1,22.4-27.6
	C141.4-127.7,148.3-128.9,156.4-129z"/>
<path class="st0" d="M113.6-73.7c3.7,0,7.1-0.8,10.1-2.8c0.4-0.3,0.7,0,1,0.1c6.5,3.7,13,3.6,19.3-0.6c0.5-0.4,0.8-0.3,1.3,0.1
	c5.8,4.2,14.1,4.2,19.9,0.1c0.5-0.4,0.9-0.5,1.5-0.1c5.4,4,13.2,4.2,19,0.7c0.4-0.2,0.6-0.6,1.2-0.3c1.5,1,3.1,1.7,4.8,2.2
	c1.7,0.5,3.4,0.6,5.3,0.6c-0.9,2.5-1.6,5-2.5,7.4c-0.5,1.2-1.5,1.9-2.9,1.9c-0.3,0-0.7,0-1,0c-23.5,0-47.1,0-70.6,0
	c-2.6,0-3.5-0.6-4.3-3.1C115-69.5,114.3-71.5,113.6-73.7z"/>
<g>
	<ellipse class="st1" cx="109.9" cy="47.5" rx="12.6" ry="12.3"/>
	<ellipse class="st1" cx="70" cy="32.8" rx="12.6" ry="12.3"/>
	<ellipse class="st1" cx="30.1" cy="47.5" rx="12.6" ry="12.3"/>
	<g>
		<path class="st1" d="M116.3,127.1c-0.1,0-0.3,0-0.4,0l-0.4,0H24.4c-7.3,0-11.6-4.3-11.6-11.6c0-0.4,0-0.7,0.1-1.1
			c0-0.4,0.1-0.9,0-1.2c-0.2,0-0.4-0.1-0.6-0.1c-0.5-0.1-1-0.1-1.5-0.3c-4-1.4-5.8-4-5.8-8.2l0-1.2c0-2.7,0-5.4,0-8.2
			c0-0.2,0-0.3,0-0.3c0,0-0.1,0-0.2-0.1c-4.3-2.5-5.3-6-3.2-10.6c4.9-10.5,12-19.7,21.3-27.1c2.9-2.4,6-4.5,9.3-6.4
			c3.3-1.9,6.8-3.5,10.4-4.8c6.2-2.2,12.5-3.7,18.9-4.5c3.4-0.4,9.1-1.1,16.5-0.3c4.1,0.4,7.4,1.2,8.8,1.5c3.3,0.7,6.5,1.7,10,2.9
			c3.6,1.5,7.1,3.3,10.5,5.2c3.4,1.9,6.8,4.1,10,6.4c6.4,5.1,11.8,11,16.1,17.6c2.1,3.2,3.9,6.5,5.4,9.8c1.9,4.3,0.9,7.7-3.1,10.1
			c-0.5,0.3-0.5,0.4-0.5,0.9c0.1,2.1,0,4.3,0,6.4c0,0.8,0,1.6,0,2.4c0,4.9-2.4,7.9-7,8.8c-0.6,0.1-0.8,0.2-0.8,0.3c0,0,0,0.2,0,0.6
			c0.2,1.8,0.1,3.5-0.3,5.1c-1.1,4.4-5.1,7.7-9.7,8C116.9,127.1,116.6,127.1,116.3,127.1z M71.1,43.8c-4,0-7.2,0.4-9.4,0.6
			c-6.2,0.7-12.3,2.2-18.3,4.3c-3.4,1.3-6.7,2.8-9.9,4.6c-3.1,1.8-6.1,3.8-8.9,6.1c-8.9,7.1-15.8,15.9-20.5,26c-1.5,3.2-0.9,5,2,6.7
			c1.5,0.9,1.7,2.1,1.7,3c0,2.7,0,5.4,0,8.1l0,1.2c0,2.9,1.1,4.4,3.9,5.4c0.2,0.1,0.5,0.1,0.8,0.1c0.9,0.1,2.2,0.2,2.8,1.5
			c0.5,1,0.4,2.1,0.4,3c0,0.3,0,0.6,0,0.9c0,5.6,3.1,8.6,8.6,8.6l91.5,0c0.3,0,0.7,0,1,0c3.3-0.2,6.2-2.5,7-5.7
			c0.3-1.3,0.4-2.6,0.2-4c-0.4-3.1,1.6-3.9,3.2-4.2c3.3-0.7,4.6-2.4,4.6-5.9c0-0.8,0-1.6,0-2.5c0-2.1,0-4.2,0-6.3
			c-0.1-1.6,0.5-2.7,1.9-3.5c2.6-1.6,3.2-3.4,1.9-6.3l0,0c-1.4-3.2-3.2-6.3-5.1-9.4c-4.1-6.3-9.3-12-15.4-16.8
			c-3-2.2-6.3-4.3-9.6-6.1c-3.3-1.8-6.7-3.5-10.1-5c-3.3-1.2-6.4-2.1-9.5-2.8c-1.4-0.3-4.5-1-8.5-1.4C75.3,43.9,73.1,43.8,71.1,43.8
			z"/>
	</g>
	<path class="st1" d="M10,95.2c5.3,2.6,10.1,1.2,15-0.8c0.2-0.1,0.5-0.1,0.7-0.2c2.8-1.2,5.7-1.2,8.4,0.1c6,2.9,11.9,2.9,17.9,0
		c3-1.5,6.2-1.3,9.3,0c0.9,0.4,1.9,0.7,2.9,1c3.9,1.6,7.8,1.8,11.5,0c5.2-2.5,10.2-2.5,15.4,0c3.8,1.8,7.8,1.8,11.5,0
		c5.1-2.4,10.1-2.5,15.2,0c3.9,1.9,8,1.5,12.1-0.1c0,3.6,0.1,7,0,10.4c0,1.4-1.1,2.2-2.3,2.6c-2.4,0.9-4.8,1-7.2,0.2
		c-2-0.7-4-1.4-6-2.1c-2.8-0.9-5.6-0.9-8.4,0c-1.3,0.4-2.5,0.8-3.7,1.3c-3.8,1.7-7.5,1.6-11.2,0c-1.1-0.5-2.2-0.8-3.3-1.2
		c-3-1.1-5.9-1.1-8.9,0c-1.2,0.4-2.4,0.8-3.6,1.3c-3.6,1.6-7.2,1.6-10.8,0c-0.7-0.3-1.5-0.5-2.2-0.8c-4-1.6-7.9-1.5-11.9,0.1
		c-1.3,0.5-2.6,0.9-3.9,1.4c-2.4,0.8-4.7,0.8-7,0c-1.3-0.5-2.7-0.9-4-1.4c-4-1.6-8-1.5-12,0.1c-2.5,1-5,2.1-7.8,2
		c-0.9-0.1-1.9-0.2-2.7-0.4c-2.3-0.6-3.1-1.8-3.1-4.1C10,101.5,10,98.5,10,95.2z"/>
	<g>
		<path class="st1" d="M69.4,78.5c-0.8,0-1.5-0.7-1.5-1.5V60.9c0-0.8,0.7-1.5,1.5-1.5s1.5,0.7,1.5,1.5V77
			C70.9,77.8,70.2,78.5,69.4,78.5z"/>
	</g>
	<g>
		<path class="st1" d="M97.3,77.2c-0.5,0-0.9-0.2-1.2-0.6L85.2,62.2c-0.5-0.7-0.4-1.6,0.3-2.1c0.7-0.5,1.6-0.4,2.1,0.3l10.9,14.4
			c0.5,0.7,0.4,1.6-0.3,2.1C97.9,77.1,97.6,77.2,97.3,77.2z"/>
	</g>
	<g>
		<path class="st1" d="M42,77.2c-0.3,0-0.6-0.1-0.9-0.3c-0.7-0.5-0.8-1.4-0.3-2.1l10.9-14.4c0.5-0.7,1.4-0.8,2.1-0.3
			c0.7,0.5,0.8,1.4,0.3,2.1L43.2,76.6C42.9,77,42.5,77.2,42,77.2z"/>
	</g>
	<g>
		<path class="st1" d="M71.1,32.2c-0.2,0-0.4,0-0.6-0.1c-0.8-0.3-1.1-1.2-0.8-2c2.6-6.3-6-14.6-6.1-14.7C63,14.9,63,14,63.6,13.4
			c0.6-0.6,1.5-0.6,2.1-0.1c0.4,0.4,10.2,9.7,6.8,18C72.3,31.8,71.7,32.2,71.1,32.2z"/>
	</g>
	<g>
		<path class="st1" d="M30.5,45.9c-0.2,0-0.4,0-0.6-0.1c-0.8-0.3-1.1-1.2-0.8-2c2.6-6.3-6-14.6-6.1-14.7c-0.6-0.6-0.6-1.5-0.1-2.1
			c0.6-0.6,1.5-0.6,2.1-0.1c0.4,0.4,10.2,9.7,6.8,18C31.6,45.6,31.1,45.9,30.5,45.9z"/>
	</g>
	<g>
		<path class="st1" d="M110.8,45.5c-0.2,0-0.4,0-0.6-0.1c-0.8-0.3-1.1-1.2-0.8-2c2.6-6.3-6-14.6-6.1-14.7c-0.6-0.6-0.6-1.5-0.1-2.1
			c0.6-0.6,1.5-0.6,2.1-0.1c0.4,0.4,10.2,9.7,6.8,18C112,45.2,111.4,45.5,110.8,45.5z"/>
	</g>
</g>
<g>
	<ellipse class="st1" cx="42" cy="-221.3" rx="12.6" ry="12.3"/>
	<ellipse class="st1" cx="2" cy="-236" rx="12.6" ry="12.3"/>
	<ellipse class="st1" cx="-37.9" cy="-221.3" rx="12.6" ry="12.3"/>
	<path class="st3" d="M-44.2-210.5c-9.1,7.3-16,16.1-20.9,26.5c-1.8,3.9-1,6.5,2.6,8.6c0.8,0.5,0.9,0.9,0.9,1.7c0,3.1,0,6.2,0,9.4
		c0,3.5,1.5,5.6,4.8,6.8c1,0.4,2.4,0.1,2.8,0.9c0.4,0.9,0.1,2.1,0.1,3.2c0,6.4,3.7,10.1,10.1,10.1h91.1c0.5,0,1,0,1.5,0
		c4-0.2,7.4-3,8.4-6.8c0.4-1.5,0.4-3.1,0.3-4.6c-0.2-1.6,0.3-2.2,2-2.6c4-0.8,5.8-3.2,5.8-7.3c0-2.9,0-5.8,0-8.8
		c0-1.1,0.3-1.6,1.2-2.2c3.3-2,4.1-4.7,2.5-8.2c-1.5-3.3-3.3-6.5-5.3-9.6c-4.3-6.6-9.5-12.2-15.7-17.2c-2.9-2-6.1-4.2-9.8-6.3
		c-3.6-2-7.1-3.7-10.2-5c-3.2-1.1-6.5-2.1-9.8-2.9c-1.5-0.3-4.7-1.1-8.6-1.5c-7.1-0.8-12.6-0.1-16.2,0.3c-4.8,0.6-11.2,1.8-18.6,4.4
		c-3,1.1-6.4,2.6-10.1,4.7C-38.7-214.7-41.7-212.5-44.2-210.5z"/>
	<path class="st1" d="M-57.9-173.6c5.3,2.6,10.1,1.2,15-0.8c0.2-0.1,0.5-0.1,0.7-0.2c2.8-1.2,5.7-1.2,8.4,0.1c6,2.9,11.9,2.9,17.9,0
		c3-1.5,6.2-1.3,9.3,0c0.9,0.4,1.9,0.7,2.9,1c3.9,1.6,7.8,1.8,11.5,0c5.2-2.5,10.2-2.5,15.4,0c3.8,1.8,7.8,1.8,11.5,0
		c5.1-2.4,10.1-2.5,15.2,0c3.9,1.9,8,1.5,12.1-0.1c0,3.6,0.1,7,0,10.4c0,1.4-1.1,2.2-2.3,2.6c-2.4,0.9-4.8,1-7.2,0.2
		c-2-0.7-4-1.4-6-2.1c-2.8-0.9-5.6-0.9-8.4,0c-1.3,0.4-2.5,0.8-3.7,1.3c-3.8,1.7-7.5,1.6-11.2,0c-1.1-0.5-2.2-0.8-3.3-1.2
		c-3-1.1-5.9-1.1-8.9,0c-1.2,0.4-2.4,0.8-3.6,1.3c-3.6,1.6-7.2,1.6-10.8,0c-0.7-0.3-1.5-0.5-2.2-0.8c-4-1.6-7.9-1.5-11.9,0.1
		c-1.3,0.5-2.6,0.9-3.9,1.4c-2.4,0.8-4.7,0.8-7,0c-1.3-0.5-2.7-0.9-4-1.4c-4-1.6-8-1.5-12,0.1c-2.5,1-5,2.1-7.8,2
		c-0.9-0.1-1.9-0.2-2.7-0.4c-2.3-0.6-3.1-1.8-3.1-4.1C-57.9-167.4-57.9-170.4-57.9-173.6z"/>
	<line class="st4" x1="1.4" y1="-208" x2="1.4" y2="-191.8"/>
	<line class="st4" x1="18.5" y1="-207.5" x2="29.4" y2="-193.2"/>
	<line class="st4" x1="-15" y1="-207.5" x2="-25.9" y2="-193.2"/>
	<path class="st4" d="M-3.3-254.5c0,0,9.5,8.9,6.5,16.3"/>
	<path class="st4" d="M-43.9-240.7c0,0,9.5,8.9,6.5,16.3"/>
	<path class="st4" d="M36.4-241.1c0,0,9.5,8.9,6.5,16.3"/>
</g>
</svg>
