<?xml version="1.0" encoding="utf-8"?>
<!-- Generator: Adobe Illustrator 26.0.1, SVG Export Plug-In . SVG Version: 6.00 Build 0)  -->
<svg version="1.1" id="Layer_1" xmlns="http://www.w3.org/2000/svg" xmlns:xlink="http://www.w3.org/1999/xlink" x="0px" y="0px"
	 viewBox="0 0 140 140" style="enable-background:new 0 0 140 140;" xml:space="preserve">
<style type="text/css">
	.st0{fill:none;stroke:#253F8E;stroke-width:1.5;stroke-miterlimit:10;}
	.st1{fill:#253F8E;}
	.st2{fill:#253F8E;stroke:#000000;stroke-width:1.5;stroke-miterlimit:10;}
</style>
<g>
	<circle class="st0" cx="-290" cy="-46.3" r="68"/>
	<g>
		<polyline class="st0" points="-290.3,22.3 -290.3,21.7 -290.3,2.5 -290.3,-4 -290.3,-11.5 		"/>
		<polyline class="st0" points="-290.3,-30.7 -290.3,-41.4 -290.3,-42 		"/>
		<circle class="st0" cx="-290.3" cy="-21.1" r="9.6"/>
		<circle class="st0" cx="-268.9" cy="-36.1" r="7.5"/>
		<circle class="st0" cx="-310.6" cy="-36.1" r="7.5"/>
		<path class="st1" d="M-252.4-16.2c1.3,3-6.8,9.2-18,13.9c-8.3,3.5-16,5.1-19.9,4.5c0-1.9,0-4.1,0.1-6.4c3.1-2.9,8.7-6.2,15.3-9
			C-263.7-17.8-253.6-19.2-252.4-16.2z"/>
		<path class="st1" d="M-327.6-16.2c-1.3,3,6.8,9.2,18,13.9c8.3,3.5,15.4,5.3,19.4,4.7c0-1.9,0.1-4.1,0-6.4
			c-3.1-2.9-8.2-6.4-14.8-9.2C-316.3-17.8-326.4-19.2-327.6-16.2z"/>
		<line class="st0" x1="-275.3" y1="-31.8" x2="-281.7" y2="-26.5"/>
		<line class="st0" x1="-304.2" y1="-31.8" x2="-297.8" y2="-26.5"/>
		<ellipse class="st0" cx="-290.3" cy="-62.9" rx="15" ry="21.4"/>
		<path class="st0" d="M-287.1-83.7c0,0-11.8,10.1-5.4,19.1s9.6,17.1,2.1,23.2"/>
	</g>
</g>
<path class="st1" d="M75-4"/>
<g>
	<path class="st0" d="M245.9-71.2v31.1v9.3c0,3.5,2.8,6.2,6.2,6.2h74c3.5,0,6.2-2.8,6.2-6.2v-9.3v-43.2"/>
	<path class="st2" d="M245.9-106.2L245.9-106.2v-26.2v-21.9c0-3.4,2.8-6.2,6.2-6.2h23h28.1h1v28.1v26.2"/>
	<polyline class="st2" points="245.9,-132.4 275.1,-132.4 303.2,-132.4 332.4,-132.5 332.4,-132.4 332.4,-106.2 332.4,-106.1 	"/>
	<path class="st0" d="M245.9-106.2h86.3c0.1,0,0.2,0.1,0.3,0.2l11.9,18.6c0.7,1.1,0,2.5-1.2,2.6l-107,15c-1.3,0.2-2.3-1-1.9-2.3
		L245.9-106.2C245.9-106.2,245.9-106.2,245.9-106.2z"/>
	<polyline class="st2" points="275.1,-160.5 275.1,-132.4 275.1,-106.2 	"/>
	<line class="st0" x1="245.9" y1="-40.1" x2="332.4" y2="-40.1"/>
	<path class="st0" d="M294.5-166.5"/>
	<polyline class="st2" points="332.5,-106 304.2,-106.2 304.2,-132.4 	"/>
</g>
<path class="st1" d="M123.9,73.9l-11.3-17.6V33.6c0-0.2,0-0.4,0-0.6h-27v23.8h-3V33.2H57.7v23.6h-3V33.2H28.2v-3h26.5V4.8h3v25.4H82
	V3.2H30.2c-1.9,0-3.5,1.6-3.5,3.5v49.8L15.8,88.9c-0.3,1-0.1,2.2,0.6,3c0.6,0.7,1.5,1.1,2.4,1.1c0.2,0,0.3,0,0.5,0l7.5-1v37
	c0,4.1,3.4,7.5,7.5,7.5h70.9c4.1,0,7.5-3.4,7.5-7.5V80l9.1-1.3c1.1-0.1,2-0.8,2.4-1.8C124.5,75.9,124.5,74.8,123.9,73.9z M109.6,129
	c0,2.5-2,4.5-4.5,4.5H34.2c-2.5,0-4.5-2-4.5-4.5v-7.5h79.9V129z M109.6,118.6H29.7v-27l79.9-11.2V118.6z M121.4,75.7
	c0,0.1-0.1,0.1-0.1,0.1L18.8,90.1c0,0-0.1,0-0.1-0.1c-0.1-0.1,0-0.1,0-0.1l10.6-31.6h55l26.1,0.2l11,17.1
	C121.4,75.5,121.4,75.6,121.4,75.7z"/>
<path class="st1" d="M115.5,34"/>
</svg>
