<?xml version="1.0" encoding="utf-8"?>
<!-- Generator: Adobe Illustrator 26.0.1, SVG Export Plug-In . SVG Version: 6.00 Build 0)  -->
<svg version="1.1" id="Layer_1" xmlns="http://www.w3.org/2000/svg" xmlns:xlink="http://www.w3.org/1999/xlink" x="0px" y="0px"
	 viewBox="0 0 140 140" style="enable-background:new 0 0 140 140;" xml:space="preserve">
<style type="text/css">
	.st0{fill:none;stroke:#253F8E;stroke-width:1.5;stroke-miterlimit:10;}
	.st1{fill:#253F8E;}
	.st2{fill:none;stroke:#253F8E;stroke-width:3;stroke-miterlimit:10;}
</style>
<g>
	<circle class="st0" cx="-290" cy="-46.3" r="68"/>
	<g>
		<polyline class="st0" points="-290.3,22.3 -290.3,21.7 -290.3,2.5 -290.3,-4 -290.3,-11.5 		"/>
		<polyline class="st0" points="-290.3,-30.7 -290.3,-41.4 -290.3,-42 		"/>
		<circle class="st0" cx="-290.3" cy="-21.1" r="9.6"/>
		<circle class="st0" cx="-268.9" cy="-36.1" r="7.5"/>
		<circle class="st0" cx="-310.6" cy="-36.1" r="7.5"/>
		<path class="st1" d="M-252.4-16.2c1.3,3-6.8,9.2-18,13.9c-8.3,3.5-16,5.1-19.9,4.5c0-1.9,0-4.1,0.1-6.4c3.1-2.9,8.7-6.2,15.3-9
			C-263.7-17.8-253.6-19.2-252.4-16.2z"/>
		<path class="st1" d="M-327.6-16.2c-1.3,3,6.8,9.2,18,13.9c8.3,3.5,15.4,5.3,19.4,4.7c0-1.9,0.1-4.1,0-6.4
			c-3.1-2.9-8.2-6.4-14.8-9.2C-316.3-17.8-326.4-19.2-327.6-16.2z"/>
		<line class="st0" x1="-275.3" y1="-31.8" x2="-281.7" y2="-26.5"/>
		<line class="st0" x1="-304.2" y1="-31.8" x2="-297.8" y2="-26.5"/>
		<ellipse class="st0" cx="-290.3" cy="-62.9" rx="15" ry="21.4"/>
		<path class="st0" d="M-287.1-83.7c0,0-11.8,10.1-5.4,19.1s9.6,17.1,2.1,23.2"/>
	</g>
</g>
<image style="display:none;overflow:visible;" width="458" height="437" xlink:href="E072C6AE.jpg"  transform="matrix(0.4873 0 0 0.4873 -35.96 -26)">
</image>
<image style="display:none;overflow:visible;" width="539" height="562" xlink:href="E072C6B2.jpg"  transform="matrix(0.5201 0 0 0.5201 275.04 -146)">
</image>
<g>
	<path class="st1" d="M109.7,56.6c-2.1-1.8-3.6-4.2-4-6.9C103.8,39.1,95.5,31,85.4,31c-0.4,0-0.9,0-1.3,0c0-1.2-0.1-2.5-0.2-3.7
		c1.1,0.1,2.2,0.1,3.3,0.1c17.6,0,23.4-11.3,26.5-21.3c0.3-1,0.1-2-0.5-2.9c-0.6-0.8-1.6-1.3-2.6-1.3C93.4,2.2,85.5,11.9,82,18.9
		c-2-6.1-4.7-10.2-4.9-10.5L74.6,10c0.1,0.1,3.7,5.7,5.5,13.3v0c0.2,0.9,0.4,1.8,0.6,2.8c0.3,1.7,0.5,3.5,0.5,5.4
		c-7.8,1.5-11.9,7.3-14,12.6c-3.4-2.3-7.4-3.6-11.6-3.6c-15.8,0-20.3,14.3-21.5,20.4c-0.4,2.2-1.6,4.1-3.2,5.5
		C25.3,71,16,81.3,16,97.7c0,22.2,17.9,40.3,39.8,40.3c11.2,0,21.3-4.7,28.6-12.3c0.4,0,0.8,0,1.3,0c21.2,0,38.3-17.4,38.3-38.9
		C124,74.6,118.4,63.7,109.7,56.6z M110.6,4.9L110.6,4.9c0.1,0,0.2,0.1,0.3,0.1c0.1,0.1,0.1,0.2,0,0.3c-3.3,10.9-9,20.7-27.4,19.1
		c-0.1-0.3-0.1-0.7-0.2-1v0C85.4,17.5,92,5.2,110.6,4.9z M80.6,125.4c-6.5,6-15.2,9.7-24.7,9.7c-20.3,0-36.9-16.8-36.9-37.4
		c0-15.2,8.7-24.8,13.8-29.1c2.2-1.8,3.6-4.4,4.2-7.2c1.3-6.7,5.5-18.1,18.6-18.1c3.9,0,7.6,1.3,10.6,3.6c4.1,3.1,7.2,8,8.2,13.8
		c0.5,3.1,2.1,5.8,4.6,7.8c8.8,7.1,13.8,17.8,13.8,29.1C92.7,108.6,88,118.5,80.6,125.4z"/>
	<rect x="74.6" y="97.6" class="st1" width="4.5" height="2.9"/>
	<polygon class="st1" points="68.5,112.9 71.8,115.9 73.8,113.7 70.4,110.7 	"/>
	<polygon class="st1" points="63.4,115.9 61.3,116.9 60.7,117.2 62.7,121.3 65.3,120 65.2,119.7 	"/>
	<polygon class="st1" points="61.2,80 63.9,81.1 65.6,76.9 62.9,75.7 	"/>
	<polygon class="st1" points="74.4,84.3 72.4,82.1 69.1,85.2 71,87.4 	"/>
	<rect x="73.6" y="90.7" transform="matrix(0.969 -0.2471 0.2471 0.969 -20.418 21.5955)" class="st1" width="4.6" height="2.9"/>
	<polygon class="st1" points="72.9,106.5 77.2,108.1 78.2,105.3 74,103.7 	"/>
	<rect x="32.2" y="97.6" class="st1" width="4.5" height="2.9"/>
	
		<rect x="37.9" y="111.8" transform="matrix(0.7429 -0.6694 0.6694 0.7429 -65.4912 56.0393)" class="st1" width="4.5" height="2.9"/>
	
		<rect x="46" y="117.1" transform="matrix(0.4328 -0.9015 0.9015 0.4328 -79.5277 110.8227)" class="st1" width="4.5" height="2.9"/>
	<polygon class="st1" points="47.8,80.9 50.2,80 48.7,76.4 48.4,75.7 45.7,76.9 47.5,81.1 	"/>
	
		<rect x="38.2" y="82.5" transform="matrix(0.6779 -0.7351 0.7351 0.6779 -49.5528 56.4311)" class="st1" width="2.9" height="4.5"/>
	<rect x="34" y="89.9" transform="matrix(0.2466 -0.9691 0.9691 0.2466 -62.5558 103.8421)" class="st1" width="2.9" height="4.5"/>
	<rect x="33.5" y="104.4" transform="matrix(0.9345 -0.356 0.356 0.9345 -35.3512 19.6715)" class="st1" width="4.5" height="2.9"/>
</g>
<path class="st1" d="M629.2-269.3c-4.2-3.4-7-8.1-7.9-13.4c-3.5-20.6-19.8-36.3-39.3-36.3c-28,0-36.4,24.5-39,37.4
	c-0.9,4.8-3.4,9.2-7.2,12.4c-9.8,8.3-27.9,27.8-27.9,58.7c0,41.7,33.4,75.5,74.5,75.5s74.5-33.8,74.5-75.5
	C657-234.3,646.2-255.5,629.2-269.3z"/>
<path class="st2" d="M571.2-248.3c-4.2-3.4-7-8.1-7.9-13.4c-3.5-20.6-19.8-36.3-39.3-36.3c-28,0-36.4,24.5-39,37.4
	c-0.9,4.8-3.4,9.2-7.2,12.4c-9.8,8.3-27.9,27.8-27.9,58.7c0,41.7,33.4,75.5,74.5,75.5s74.5-33.8,74.5-75.5
	C599-213.3,588.2-234.5,571.2-248.3z"/>
<path class="st1" d="M484-252.8"/>
<g>
	<g>
		<line class="st2" x1="561" y1="-186.9" x2="569.9" y2="-186.9"/>
		<line class="st2" x1="551" y1="-162.1" x2="557.6" y2="-156.2"/>
		<line class="st2" x1="536.7" y1="-152.8" x2="540.5" y2="-144.8"/>
		<line class="st2" x1="537.6" y1="-222.9" x2="541" y2="-231"/>
		<line class="st2" x1="552.2" y1="-211.6" x2="558.7" y2="-217.6"/>
		<line class="st2" x1="559.2" y1="-199.1" x2="567.7" y2="-201.3"/>
		<line class="st2" x1="558.8" y1="-175.1" x2="567.1" y2="-172"/>
	</g>
	<g>
		<line class="st2" x1="487.5" y1="-186.9" x2="478.7" y2="-186.9"/>
		<line class="st2" x1="497.5" y1="-162.1" x2="491" y2="-156.2"/>
		<line class="st2" x1="511.9" y1="-152.8" x2="508.1" y2="-144.8"/>
		<line class="st2" x1="511" y1="-222.9" x2="507.6" y2="-231"/>
		<line class="st2" x1="496.3" y1="-211.6" x2="489.8" y2="-217.6"/>
		<line class="st2" x1="489.4" y1="-199.1" x2="480.8" y2="-201.3"/>
		<line class="st2" x1="489.8" y1="-175.1" x2="481.5" y2="-172"/>
	</g>
</g>
<path class="st2" d="M563.5-361.5c0,0,15,23,13,48"/>
<path class="st2" d="M574.7-333.5c3.6-10.6,16.6-38.4,56.2-39c2.3,0,4,2.2,3.4,4.4c-6,19.6-17.1,42.7-56.7,39.1
	C575.4-329.2,574-331.5,574.7-333.5z"/>
</svg>
