<?xml version="1.0" encoding="utf-8"?>
<!-- Generator: Adobe Illustrator 26.0.1, SVG Export Plug-In . SVG Version: 6.00 Build 0)  -->
<svg version="1.1" id="Layer_1" xmlns="http://www.w3.org/2000/svg" xmlns:xlink="http://www.w3.org/1999/xlink" x="0px" y="0px"
	 viewBox="0 0 140 140" style="enable-background:new 0 0 140 140;" xml:space="preserve">
<style type="text/css">
	.st0{fill:none;stroke:#253F8E;stroke-width:1.5;stroke-miterlimit:10;}
	.st1{fill:#253F8E;}
	.st2{display:none;}
	.st3{display:inline;}
	.st4{fill:none;stroke:#253F8E;stroke-width:3;stroke-miterlimit:10;}
	.st5{fill:none;stroke:#253F8E;stroke-width:3;stroke-linecap:round;stroke-linejoin:round;stroke-miterlimit:10;}
</style>
<g>
	<circle class="st0" cx="-290" cy="-46.3" r="68"/>
	<g>
		<polyline class="st0" points="-290.3,22.3 -290.3,21.7 -290.3,2.5 -290.3,-4 -290.3,-11.5 		"/>
		<polyline class="st0" points="-290.3,-30.7 -290.3,-41.4 -290.3,-42 		"/>
		<circle class="st0" cx="-290.3" cy="-21.1" r="9.6"/>
		<circle class="st0" cx="-268.9" cy="-36.1" r="7.5"/>
		<circle class="st0" cx="-310.6" cy="-36.1" r="7.5"/>
		<path class="st1" d="M-252.4-16.2c1.3,3-6.8,9.2-18,13.9c-8.3,3.5-16,5.1-19.9,4.5c0-1.9,0-4.1,0.1-6.4c3.1-2.9,8.7-6.2,15.3-9
			C-263.7-17.8-253.6-19.2-252.4-16.2z"/>
		<path class="st1" d="M-327.6-16.2c-1.3,3,6.8,9.2,18,13.9c8.3,3.5,15.4,5.3,19.4,4.7c0-1.9,0.1-4.1,0-6.4
			c-3.1-2.9-8.2-6.4-14.8-9.2C-316.3-17.8-326.4-19.2-327.6-16.2z"/>
		<line class="st0" x1="-275.3" y1="-31.8" x2="-281.7" y2="-26.5"/>
		<line class="st0" x1="-304.2" y1="-31.8" x2="-297.8" y2="-26.5"/>
		<ellipse class="st0" cx="-290.3" cy="-62.9" rx="15" ry="21.4"/>
		<path class="st0" d="M-287.1-83.7c0,0-11.8,10.1-5.4,19.1s9.6,17.1,2.1,23.2"/>
	</g>
</g>
<image style="display:none;overflow:visible;" width="458" height="437" xlink:href="C577FD2A.jpg"  transform="matrix(0.4873 0 0 0.4873 -35.96 -26)">
</image>
<g class="st2">
	<g class="st3">
		<g>
			<g>
				<g>
					<path class="st4" d="M888.9,313.6l-19.9,157c-3.2,25.3-2.1,51,3.3,75.9c10.5,48,26.3,93.6,50.2,136.2
						c30.6,54.5,72,97.7,129.9,123.8c65.8,29.6,134.4,29.8,204.1,18.6c10.9-1.8,9.8-7.7,5.6-15.2c-15.3-27.1-26.5-55.8-34.9-85.7
						c-4.9-17.5-9.1-35.2-9.8-55.1l-1.4-26.6c0.4-13.3,1.6-26.5,5.6-39.2c27.8-87.9,7.6-166.8-44.3-239.8c-0.5-0.7-0.7-1.5-1.9-3.8
						l-17.2-19.3c-20.7-23.6-44.7-43.5-71.3-60l-58.4,28C965.1,332,888.9,313.6,888.9,313.6z"/>
				</g>
			</g>
			<path class="st4" d="M1071.3,579.9c0,0-81.7-136-80.3-262.1"/>
		</g>
	</g>
	<g class="st3">
		<g>
			<g>
				<g>
					<path class="st4" d="M846.3,25.1L690.9,54.7c-25,4.8-49.1,13.7-71.1,26.6c-42.4,24.8-80.9,53.9-114,89.8
						c-42.3,46-70.7,98.7-77.6,161.8c-7.8,71.8,13.2,137.1,45.3,199.8c5.1,9.8,10.3,6.9,16.2,0.6c21-22.9,44.9-42.5,70.7-59.7
						c15.1-10.1,30.6-19.6,49.3-26.3l24.9-9.5c12.7-3.7,25.7-6.7,39-6.8c92.2-0.7,161-44.3,214.4-116.2c0.5-0.7,1.2-1.2,3.1-2.9
						l13.1-22.3c16.1-27,27.6-55.9,35-86.4l-44.7-46.9C852.3,103.2,846.3,25.1,846.3,25.1z"/>
				</g>
			</g>
			<path class="st4" d="M649.4,280.8c0,0,104-119.8,224.5-157.4"/>
		</g>
	</g>
	<g class="st3">
		<g>
			<g>
				<g>
					<path class="st4" d="M1107.6-104.6l-76.2-138.7c-12.3-22.3-28.3-42.5-47.3-59.4c-36.7-32.7-76.3-60.3-120.7-80.7
						c-56.8-26.1-115.7-36.7-177.8-23.8c-70.7,14.7-126.3,54.9-176.1,104.9c-7.8,7.9-3.4,12,4.4,15.6c28.3,12.9,54.3,29.6,78.6,48.8
						c14.3,11.3,28.1,23.1,40.3,38.8l16.8,20.7c7.5,11,14.3,22.4,18.5,35C697.2-56,760-4.1,844.8,24.5c0.8,0.3,1.5,0.8,3.8,2
						l25.2,5.5c30.6,7,61.7,8.9,93,6.6l30.8-57C1035.1-74.7,1107.6-104.6,1107.6-104.6z"/>
				</g>
			</g>
			<path class="st4" d="M803.5-212.9c0,0,146,61.9,219,164.9"/>
		</g>
	</g>
	<g class="st3">
		<g>
			<g>
				<g>
					<path class="st4" d="M1311.6,103.8L1420-11.5c17.5-18.6,31.7-40,41.9-63.3c19.7-45,33.8-91.2,39.4-139.7
						c7.2-62.1-0.8-121.4-32.3-176.5c-35.9-62.6-91.2-103.1-154.2-135c-9.9-5-12.4,0.5-13.4,9c-3.6,30.9-11.3,60.7-22.1,89.9
						c-6.3,17.1-13.3,33.8-24.5,50.3l-14.5,22.3c-8.1,10.5-16.9,20.5-27.5,28.4c-74.2,54.8-104.2,130.5-105.2,220.1
						c0,0.8-0.3,1.7-0.8,4.2l2.5,25.7c2.8,31.3,10.6,61.5,22.5,90.5l63.7,11.7C1260.8,44.1,1311.6,103.8,1311.6,103.8z"/>
				</g>
			</g>
			<path class="st4" d="M1320.7-218.9c0,0-13.8,158-89.1,259.2"/>
		</g>
	</g>
	<g class="st3">
		<g>
			<g>
				<g>
					<path class="st4" d="M1176.5,362.3l143.2,67.4c23.1,10.9,47.8,17.7,73.2,20.3c48.9,4.9,97.2,3.9,145.1-5.7
						c61.3-12.3,115.2-38.3,157.9-85.3c48.5-53.5,69.9-118.6,80.8-188.3c1.7-10.9-4.3-11.7-12.7-10c-30.5,6.1-61.3,8-92.3,6.7
						c-18.2-0.7-36.3-2.2-55.4-7.7l-25.7-6.9c-12.5-4.5-24.7-9.7-35.5-17.4c-75-53.6-156.3-58.8-241.8-32c-0.8,0.2-1.7,0.2-4.2,0.6
						l-23.7,10.4c-28.9,12.4-55.2,29.1-79.1,49.3l8.6,64.2C1217.6,295.5,1176.5,362.3,1176.5,362.3z"/>
				</g>
			</g>
			<path class="st4" d="M1486.1,271.1c0,0-154.6,35.7-274.1-4.6"/>
		</g>
	</g>
</g>
<g>
	<g>
		<path class="st1" d="M70,139.5c-38.3,0-69.5-31.2-69.5-69.5S31.7,0.5,70,0.5s69.5,31.2,69.5,69.5S108.3,139.5,70,139.5z M70,3.5
			C33.3,3.5,3.5,33.3,3.5,70c0,36.7,29.8,66.5,66.5,66.5s66.5-29.8,66.5-66.5C136.5,33.3,106.7,3.5,70,3.5z"/>
	</g>
	<path class="st1" d="M114.9,22.5c-0.2-0.4-0.6-0.7-1.1-0.7c-0.5,0-0.9,0.3-1.1,0.7c-1.3,2.9-3.1,5.2-5.3,7c-2.5,2-4.8,2.7-7.8,3.7
		c-2.2,0.7-4.7,1.5-7.8,2.9c-0.4-1.3-0.9-2.5-1.5-3.7c-2.1-3.8-5.4-6.9-10.5-9.5c-0.8-0.4-1.4-0.3-1.7-0.1c-0.8,0.4-0.9,1.3-1,1.6
		C77,26.2,76.5,28,75.7,30c-0.4,1-0.8,2-1.5,3l-1,1.4c-0.6,0.7-1.1,1.2-1.6,1.6c-3.6,2.6-5.9,6-7,10.3l-0.3-0.6
		c-0.9-1.6-2-3-3.3-4.2c-2.7-2.4-5.4-4.2-8.2-5.5c-4.3-2-8.3-2.5-12.4-1.7c-4.3,0.9-8.2,3.2-12.2,7.2c-0.6,0.6-0.7,1.2-0.6,1.6
		c0.2,0.9,1,1.3,1.2,1.4c1.7,0.8,3.3,1.8,4.9,3.1c0.8,0.6,1.7,1.4,2.4,2.4l1.1,1.3c0.5,0.8,0.8,1.4,1,1.9c1.2,3.7,3.3,6.6,6.4,8.8
		c-0.7,0.3-1.3,0.6-1.9,1c-3,1.9-5.5,4-7.6,6.4c-3.1,3.6-4.7,7.3-5,11.5c-0.3,4.4,0.8,8.7,3.6,13.7c0,0.1,0.1,0.1,0.1,0.2
		c-0.6,1.5-1,2.9-1.4,4.2c-0.9,3-1.7,5.3-3.7,7.7c-1.8,2.2-4.1,3.9-7,5.3c-0.4,0.2-0.7,0.6-0.7,1.1c0,0.5,0.3,0.9,0.7,1.1
		c5.2,2.6,11,4,16.8,4.1c0.2,0,0.4,0,0.6,0c4.6,0,9.2-0.8,13.5-2.5c2.3-0.6,5.7-1.9,8.7-5c1.4-1.4,2.6-3,3.5-4.8
		c0.7,0.5,1.5,0.9,2.2,1.2c2.7,1.2,5.6,1.9,9,1.9c1.6,0,3.3-0.1,5.1-0.4c0.9-0.1,1.3-0.6,1.5-0.9c0.4-0.8,0-1.6-0.2-1.9c0,0,0,0,0,0
		c-0.9-1.6-1.6-3.4-2.1-5.4c-0.3-1-0.5-2.1-0.6-3.4l-0.1-1.7c0-0.9,0.1-1.6,0.3-2.2c1.3-3.8,1.2-7.7-0.1-11.4
		c1.6,0.7,3.2,1.2,4.9,1.4c1.4,0.1,2.7,0.2,4,0.2c2,0,4-0.2,5.9-0.5c4.6-0.9,8.2-2.8,11.1-5.9c3-3.2,4.8-7.3,5.7-13
		c0.1-0.7-0.1-1.2-0.3-1.5c0.2-0.1,0.3-0.3,0.5-0.4c2.4-2.4,4.1-5.4,5-8.7c1.7-4.5,2.5-9.3,2.5-14.1
		C118.9,33.5,117.5,27.7,114.9,22.5z M73.1,38c0.9-0.7,1.6-1.4,2.1-2.1c0,0,0-0.1,0.1-0.1l1-1.4c0.8-1.2,1.4-2.4,1.8-3.5
		c0.7-1.8,1.2-3.6,1.5-5.4c4.1,2.3,6.9,4.9,8.7,8.1c0.8,1.4,1.3,2.9,1.7,4.5c0.4,2,0.4,4,0.1,6.3c-0.4,2.7-1.2,5.4-2.4,8.3
		c0,0.1-0.1,0.2-0.2,0.3l-0.1,0.1c-0.6,1.4-1.5,2.7-2.6,3.8l0,0c-0.7,0-1.4,0.1-2.2,0.3c-1,0.2-2,0.4-3,0.7l-0.2,0
		c-0.1,0-0.2,0-0.3,0.1l-1.3,0.5c-0.3-0.4-0.7-0.7-1-1.1c3-6.2,3.8-12.9,3.8-13.3c0.1-0.7-0.4-1.3-1.1-1.4c-0.7-0.1-1.3,0.4-1.4,1.1
		c0,0.1-0.7,6.3-3.3,12c-1.8-1.2-3.8-1.9-6-2.2l-2.2-4.1C67.1,44.6,69.2,40.8,73.1,38z M40.6,52.3c-0.3-0.8-0.7-1.6-1.4-2.6
		c0,0,0-0.1-0.1-0.1l-1.1-1.4c-0.9-1.2-2-2.1-2.8-2.8c-1.5-1.2-3.1-2.2-4.7-3c3.4-3.3,6.7-5.1,10.3-5.9c3.6-0.7,7.1-0.2,10.9,1.5
		c2.6,1.2,5.1,2.9,7.6,5.1c1.1,1,2.1,2.2,2.8,3.6l2,3.6c0,0,0,0.1,0,0.1l1.7,3.2c-1.8,0.2-3.5,0.7-5,1.4c-5.1-5-11.8-8-12.1-8.1
		c-0.6-0.3-1.4,0-1.6,0.6c-0.3,0.6,0,1.4,0.6,1.6c0.1,0,6.2,2.7,10.9,7.2c-2.2,1.7-3.9,4-4.8,6.7c-0.3,0-0.5-0.1-0.8-0.2l-1.5-0.3
		c-0.1-0.1-0.2-0.1-0.3-0.1C45.8,60.7,42.2,57.3,40.6,52.3z M32.6,81c0.3-3.6,1.7-6.9,4.4-10.1c1.9-2.2,4.2-4.1,7-5.9
		c1-0.6,2.1-1.1,3.3-1.5c1,0.5,2.1,1,3.3,1.4c0,0-0.1,0-0.1,0l0.1,0.1c0.1,0.1,0.2,0.1,0.3,0.1l1.6,0.4c0.3,0.1,0.6,0.1,0.8,0.2
		c-0.1,0.6-0.1,1.3-0.1,1.9c0,0.3,0,0.6,0,0.8c-4.9,3.4-8.4,7.6-8.5,7.8c-0.4,0.5-0.3,1.3,0.2,1.7c0.2,0.2,0.5,0.3,0.8,0.3
		c0.4,0,0.7-0.2,1-0.5c0-0.1,2.9-3.6,7.1-6.6c0.4,1.5,1,2.9,1.9,4.2l-1.1,8.3c-0.7,0.4-1.4,0.7-2.1,1c-1.5,0.5-3.1,0.9-4.8,0.9
		c-1.1,0-2.1,0.3-2.9,0.6c0,0-0.1,0-0.1,0L43,86.9c-1.4,0.6-2.5,1.3-3.4,2c-0.4,0.3-0.8,0.6-1.2,0.9c-0.1,0.1-0.3,0.2-0.4,0.3
		c-0.3,0.2-0.5,0.4-0.8,0.7c-0.1,0.1-0.3,0.3-0.4,0.4c-0.2,0.2-0.4,0.4-0.7,0.6c-0.1,0.1-0.3,0.3-0.4,0.4c-0.1,0.1-0.2,0.2-0.3,0.3
		C33.2,88.4,32.3,84.7,32.6,81z M59.5,109c-2.7,2.7-5.6,3.8-7.6,4.3c0,0-0.1,0-0.1,0c-4.3,1.6-8.8,2.4-13.3,2.3
		c-4.6-0.1-9.2-1-13.5-2.8c2.2-1.3,4.1-2.9,5.6-4.8c2.3-2.8,3.1-5.5,4.1-8.5c0.4-1.4,0.9-2.8,1.5-4.4c0,0,0,0,0,0
		c0.1-0.1,0.2-0.2,0.3-0.3c0,0,0,0,0,0c0.1-0.1,0.2-0.2,0.2-0.2c1.2-1.4,2.6-2.7,4.3-3.9c0.8-0.6,1.8-1.2,2.9-1.7l1.6-0.7
		c0.6-0.2,1.4-0.4,2.2-0.5c1.2-0.1,2.4-0.2,3.5-0.5c-3.7,16.5-13.8,20.9-13.9,20.9c-0.6,0.3-0.9,1-0.7,1.6c0.2,0.5,0.7,0.8,1.1,0.8
		c0.2,0,0.3,0,0.5-0.1c0.5-0.2,12-5.1,15.7-24.1c0.2-0.1,0.3-0.1,0.5-0.2c0,0.9,0.1,1.8,0.3,2.6c0.7,3.5,1.8,6.6,3.3,9.3
		c1.3,2.4,2.9,4.4,4.7,6C61.9,106.2,60.9,107.7,59.5,109z M79.8,106.4c-4.7,0.6-8.5,0.2-11.8-1.4c-1-0.5-2.1-1.1-3-1.8
		c-1.9-1.5-3.5-3.4-4.9-5.9c-1.4-2.5-2.4-5.3-3.1-8.6c-0.3-1.3-0.3-2.7-0.2-4.1c0-0.2,0-0.3,0.1-0.5l0.9-6.3
		c1.6,1.5,3.5,2.6,5.7,3.1c1.5,5.8,4.2,10.6,4.4,10.9c0.2,0.4,0.6,0.6,1.1,0.6c0.2,0,0.4-0.1,0.6-0.2c0.6-0.3,0.8-1.1,0.4-1.7
		c0-0.1-2.4-4.1-3.8-9.2c0.3,0,0.7,0.1,1,0.1c3.2,0,6.1-1.1,8.4-2.8c0.3,0.4,0.5,0.8,0.8,1.2c2.3,4.2,2.7,8.3,1.3,12.6
		c-0.3,1.1-0.4,2.1-0.5,2.9c0,0,0,0.1,0,0.1l0.1,1.7c0,1.5,0.3,2.7,0.6,3.9C78.4,103.1,79,104.8,79.8,106.4z M103.9,75.3
		c-2.5,2.7-5.6,4.4-9.7,5.2c-2.8,0.5-5.8,0.6-9.2,0.3c-1.5-0.2-3-0.6-4.4-1.3l-2.4-1.1c-0.3-0.5-0.6-0.9-0.9-1.4
		c1.2-1.3,2.2-2.9,2.8-4.6c0.7,0,1.4,0.1,2,0.1c4.9,0,8.9-0.9,9.2-0.9c0.7-0.1,1.1-0.8,0.9-1.5c-0.1-0.7-0.8-1.1-1.5-0.9
		c-0.1,0-4.7,1-10,0.8c0.1-0.8,0.2-1.5,0.2-2.3c0-2.5-0.7-4.8-1.8-6.9l0.6-0.3c0.1,0,0.2,0,0.3-0.1c0.9-0.3,1.8-0.5,2.7-0.7
		c0.8-0.1,1.6-0.2,2.4-0.3c3.1-0.1,6,0.6,8.6,2.3c0,0,0.1,0,0.1,0.1l4.4,2.2c0.1,0,0.1,0.1,0.2,0.1l0.7,0.2c1.4,0.4,2.7,0.5,3.9,0.6
		c1.7,0.1,3.4,0,5-0.2c0.2,0,0.4-0.1,0.5-0.1C108,69.2,106.4,72.6,103.9,75.3z M114.2,52.6c0,0,0,0.1,0,0.1
		c-0.8,2.9-2.3,5.5-4.4,7.6c-0.7,0.7-1.4,1.3-2.2,1.8c-1.4,0.2-2.8,0.2-4.3,0.2c-1.2-0.1-2.3-0.2-3.4-0.5l-0.6-0.2l-4.2-2.1
		c-2.3-1.4-4.7-2.2-7.3-2.5c0.6-0.9,1.2-1.8,1.7-2.8c17.3-4.1,21.8-14.8,22-15.3c0.3-0.6,0-1.4-0.7-1.6c-0.6-0.3-1.4,0-1.6,0.7
		c0,0.1-3.9,9.2-18.6,13.3c0.8-2.2,1.4-4.4,1.7-6.6c0.3-2.2,0.3-4.3,0-6.2c0.1,0,0.2-0.1,0.2-0.1l0.2-0.1c3-1.4,5.4-2.2,7.6-2.9
		c3.1-1,5.8-1.8,8.6-4.1c1.8-1.5,3.4-3.4,4.7-5.6c1.8,4.3,2.8,8.9,2.8,13.5C116.6,43.9,115.8,48.3,114.2,52.6z"/>
</g>
<g>
	<g>
		<g>
			<g>
				<path class="st5" d="M474.9-0.8l-3-5.4v0l-2.5-4.5c-1-1.8-2.2-3.4-3.8-4.8c-2.9-2.6-6.1-4.8-9.6-6.5c-4.5-2.1-9.2-3-14.2-2
					c-5.6,1.2-10.1,4.3-14.1,8.3c-0.6,0.6-0.3,1,0.3,1.2c2.2,1,4.3,2.4,6.2,3.9c1.1,0.9,2.2,1.8,3.2,3.1l1.3,1.7
					c0.6,0.9,1.1,1.8,1.5,2.8c2.3,7,7.3,11.1,14,13.5c0.1,0,0.1,0.1,0.3,0.2l2,0.5c0.6,0.1,1.2,0.3,1.8,0.3c1.8,0.3,3.7,0.3,5.6,0.2
					l0.3-0.6l2.2-4c1.6-2.4,4-4.2,5.9-5.3c1.6-1,2.9-1.5,2.9-1.5L474.9-0.8z"/>
			</g>
		</g>
		<path class="st5" d="M451.3-8.4c0,0,11.6,5,17.4,13.2"/>
	</g>
	<g>
		<g>
			<g>
				<path class="st5" d="M488.5,11.6l-0.8,0.8c0,0-1.9-2.3-4.8-4.2c-0.5-0.3-1-0.6-1.5-0.9c-0.9-0.5-1.9-0.9-2.9-1.2l-5.1-1
					c-0.4-1-0.7-2.1-1-3.2c-0.1-0.5-0.2-0.9-0.3-1.4 M496.1,3.8l0.4-0.5c1.4-1.4,2.6-3.1,3.4-5c0.1-0.2,0.2-0.4,0.3-0.6
					c1.5-3.4,2.6-6.8,3-10.4c0.4-2.8,0.4-5.5-0.2-8.2c-0.4-2-1.1-4-2.2-5.9c-2.8-5-7.1-8.3-12.1-11c-0.8-0.4-1,0-1.1,0.7
					c-0.3,2.5-1,4.8-1.9,7.1c-0.5,1.4-1.1,2.7-2,4l-1.2,1.8c-0.7,0.8-1.4,1.6-2.2,2.2c-5.5,3.9-8.1,9.3-8.6,15.8v0"/>
			</g>
		</g>
		<path class="st5" d="M488.9-13.4c0,0-1.3,12.6-7.5,20.5"/>
	</g>
	<g>
		<g>
			<g>
				<path class="st5" d="M482.5,27.4l-4-1.9c0,0,0.9-1.5,1.8-3.7v0c0.4-1.1,0.9-2.5,1.1-3.9c0.2-1,0.3-2,0.2-3.1L481,9.7
					c0.7-0.6,1.3-1.1,2-1.6c1-0.7,2-1.3,3.1-1.8c0.4-0.2,0.7-0.3,1.1-0.5c0.1,0,0.1-0.1,0.2-0.1l1.9-0.8c0.2,0,0.3,0,0.3-0.1
					c1.2-0.4,2.3-0.6,3.5-0.8c1-0.2,2.1-0.3,3.1-0.3c3.9-0.2,7.7,0.7,11.3,3l5.3,2.6l0.9,0.2c1.5,0.4,3,0.6,4.4,0.6
					c2,0.1,3.9,0,5.8-0.2c0.5-0.1,1-0.1,1.5-0.2c0.7-0.1,1.2-0.1,1,0.8c-0.9,5.5-2.6,10.7-6.5,15c-3.4,3.7-7.7,5.8-12.6,6.7
					c-3.8,0.7-7.7,0.8-11.6,0.4c-2-0.2-4-0.8-5.8-1.7l-3.3-1.6"/>
			</g>
		</g>
		<path class="st5" d="M503.2,18.4c0,0-12.3,2.8-21.8-0.5"/>
	</g>
	<g>
		<g>
			<g>
				<path class="st5" d="M491.3,62.3c-1.2-2.2-2.1-4.5-2.7-6.9c-0.4-1.4-0.7-2.8-0.7-4.4l-0.1-2.1c0-1.1,0.2-2.1,0.5-3.1
					c1.9-5.9,1.1-11.4-1.7-16.5c-0.5-0.8-1-1.7-1.6-2.5c0-0.1-0.1-0.1-0.1-0.2c0,0-0.1-0.1-0.1-0.3l-1.3-1.6c-1-1.1-2-2.1-3.1-3v0
					c-0.8-0.6-1.6-1.2-2.5-1.8l-4.7,2.2c-1,0.4-2,0.6-3,0.7v0c-4.2,0.6-8.1-0.4-8.1-0.4l-0.3,2.5l-1.1,8.4l-0.2,1.6
					c0,0.2-0.1,0.4-0.1,0.6c-0.2,1.8-0.1,3.6,0.3,5.4c0.8,3.8,2,7.5,3.9,10.9c1.7,3,3.7,5.6,6.3,7.6c1.2,0.9,2.5,1.7,4,2.4
					c5.2,2.4,10.7,2.5,16.2,1.6C491.7,63.4,491.6,62.9,491.3,62.3z"/>
			</g>
		</g>
		<path class="st5" d="M476.3,43.8c0,0-6.4-10.9-6.2-21"/>
	</g>
	<g>
		<g>
			<g>
				<path class="st5" d="M462.6,5.8l0.5-0.1c0,0,0.3,2.5,1.4,5.4c0.3,0.8,0.6,1.6,1.1,2.3c0.5,0.9,1,1.8,1.7,2.6l3.7,3.6
					c-0.2,1.1-0.5,2.2-0.9,3.2v0c-0.4,1.3-1,2.5-1.7,3.7l-0.9,1.7 M460.2,35.6c-1.1,0.7-2.2,1.2-3.5,1.7c-1.9,0.7-4,1.1-6.3,1.2
					c-1,0-2.1,0.3-3.1,0.6l-2,0.8c-1.5,0.6-2.7,1.4-3.9,2.2c-2,1.4-3.9,3.1-5.5,4.9c-0.2,0.3-0.5,0.5-0.7,0.5
					c-0.2,0-0.4-0.1-0.6-0.5c-2.7-4.9-4.6-10.1-4.1-15.8c0.4-5,2.5-9.3,5.8-13.1c2.5-2.9,5.5-5.4,8.8-7.5c1.5-1,3.2-1.7,4.9-2.1"/>
			</g>
		</g>
		<path class="st5" d="M448.1,26.6c0,0,8-9.8,17.5-13.1"/>
	</g>
</g>
<circle class="st1" cx="474.2" cy="15.1" r="16.9"/>
<g>
	<path class="st5" d="M503.2-21c0.5-0.3,1-0.5,1.5-0.8c9-4.2,13.8-3.8,19.3-8.3c2-1.6,4.7-4.4,6.8-9c1.8,3.7,4.7,10.6,4.8,19.8
		c0.1,7.3-1.6,13.1-2.9,16.7c-0.5,1.9-1.8,6.1-5.7,10c-1,1-2.1,1.9-3.1,2.6"/>
	<path class="st5" d="M500.3-2.3c21.1-4.8,26.4-17.8,26.4-17.8"/>
</g>
<g>
	<path class="st5" d="M456.7,37.3c-1.9,0.7-4,1.1-6.3,1.2c-1,0-2.1,0.3-3.1,0.6l-2,0.8c-1.5,0.6-2.7,1.4-3.9,2.2
		c-2,1.4-3.9,3.1-5.5,4.9c-0.2,0.3-0.5,0.5-0.7,0.5c-2.7,6.8-2.9,11.1-6.8,15.8c-1.6,2-4.4,4.6-9,6.8c3.7,1.8,10.6,4.7,19.8,4.8
		c7.3,0.1,13.1-1.6,16.7-2.9c1.9-0.5,6.1-1.8,9.9-5.7c2.4-2.4,3.9-5,4.7-7"/>
	<path class="st5" d="M438.4,66.2c0,0,14.1-5.7,18.3-28.9"/>
</g>
</svg>
