<?xml version="1.0" encoding="utf-8"?>
<!-- Generator: Adobe Illustrator 26.0.1, SVG Export Plug-In . SVG Version: 6.00 Build 0)  -->
<svg version="1.1" id="Layer_1" xmlns="http://www.w3.org/2000/svg" xmlns:xlink="http://www.w3.org/1999/xlink" x="0px" y="0px"
	 viewBox="0 0 140 140" style="enable-background:new 0 0 140 140;" xml:space="preserve">
<style type="text/css">
	.st0{fill:none;stroke:#253F8E;stroke-width:1.5;stroke-miterlimit:10;}
	.st1{fill:#253F8E;}
	.st2{fill:none;stroke:#253F8E;stroke-width:3;stroke-linecap:round;stroke-linejoin:round;stroke-miterlimit:10;}
</style>
<g>
	<circle class="st0" cx="-290" cy="-46.3" r="68"/>
	<g>
		<polyline class="st0" points="-290.3,22.3 -290.3,21.7 -290.3,2.5 -290.3,-4 -290.3,-11.5 		"/>
		<polyline class="st0" points="-290.3,-30.7 -290.3,-41.4 -290.3,-42 		"/>
		<circle class="st0" cx="-290.3" cy="-21.1" r="9.6"/>
		<circle class="st0" cx="-268.9" cy="-36.1" r="7.5"/>
		<circle class="st0" cx="-310.6" cy="-36.1" r="7.5"/>
		<path class="st1" d="M-252.4-16.2c1.3,3-6.8,9.2-18,13.9c-8.3,3.5-16,5.1-19.9,4.5c0-1.9,0-4.1,0.1-6.4c3.1-2.9,8.7-6.2,15.3-9
			C-263.7-17.8-253.6-19.2-252.4-16.2z"/>
		<path class="st1" d="M-327.6-16.2c-1.3,3,6.8,9.2,18,13.9c8.3,3.5,15.4,5.3,19.4,4.7c0-1.9,0.1-4.1,0-6.4
			c-3.1-2.9-8.2-6.4-14.8-9.2C-316.3-17.8-326.4-19.2-327.6-16.2z"/>
		<line class="st0" x1="-275.3" y1="-31.8" x2="-281.7" y2="-26.5"/>
		<line class="st0" x1="-304.2" y1="-31.8" x2="-297.8" y2="-26.5"/>
		<ellipse class="st0" cx="-290.3" cy="-62.9" rx="15" ry="21.4"/>
		<path class="st0" d="M-287.1-83.7c0,0-11.8,10.1-5.4,19.1s9.6,17.1,2.1,23.2"/>
	</g>
</g>
<image style="display:none;overflow:visible;" width="458" height="437" xlink:href="AEF56F56.jpg"  transform="matrix(0.4873 0 0 0.4873 -35.96 -26)">
</image>
<path class="st0" d="M576.5-100.5"/>
<g>
	<path class="st2" d="M675.8-38.7c0,0,4.6-12.3-26.1-26.3c-9.2-4-32.8-7.3-32.8-7.3s-63,37.9-86.3,54.8c-2.6,1.9,23.7-1.9,55-7
		C626.8-31.3,675.8-38.7,675.8-38.7z"/>
	<path class="st2" d="M676,21.8v-60.5L530.1-16v60c0,2.6,2.4,4.7,5,4.2L672.4,26C674.5,25.7,676,23.9,676,21.8z"/>
	<line class="st2" x1="676" y1="-15.5" x2="530.1" y2="5.1"/>
	<line class="st2" x1="675" y1="5.5" x2="530.1" y2="26"/>
	<path class="st1" d="M597.2-43.4C583-47,574.4-61.4,578-75.6c0-0.2,0.1-0.3,0.1-0.5l51.4,12.9c0,0.2-0.1,0.3-0.1,0.5
		C625.8-48.4,611.4-39.8,597.2-43.4z"/>
</g>
<path class="st1" d="M139.5,45.4c0.1-3.8-2.1-12.5-20.6-22c-1.5-0.8-8.8-3.8-11.3-4.5c-8.9-2.4-20.9-4.2-23.7-4.6
	c-0.8-0.1-1.6,0-2.3,0.5c-6,3.6-59.4,35.9-79.9,50.8c-0.2,0.2-0.4,0.4-0.5,0.6c-0.2,0.4-0.6,1.7-0.6,2v55.9c0,1.6,0.7,3.1,1.9,4.2
	c1,0.9,2.3,1.3,3.6,1.3c0.3,0,0.6,0,0.9-0.1l128-20.6c2.7-0.4,4.6-2.7,4.6-5.4V46.9C139.5,46.7,139.5,45.8,139.5,45.4z M136.5,48.6
	v18.6L3.5,86V70c3-0.1,10-1.3,23-3.7C34.7,64.9,136.5,48.6,136.5,48.6z M3.5,89l133-18.8v16.4l-133,18.8V89z M83.1,17.3
	c0.1,0,0.2-0.1,0.2-0.1c0,0,0.1,0,0.1,0c2.8,0.4,14.5,2.2,23.1,4.5c2.5,0.7,9.5,3.5,10.8,4.2c18.1,9.3,19.3,17.2,19.2,19.7
	c-5.7,0.9-33.3,5.1-61.9,9.7L6.1,65.9C28.2,50.4,77.3,20.7,83.1,17.3z M134.4,105.7l-128,20.6c-0.7,0.1-1.5-0.1-2-0.6
	s-0.9-1.2-0.9-1.9v-15.4l133-18.8v13.6C136.5,104.5,135.6,105.5,134.4,105.7z"/>
<path class="st1" d="M64.6,42.5c-13.4-3.4-21.4-17.1-17.8-30.4c0,0,0,0,0,0c0.2,0.1,47.7,12,47.9,12.1c0,0,0,0,0,0
	C91.5,37.7,78,45.9,64.6,42.5z"/>
</svg>
