<?xml version="1.0" encoding="utf-8"?>
<!-- Generator: Adobe Illustrator 26.0.1, SVG Export Plug-In . SVG Version: 6.00 Build 0)  -->
<svg version="1.1" id="Layer_1" xmlns="http://www.w3.org/2000/svg" xmlns:xlink="http://www.w3.org/1999/xlink" x="0px" y="0px"
	 viewBox="0 0 140 140" style="enable-background:new 0 0 140 140;" xml:space="preserve">
<style type="text/css">
	.st0{fill:none;stroke:#253F8E;stroke-width:1.5;stroke-miterlimit:10;}
	.st1{fill:#253F8E;}
</style>
<g>
	<circle class="st0" cx="-290" cy="-46.3" r="68"/>
	<g>
		<polyline class="st0" points="-290.3,22.3 -290.3,21.7 -290.3,2.5 -290.3,-4 -290.3,-11.5 		"/>
		<polyline class="st0" points="-290.3,-30.7 -290.3,-41.4 -290.3,-42 		"/>
		<circle class="st0" cx="-290.3" cy="-21.1" r="9.6"/>
		<circle class="st0" cx="-268.9" cy="-36.1" r="7.5"/>
		<circle class="st0" cx="-310.6" cy="-36.1" r="7.5"/>
		<path class="st1" d="M-252.4-16.2c1.3,3-6.8,9.2-18,13.9c-8.3,3.5-16,5.1-19.9,4.5c0-1.9,0-4.1,0.1-6.4c3.1-2.9,8.7-6.2,15.3-9
			C-263.7-17.8-253.6-19.2-252.4-16.2z"/>
		<path class="st1" d="M-327.6-16.2c-1.3,3,6.8,9.2,18,13.9c8.3,3.5,15.4,5.3,19.4,4.7c0-1.9,0.1-4.1,0-6.4
			c-3.1-2.9-8.2-6.4-14.8-9.2C-316.3-17.8-326.4-19.2-327.6-16.2z"/>
		<line class="st0" x1="-275.3" y1="-31.8" x2="-281.7" y2="-26.5"/>
		<line class="st0" x1="-304.2" y1="-31.8" x2="-297.8" y2="-26.5"/>
		<ellipse class="st0" cx="-290.3" cy="-62.9" rx="15" ry="21.4"/>
		<path class="st0" d="M-287.1-83.7c0,0-11.8,10.1-5.4,19.1s9.6,17.1,2.1,23.2"/>
	</g>
</g>
<image style="display:none;overflow:visible;" width="458" height="437" xlink:href="67CFD6EF.jpg"  transform="matrix(0.4873 0 0 0.4873 -35.96 -26)">
</image>
<g>
	<g>
		<path class="st0" d="M543.3,14.1c-1.2-0.3-2.4-0.6-3.6-0.8c-0.5-0.1-0.7-0.3-0.8-0.8c-0.2-1.2-0.6-2.4-0.8-3.7
			c-0.2-0.8-0.7-1.3-1.5-1.5c-1.1-0.2-2.2-0.5-3.4-0.7c-0.6-0.1-0.9-0.3-1-1c-0.2-1.1-0.6-2.2-0.8-3.4c-0.2-0.9-0.7-1.4-1.7-1.6
			c-1.1-0.2-2.2-0.6-3.4-0.7c-0.6-0.1-0.8-0.4-0.9-0.9c-0.2-1.1-0.5-2.2-0.7-3.4c-0.2-0.9-0.7-1.4-1.6-1.6c-1.2-0.2-2.3-0.5-3.5-0.8
			c-0.5-0.1-0.7-0.3-0.8-0.8c-0.2-1.3-0.5-2.6-0.9-3.8c-0.3-1.2-1.4-1.6-2.4-0.9c-0.5,0.3-0.8,0.9-1.2,1.3c-3,4.4-6.1,8.8-9.1,13.1
			c-0.3,0.4-0.6,0.9-1,1.2c-10.7,10.7-21.4,21.5-32.1,32.2c-1.2,1.3-2.4,2.6-3.9,3.6c-4.4,3-8.8,6.1-13.1,9.1
			c-0.4,0.2-0.7,0.5-1,0.8c-0.9,1.1-0.5,2.2,0.9,2.6c1.2,0.3,2.5,0.6,3.7,0.8c0.5,0.1,0.7,0.3,0.8,0.8c0.2,1.3,0.6,2.5,0.8,3.7
			c0.2,0.8,0.6,1.2,1.4,1.3c1.2,0.3,2.5,0.6,3.7,0.8c0.5,0.1,0.7,0.3,0.8,0.8c0.2,1.2,0.5,2.3,0.8,3.5c0.2,0.9,0.7,1.5,1.6,1.6
			c1.1,0.2,2.2,0.5,3.4,0.7c0.6,0.1,0.8,0.4,1,0.9c0.2,1.2,0.5,2.3,0.8,3.5c0.2,0.9,0.7,1.3,1.5,1.5c1.2,0.2,2.4,0.6,3.5,0.8
			c0.5,0.1,0.7,0.3,0.8,0.8c0.3,1.3,0.5,2.6,0.9,3.9c0.3,1.1,1.4,1.4,2.4,0.8c0.5-0.3,0.8-0.7,1.1-1.2c3-4.4,6-8.7,9-13.1
			c0.3-0.5,0.7-0.9,1.1-1.4c11.2-11.2,22.4-22.5,33.7-33.7c1-1,2.2-2,3.4-2.8c4.2-2.9,8.3-5.7,12.5-8.6c0.7-0.5,1.2-1,1.3-1.8
			C544.6,14.7,544.1,14.2,543.3,14.1z"/>
	</g>
	<path class="st0" d="M488,20c-9,8.1-12.5,19.9-8.2,24.7c4.3,4.8,15.1,2.2,24.1-5.9c9-8.1,12.8-18.5,8.5-23.3"/>
	<path class="st0" d="M516,40c9-8.1,11.8-18.6,7.5-23.4c-4.3-4.8-15-2.1-24,6s-12.9,18.5-8.6,23.2"/>
</g>
<image style="overflow:visible;" width="512" height="512" xlink:href="C:\Users\Admin\Downloads\candy.png"  transform="matrix(0.1875 0 0 0.1875 190.04 -217)">
</image>
<g>
	<path class="st1" d="M70,2C32.5,2,2,32.5,2,70s30.5,68,68,68s68-30.5,68-68S107.5,2,70,2z M70,135.1c-35.9,0-65.1-29.2-65.1-65.1
		S34.1,4.9,70,4.9s65.1,29.2,65.1,65.1S105.9,135.1,70,135.1z"/>
	<path class="st1" d="M128.4,48.2c-0.2-1.8-1.3-3.1-3.1-3.5l0,0c-0.6-0.1-1.2-0.3-1.9-0.4c-0.8-0.2-1.5-0.3-2.3-0.5
		c-0.1-0.7-0.3-1.4-0.5-2.1c-0.2-0.7-0.3-1.4-0.5-2c-0.2-1.2-1-2.8-3.3-3.3c-0.5-0.1-1-0.2-1.6-0.4c-0.8-0.2-1.7-0.4-2.5-0.5
		c-0.1-0.7-0.3-1.4-0.5-2.1c-0.2-0.6-0.3-1.2-0.4-1.8c-0.4-1.9-1.6-3.1-3.5-3.5c-0.6-0.1-1.1-0.2-1.7-0.4c-0.7-0.2-1.4-0.3-2.1-0.5
		c-0.1-0.5-0.2-1-0.3-1.5c-0.2-0.8-0.4-1.5-0.5-2.3c-0.4-1.9-1.5-3.1-3.4-3.5c-0.7-0.1-1.3-0.3-1.9-0.4c-0.7-0.1-1.3-0.3-2-0.4
		c-0.3-1.4-0.6-2.8-1-4.5c-0.3-1.3-1.2-2.2-2.3-2.7c-1.1-0.4-2.4-0.2-3.6,0.5c-0.8,0.6-1.4,1.3-1.8,1.9l-1.9,2.7
		c-3.2,4.6-6.4,9.3-9.7,13.9c-0.3,0.5-0.7,0.9-1,1.3c-13.3,13.4-26.6,26.7-40,40c-0.3,0.4-0.7,0.7-1,1.1c-1.2,1.2-2.3,2.3-3.5,3.2
		c-5.4,3.7-10.8,7.5-16.2,11.2l-0.1,0.1c-0.5,0.3-1.1,0.8-1.6,1.4c-0.9,1.1-1.2,2.5-0.8,3.7c0.4,1.2,1.5,2.1,2.9,2.5
		c1.6,0.4,2.9,0.7,4.3,1c0.2,0.9,0.4,1.7,0.6,2.6c0.1,0.6,0.3,1.1,0.4,1.7c0.3,1.7,1.5,2.8,3.1,3.1c0.7,0.1,1.3,0.3,2,0.5
		c0.7,0.2,1.5,0.3,2.2,0.5c0.1,0.5,0.2,0.9,0.3,1.4c0.2,0.8,0.4,1.6,0.5,2.5c0.5,2.5,2.2,3.3,3.5,3.5c0.7,0.1,1.4,0.3,2.1,0.4
		c0.6,0.1,1.2,0.3,1.9,0.4c0.1,0.6,0.3,1.2,0.4,1.9c0.2,0.7,0.3,1.4,0.5,2.1c0.2,1.3,1,2.9,3.4,3.4c0.6,0.1,1.2,0.3,1.8,0.4
		c0.7,0.2,1.5,0.3,2.3,0.5c0.3,1.7,0.7,3.2,1.1,4.6c0.3,1.2,1.2,2.2,2.3,2.6c0.4,0.1,0.8,0.2,1.2,0.2c0.8,0,1.6-0.2,2.3-0.7
		c0.8-0.6,1.4-1.3,1.8-2c3.7-5.4,7.5-10.9,11.2-16.3c0.4-0.5,0.7-1,1.2-1.4l10.5-10.5c10.5-10.5,20.9-21,31.4-31.4
		c1.2-1.2,2.5-2.3,3.9-3.3c3.8-2.6,7.7-5.3,11.5-7.9l4-2.8c1.4-1,2.2-2.2,2.4-3.6l0-0.2L128.4,48.2z M72.6,95l-10.5,10.5
		c-0.6,0.6-1.2,1.3-1.6,2c-3.7,5.4-7.4,10.9-11.2,16.3c-0.3,0.4-0.5,0.8-0.8,1c0,0-0.1,0-0.1,0c-0.4-1.4-0.7-2.9-1.1-4.8
		c-0.3-1.3-1.1-2.2-2.4-2.4c-0.9-0.2-1.7-0.4-2.5-0.5c-0.6-0.1-1.2-0.3-1.8-0.4c-0.4-0.1-0.4-0.1-0.5-0.4c-0.1-0.8-0.3-1.5-0.5-2.3
		c-0.2-0.7-0.3-1.3-0.4-2c-0.3-1.5-1.2-2.4-2.7-2.6c-0.6-0.1-1.3-0.3-1.9-0.4c-0.8-0.2-1.5-0.4-2.3-0.5c-0.4-0.1-0.4-0.1-0.5-0.6
		c-0.2-0.9-0.4-1.7-0.6-2.6c-0.1-0.6-0.3-1.2-0.4-1.8c-0.3-1.7-1.5-2.2-2.4-2.4c-0.8-0.2-1.7-0.4-2.5-0.6c-0.7-0.2-1.4-0.3-2.1-0.5
		c-0.1,0-0.2-0.1-0.2-0.1c0,0,0,0,0,0c0,0,0-0.1-0.1-0.2c-0.1-0.6-0.3-1.2-0.4-1.8c-0.2-0.9-0.4-1.9-0.6-2.8
		c-0.3-1.4-1.1-2.2-2.5-2.5c-1.4-0.3-2.9-0.6-4.5-1c-0.1,0-0.1,0-0.2-0.1c0,0,0.1-0.1,0.1-0.1c0.2-0.2,0.5-0.5,0.9-0.7l0.1-0.1
		c5.4-3.7,10.8-7.5,16.2-11.2c1.6-1.1,2.9-2.4,4.1-3.7c0.3-0.3,0.7-0.7,1-1c2-2,4-4,5.9-6c-2.6,6.8-2.5,13.3,0.9,17.2
		c2.1,2.4,5.3,3.6,9.2,3.6c1.7,0,3.5-0.2,5.4-0.7c6-1.4,12.3-5,18-10.1c11.1-10,16-22.5,12-29.8c4.2-0.8,7.7-0.2,9.7,2
		c4,4.5,1.9,15.4-7.4,24.7c-0.6,0.6-1.6,2-1.6,2C84.2,83.4,78.4,89.2,72.6,95z M71.7,58.5c4.5-4,9.3-6.9,13.8-8.5
		c4,5.3-0.8,17-10.7,25.9c-4.4,3.9-9.2,6.8-13.8,8.5C56.8,79.1,61.7,67.4,71.7,58.5z M124,49.1l-4,2.8c-3.8,2.6-7.6,5.3-11.5,7.9
		c-1.6,1.1-3,2.3-4.5,3.7c-0.2,0.2-0.5,0.5-0.7,0.7c2.2-6.2,1.8-12-1.6-15.8c-6.1-6.8-20.4-3.6-32.5,7.3
		C58,65.7,53.1,78.2,57.1,85.4c-4.4,0.8-7.8,0.1-9.7-2c-3.9-4.3-1.4-15.8,7-25.1c0.9-1,2.9-3.2,2.9-3.2c6.8-6.8,13.6-13.6,20.4-20.5
		c0.5-0.5,1-1.1,1.5-1.8c3.2-4.6,6.5-9.3,9.7-13.9l1.9-2.7c0.3-0.4,0.5-0.7,0.8-0.9c0.1,0,0.1-0.1,0.1-0.1c0,0,0,0,0,0.1
		c0.5,1.8,0.8,3.2,1.1,4.6c0.3,1.4,1.1,2.2,2.5,2.5c0.8,0.2,1.5,0.3,2.3,0.5c0.7,0.2,1.3,0.3,2,0.4c0.4,0.1,0.4,0.1,0.5,0.5
		c0.1,0.8,0.3,1.7,0.5,2.5c0.1,0.6,0.3,1.1,0.4,1.7c0.3,1.5,1.2,2.4,2.6,2.6c0.7,0.1,1.5,0.3,2.3,0.5c0.6,0.1,1.2,0.3,1.9,0.4
		c0.5,0.1,0.5,0.2,0.6,0.6c0.1,0.7,0.3,1.4,0.5,2c0.2,0.7,0.4,1.4,0.5,2.1c0.3,1.5,1.2,2.4,2.8,2.7c0.8,0.1,1.7,0.3,2.5,0.5
		c0.5,0.1,1.1,0.3,1.6,0.4c0.4,0.1,0.4,0.1,0.4,0.4c0.1,0.7,0.3,1.5,0.5,2.2c0.2,0.8,0.4,1.5,0.5,2.3c0.2,1.4,1.1,2.2,2.5,2.5
		c0.9,0.2,1.7,0.4,2.6,0.6c0.6,0.1,1.3,0.3,1.9,0.4c0.1,0,0.2,0,0.2,0.1C124.6,48.5,124.4,48.8,124,49.1z M55.1,57.5"/>
</g>
<path class="st1" d="M86.9,48.6c0,0,4.2,11.4-2.8,19.4S67.9,85.3,59.5,86.6C56.6,78.4,60.7,63.5,72,57S86.9,48.6,86.9,48.6z"/>
</svg>
