<?xml version="1.0" encoding="utf-8"?>
<!-- Generator: Adobe Illustrator 26.0.1, SVG Export Plug-In . SVG Version: 6.00 Build 0)  -->
<svg version="1.1" id="Layer_1" xmlns="http://www.w3.org/2000/svg" xmlns:xlink="http://www.w3.org/1999/xlink" x="0px" y="0px"
	 viewBox="0 0 140 140" style="enable-background:new 0 0 140 140;" xml:space="preserve">
<style type="text/css">
	.st0{fill:none;stroke:#253F8E;stroke-width:3;stroke-linecap:round;stroke-linejoin:round;stroke-miterlimit:10;}
	.st1{fill:none;stroke:#253F8E;stroke-width:3;stroke-miterlimit:10;}
	.st2{fill:#253F8E;}
</style>
<image style="display:none;overflow:visible;" width="458" height="437" xlink:href="B0963808.jpg"  transform="matrix(0.4873 0 0 0.4873 -35.96 -26)">
</image>
<image style="display:none;overflow:visible;" width="370" height="384" xlink:href="B0963809.jpg"  transform="matrix(0.5942 0 0 0.5942 310.04 -84)">
</image>
<g>
	<line class="st0" x1="453" y1="-253" x2="453" y2="-205"/>
	<path class="st1" d="M454-204c0,0,0-33.9,44.8-28.3c1.2,0.2,2.1,1.2,2,2.4c-1.1,10.9-3,18.9-6.8,19.9"/>
	<path class="st1" d="M452.9-204c0,0,0-33.9-44.8-28.3c-1.2,0.2-2.1,1.2-2,2.4c1.1,10.9,3,18.9,6.8,19.9"/>
	<path class="st1" d="M467.3-197.8c1.4-8.6,8.8-15.2,17.8-15.2c3.5,0,6.8,1,9.6,2.8c5,3.2,8.4,8.8,8.4,15.2c0,4.6-1.7,8.8-4.5,11.9
		c-3.3,3.7-8.1,6.1-13.5,6.1c-1.4,0-2.7-0.1-4-0.4c-0.3-0.1-0.6-0.1-0.8-0.2c-1.8-0.5-3.4-1.2-4.9-2.2c-2-1.3-3.7-2.9-5-4.8"/>
	<path class="st1" d="M470.5-187.5c0,1-0.1,1.9-0.2,2.8c-0.2,1.5-0.6,2.9-1.2,4.2c-2.6,6-8.3,10.3-15.1,10.9c-0.5,0-1,0.1-1.4,0.1
		s-1,0-1.4-0.1c-6.8-0.5-12.6-4.9-15.1-10.9c-0.1-0.3-0.2-0.6-0.3-0.9c-0.7-1.9-1.1-4-1.1-6.2c0-4.2,1.5-8.1,3.9-11.2
		c3.3-4.2,8.4-6.8,14.1-6.8h0.2c0.1,0,0.2,0,0.3,0c0.4,0,0.7,0,1.1,0.1c5.4,0.5,10.2,3.4,13.1,7.6
		C469.3-194.9,470.5-191.3,470.5-187.5z"/>
	<path class="st1" d="M435.6-181.3c-0.2,0.3-0.4,0.6-0.7,0.8"/>
	<path class="st1" d="M438.5-198.7c-2.5-6.9-9.1-11.8-16.9-11.8c-9.9,0-18,8.1-18,18c0,3.5,1,6.8,2.7,9.5c3.1,5,8.6,8.3,14.9,8.5"/>
	<path class="st1" d="M451.1-169.6c0.9,2.2,1.4,4.6,1.4,7.1s-0.5,4.9-1.4,7.1c-2.2,5.1-6.7,9-12.1,10.4c-1,0.2-2,0.4-3,0.5
		c-0.5,0-1,0.1-1.4,0.1c-5.5,0-10.4-2.4-13.6-6.3c-1.8-2-3.1-4.5-3.8-7.2c-0.4-1.4-0.6-3-0.6-4.6c0-4.6,1.7-8.8,4.6-12
		c0.9-1,1.9-1.9,3-2.7c2.9-2.1,6.5-3.3,10.4-3.3c0.1,0,0.3,0,0.4,0c0.4,0,0.7,0,1,0.1"/>
	<path class="st1" d="M424.2-177.2c-1.1,0.8-2.1,1.7-3,2.7c-6.3-0.1-11.8-3.5-14.9-8.5c-7.9,1.9-13.7,9-13.7,17.5
		c0,8.1,5.4,15,12.8,17.2"/>
	<path class="st1" d="M454-169.6c-0.9,2.2-1.4,4.6-1.4,7.1s0.5,4.9,1.4,7.1c2.6,6,8.3,10.3,15.1,10.9c0.5,0,1,0.1,1.4,0.1
		c0.1,0,0.3,0,0.5,0c5.3-0.1,10-2.5,13.2-6.3c1.9-2.2,3.2-4.8,3.9-7.7c0.3-1.3,0.5-2.6,0.5-4c0-6.1-3-11.5-7.6-14.7
		c-0.2-0.2-0.4-0.3-0.7-0.4c0,0,0,0,0,0c-1.5-1-3.1-1.7-4.9-2.2h0c-1.5-0.4-3.1-0.7-4.8-0.7c-0.5,0-1,0-1.4,0.1"/>
	<path class="st1" d="M484.2-150.8c2.9,2.1,6.5,3.3,10.4,3.3c3.4,0,6.5-0.9,9.2-2.6c5.2-3.1,8.8-8.9,8.8-15.4c0-8.6-6-15.8-14-17.6"
		/>
	<path class="st1" d="M481.1-177.4c-0.1,0.1-0.1,0.2-0.2,0.2"/>
	<path class="st1" d="M503.8-150.1c1.8,2.8,2.8,6.1,2.8,9.6c0,9.6-7.5,17.5-17,18"/>
	<path class="st1" d="M451.1-155.4c0.5,0,1-0.1,1.4-0.1c0.5,0,1,0,1.4,0.1"/>
	<path class="st1" d="M453.8-119.5c-0.4,0-0.8,0-1.2,0c-0.1,0-0.2,0-0.2,0h0"/>
	<circle class="st1" cx="471.5" cy="-124.5" r="18"/>
	<path class="st1" d="M417.1-157.9c-5.2,1.3-9.5,4.9-11.8,9.7c-1.1,2.4-1.8,5-1.8,7.8c0,8.2,5.5,15.1,13,17.3"/>
	<circle class="st1" cx="434.5" cy="-124.5" r="18"/>
</g>
<g>
	<path class="st2" d="M71.2,49c0.1-3.1,2.3-27.1,36.6-22.8c1,0.1,1.7,1,1.6,2c-0.9,8.9-2.5,15.5-5.6,16.2c0,0-6.6-2.6-10.7-1.2
		S82,49.8,82,55.2C74,49,74.4,49.4,71.2,49L71.2,49z M69.5,49c-0.1-3.1-2.3-27.1-36.6-22.8c-1,0.1-1.7,1-1.6,2
		c0.9,8.9,2.5,15.5,5.6,16.2c0,0,6.6-2.6,10.7-1.2s11.1,6.6,11.1,12C66.7,49,66.3,49.4,69.5,49L69.5,49z"/>
	<path class="st2" d="M70,0.5C31.7,0.5,0.5,31.7,0.5,70s31.2,69.5,69.5,69.5s69.5-31.2,69.5-69.5S108.3,0.5,70,0.5z M70,136.5
		c-36.7,0-66.5-29.8-66.5-66.5C3.5,33.3,33.3,3.5,70,3.5s66.5,29.8,66.5,66.5C136.5,106.7,106.7,136.5,70,136.5z M110.9,65.1
		c1.2-2.3,1.9-4.9,1.9-7.5c0-5.6-2.8-10.7-7.6-13.7c-2.6-1.6-5.6-2.5-8.6-2.5c-7,0-13,4.4-15.3,10.7c-2.5-2.5-5.8-4.1-9.4-4.5V10.1
		c0-0.8-0.7-1.5-1.5-1.5s-1.5,0.7-1.5,1.5v37.4c-3.5,0.2-6.7,1.5-9.3,3.7c-2.6-6-8.5-9.9-14.9-9.9c-8.9,0-16.2,7.3-16.2,16.2
		c0,2.5,0.6,4.9,1.7,7.1C23.8,67,19.5,73,19.5,79.9c0,6.8,4.3,12.9,10.6,15.2c-1.1,2.2-1.6,4.6-1.6,7c0,6.9,4.4,13,10.8,15.3
		c1.1,7.9,7.9,14,16,14c6.9,0,12.8-4.3,15.1-10.4c2.3,6.1,8.2,10.4,15.1,10.4c7.9,0,14.5-5.7,15.9-13.2c8-1,14.2-7.8,14.2-16.1
		c0-3.1-0.9-6-2.5-8.6c4.6-3,7.4-8.1,7.4-13.6C120.5,73.4,116.8,67.7,110.9,65.1z M96.6,44.3c2.5,0,4.9,0.7,7,2
		c3.9,2.4,6.2,6.6,6.2,11.2c0,3.2-1.2,6.3-3.3,8.8c-2.5,2.8-6.1,4.4-9.9,4.4c-1,0-2-0.1-2.9-0.3c-0.1,0-0.1,0-0.2-0.1L92.8,70
		c-1.2-0.7-2.4-1.2-3.7-1.5l-0.1,0c-1.1-0.3-2.2-0.5-3.3-0.5c0.2-0.6,0.3-1.1,0.4-1.7c0.1-0.8,0.2-1.7,0.2-2.6
		c0-3.1-0.9-6.1-2.6-8.7C84.9,48.8,90.2,44.3,96.6,44.3z M97.6,87c-0.5,2.1-1.5,4-2.9,5.7c-2.4,2.8-6,4.5-9.7,4.6
		c-0.1,0-0.1,0-0.2,0c-0.4,0-0.7,0-1.1,0c-4.9-0.4-9.2-3.4-11.1-8c-0.7-1.6-1.1-3.4-1.1-5.2c0-1.5,0.3-3,0.8-4.4
		c5.3-0.7,9.9-4,12.2-8.8c1.3,0,2.5,0.1,3.7,0.5l0.2,0.1h0c1.1,0.3,2.2,0.8,3.3,1.5l0.1,0c0,0,0,0,0.1,0l0.5,0.3c0,0,0,0,0,0
		c3.5,2.5,5.6,6.5,5.6,10.8C97.9,85.1,97.8,86.1,97.6,87z M45.5,75.3c0.6-0.7,1.4-1.4,2.2-2c2.2-1.6,4.9-2.4,7.6-2.4
		c0.1,0,0.1,0,0.2,0c2.4,4.8,6.9,8.1,12.2,8.8c0.5,1.4,0.8,2.9,0.8,4.4c0,1.8-0.4,3.5-1.1,5.2c-1.6,3.8-4.9,6.6-8.9,7.6
		c-0.7,0.2-1.4,0.3-2.2,0.4c-4.2,0.4-8.3-1.4-11.1-4.6c-1.3-1.5-2.3-3.3-2.8-5.3c-0.3-1.1-0.4-2.2-0.4-3.3
		C42.1,80.8,43.3,77.7,45.5,75.3z M70,90.9c2,4.4,5.9,7.6,10.5,8.9c-4.6,1.5-8.4,5.1-10.1,9.6c-1.8-4.7-5.7-8.3-10.5-9.7
		C64.3,98.3,68,95.1,70,90.9z M70,50.5l0.2,0l0.1,0c0.3,0,0.5,0,0.8,0c3.9,0.3,7.4,2.4,9.6,5.6c1.6,2.2,2.4,4.8,2.4,7.6
		c0,0.7-0.1,1.4-0.2,2.1c-0.2,1.1-0.5,2.1-0.9,3.1c-1.9,4.5-6.2,7.6-11.1,8c-0.7,0.1-1.4,0.1-2.1,0c-4.9-0.4-9.2-3.4-11.1-8
		c-0.1-0.2-0.2-0.4-0.3-0.6c-0.5-1.5-0.8-3-0.8-4.5c0-3,1-5.9,2.9-8.2C62.2,52.3,65.9,50.5,70,50.5z M44.7,44.3
		c5.5,0,10.5,3.5,12.5,8.8l0.2,0.4c0,0,0,0,0,0c-2.3,2.8-3.5,6.4-3.5,10.1c0,1.4,0.2,2.9,0.6,4.3c-3,0.2-5.8,1.1-8.2,2.8l-1.8,0
		c-1.6,0-3.1-0.3-4.5-0.9c-1-0.5-2.1-1-3.2-1.7c-1.3-1-2.4-2.2-3.3-3.6c-1.3-2.1-2-4.5-2-7C31.5,50.3,37.4,44.3,44.7,44.3z
		 M22.5,79.9c0-5.8,3.7-10.8,9.1-12.5c0.9,1.2,2.1,2.3,3.4,3.2c1.2,0.9,2.6,1.7,4.1,2.2c1.4,0.6,2.7,1,3.7,1.2
		c-2.3,2.9-3.6,6.5-3.6,10.2c0,0.9,0.1,1.8,0.2,2.7c-3.1,1.1-5.7,3.1-7.7,5.7C26.2,90.7,22.5,85.6,22.5,79.9z M31.5,102.1
		c0-2,0.4-3.9,1.3-5.7c1.5-3.1,4.1-5.5,7.3-6.7c0.7,1.8,1.7,3.5,2.9,5c2.1,2.4,4.7,4.1,7.7,5c-6.4,1.9-11.1,7.6-11.5,14.4
		C34.5,111.9,31.5,107.3,31.5,102.1z M55.3,128.4c-7.3,0-13.2-5.9-13.2-13.2s5.9-13.2,13.2-13.2s13.2,5.9,13.2,13.2
		S62.6,128.4,55.3,128.4z M85.5,128.4c-7.3,0-13.2-5.9-13.2-13.2s5.9-13.2,13.2-13.2s13.2,5.9,13.2,13.2S92.8,128.4,85.5,128.4z
		 M101.7,115.1c0-7.5-5.1-13.7-12-15.6c2.8-0.9,5.4-2.6,7.3-4.8c0.1-0.1,0.1-0.1,0.2-0.2c2.2,1.1,4.6,1.7,7.1,1.7
		c2.1,0,4.2-0.4,6.2-1.2l0.1,0.2c1.3,2.1,2,4.5,2,7C112.6,108.6,108,114,101.7,115.1z M111.1,91.2c-2,1.2-4.4,1.9-6.8,1.9
		c-1.9,0-3.7-0.4-5.4-1.2c0.7-1.3,1.3-2.7,1.6-4.2c0.3-1.2,0.4-2.4,0.4-3.6c0-3.8-1.4-7.5-3.8-10.4c4.4-0.2,8.6-2.1,11.5-5.4
		c0.2-0.2,0.4-0.4,0.5-0.7c5.1,2,8.3,6.8,8.3,12.3C117.5,84.6,115.1,88.8,111.1,91.2z"/>
	<path class="st1" d="M71.2,49"/>
	<path class="st1" d="M70.4,49"/>
</g>
<g>
	<line class="st0" x1="267.5" y1="-250" x2="267.5" y2="-206"/>
	<path class="st1" d="M268.4-205.9c0.2-3.5,2.7-30.8,41.6-25.9c1.1,0.1,1.9,1.1,1.8,2.3c-1,10.1-2.8,17.6-6.3,18.4"/>
	<path class="st1" d="M265.9-205.9c-0.2-3.5-2.7-30.8-41.6-25.9c-1.1,0.1-1.9,1.1-1.8,2.3c1,10.1,2.8,17.6,6.3,18.4l1.3,0.4"/>
	<path class="st1" d="M280.7-198.8c1.3-8,8.2-14.1,16.5-14.1c3.3,0,6.3,0.9,8.9,2.6c4.7,2.9,7.8,8.2,7.8,14.1
		c0,4.3-1.6,8.1-4.2,11.1c-3.1,3.5-7.5,5.6-12.5,5.6c-1.3,0-2.5-0.1-3.7-0.4c-0.3-0.1-0.5-0.1-0.8-0.2"/>
	<path class="st1" d="M283.7-189.2c0,0.9-0.1,1.8-0.2,2.6c-0.2,1.4-0.6,2.7-1.1,3.9c-2.4,5.6-7.7,9.6-14,10.1
		c-0.4,0-0.9,0.1-1.3,0.1s-0.9,0-1.3-0.1c-6.3-0.5-11.7-4.5-14-10.1c-0.1-0.3-0.2-0.5-0.3-0.8c-0.6-1.8-1-3.7-1-5.7
		c0-3.9,1.4-7.5,3.6-10.4c3.1-3.9,7.8-6.3,13.1-6.3h0.2c0.1,0,0.2,0,0.3,0c0.3,0,0.7,0,1,0.1c5.1,0.4,9.5,3.1,12.2,7.1
		C282.6-196.1,283.7-192.8,283.7-189.2z"/>
	<path class="st1" d="M254.7-200.5l-0.7-1.3c-2.3-6.4-8.6-11.1-15.8-11.1c-9.2,0-16.7,7.5-16.7,16.7c0,3.2,0.9,6.3,2.5,8.8
		c2.9,4.6,8,7.7,13.8,7.9h2.6"/>
	<path class="st1" d="M265.7-172.5c0.9,2,1.3,4.2,1.3,6.6c0,2.3-0.5,4.5-1.3,6.6c-2,4.7-6.2,8.4-11.3,9.6c-0.9,0.2-1.8,0.4-2.8,0.5
		c-0.4,0-0.9,0.1-1.3,0.1c-5.1,0-9.6-2.3-12.7-5.8c-1.6-1.9-2.8-4.2-3.5-6.7c-0.4-1.3-0.5-2.8-0.5-4.2c0-4.3,1.6-8.2,4.3-11.1
		c0.8-0.9,1.8-1.8,2.8-2.5c2.7-1.9,6-3,9.6-3c0.1,0,0.3,0,0.4,0c0.3,0,0.6,0,1,0"/>
	<path class="st1" d="M237.9-179.1c-1.9,0.4-10.9-2.6-13.8-7.9c-7.3,1.8-12.7,8.4-12.7,16.2c0,7.5,5,13.9,11.9,16"/>
	<path class="st1" d="M268.3-172.5c-0.9,2-1.3,4.2-1.3,6.6c0,2.3,0.5,4.5,1.3,6.6c2.4,5.6,7.7,9.6,14,10.1c0.4,0,0.9,0.1,1.3,0.1
		c0.1,0,0.3,0,0.4,0c4.9-0.1,9.3-2.3,12.2-5.8c1.7-2,3-4.5,3.6-7.2c0.3-1.2,0.4-2.4,0.4-3.7c0-5.7-2.8-10.6-7.1-13.7
		c-0.2-0.1-0.4-0.3-0.6-0.4c0,0,0,0,0,0c-1.4-0.9-2.9-1.6-4.5-2h0c-1.4-0.4-2.9-0.6-4.5-0.6c-0.4,0-0.9,0-1.3,0.1"/>
	<path class="st1" d="M296.4-157.1c2.7,1.9,6,3,9.6,3c3.1,0,6.1-0.9,8.6-2.4c4.9-2.9,8.1-8.2,8.1-14.3c0-7.1-4.4-13.1-10.6-15.6
		l-1.1-0.4"/>
	<path class="st1" d="M293.5-179.9c-0.1,0.1-0.1,0.1-0.2,0.2"/>
	<path class="st1" d="M313.9-155.5l0.7,1.1c1.6,2.6,2.6,5.6,2.6,8.9c0,8.9-7,16.2-15.8,16.7"/>
	<path class="st1" d="M268.2-126.1c-0.4,0-0.8,0-1.2,0c-0.1,0-0.1,0-0.2,0h0"/>
	<circle class="st1" cx="284.6" cy="-130.7" r="16.7"/>
	<path class="st1" d="M234.1-161.8c-4.8,1.2-8.8,4.6-11,9c-1,2.2-1.6,4.6-1.6,7.2c0,7.6,5.1,14.1,12.1,16.1"/>
	<circle class="st1" cx="250.3" cy="-130.7" r="16.7"/>
	<path class="st1" d="M268.4-205.8"/>
	<path class="st1" d="M267.5-205.8"/>
</g>
</svg>
