<?xml version="1.0" encoding="utf-8"?>
<!-- Generator: Adobe Illustrator 26.0.1, SVG Export Plug-In . SVG Version: 6.00 Build 0)  -->
<svg version="1.1" id="Layer_1" xmlns="http://www.w3.org/2000/svg" xmlns:xlink="http://www.w3.org/1999/xlink" x="0px" y="0px"
	 viewBox="0 0 140 140" style="enable-background:new 0 0 140 140;" xml:space="preserve">
<style type="text/css">
	.st0{fill:none;stroke:#253F8E;stroke-width:1.5;stroke-miterlimit:10;}
	.st1{fill:#253F8E;}
	.st2{fill:none;stroke:#253F8E;stroke-width:3;stroke-linecap:round;stroke-linejoin:round;stroke-miterlimit:10;}
</style>
<g>
	<circle class="st0" cx="-290" cy="-46.3" r="68"/>
	<g>
		<polyline class="st0" points="-290.3,22.3 -290.3,21.7 -290.3,2.5 -290.3,-4 -290.3,-11.5 		"/>
		<polyline class="st0" points="-290.3,-30.7 -290.3,-41.4 -290.3,-42 		"/>
		<circle class="st0" cx="-290.3" cy="-21.1" r="9.6"/>
		<circle class="st0" cx="-268.9" cy="-36.1" r="7.5"/>
		<circle class="st0" cx="-310.6" cy="-36.1" r="7.5"/>
		<path class="st1" d="M-252.4-16.2c1.3,3-6.8,9.2-18,13.9c-8.3,3.5-16,5.1-19.9,4.5c0-1.9,0-4.1,0.1-6.4c3.1-2.9,8.7-6.2,15.3-9
			C-263.7-17.8-253.6-19.2-252.4-16.2z"/>
		<path class="st1" d="M-327.6-16.2c-1.3,3,6.8,9.2,18,13.9c8.3,3.5,15.4,5.3,19.4,4.7c0-1.9,0.1-4.1,0-6.4
			c-3.1-2.9-8.2-6.4-14.8-9.2C-316.3-17.8-326.4-19.2-327.6-16.2z"/>
		<line class="st0" x1="-275.3" y1="-31.8" x2="-281.7" y2="-26.5"/>
		<line class="st0" x1="-304.2" y1="-31.8" x2="-297.8" y2="-26.5"/>
		<ellipse class="st0" cx="-290.3" cy="-62.9" rx="15" ry="21.4"/>
		<path class="st0" d="M-287.1-83.7c0,0-11.8,10.1-5.4,19.1s9.6,17.1,2.1,23.2"/>
	</g>
</g>
<image style="display:none;overflow:visible;" width="458" height="437" xlink:href="17D6F6C6.jpg"  transform="matrix(0.4873 0 0 0.4873 -35.96 -26)">
</image>
<g>
	<path class="st1" d="M139.5,36.5c0-0.8-0.1-1.5-0.2-2.2c0-0.1,0-0.2,0-0.2c-0.6-2.5-2.2-4.3-4.8-5.6c-1.2-0.6-2.3-1.1-3.4-1.6
		c-5.8-2.5-11.6-5.2-17.2-7.7c-3.1-1.4-6.2-2.8-9.4-4.2c-3.5-1.5-6.9-3.1-10.4-4.7c-6.6-3-13.4-6-20.1-9c-2.5-1.1-5.2-1.1-7.8,0
		c-4,1.7-8,3.6-12,5.3c-2.1,1-4.3,1.9-6.4,2.9c-6.7,3-13.3,6-20,9c-7.3,3.3-14.6,6.5-21.9,9.8c-2.1,0.9-3.6,2.3-4.5,3.9
		c-0.8,1.3-0.8,2.3-0.8,2.7v70.5c0,0.1,0,0.2,0,0.2c0.4,2.9,2.2,4.9,5.3,6.3c0.6,0.2,1.1,0.5,1.7,0.7c0.7,0.3,1.4,0.6,2.1,0.9
		c4.6,2.1,9.3,4.2,13.9,6.2c4.4,2,8.8,3.9,13.1,5.9c7.2,3.2,14.8,6.7,22.6,10.1c0.8,0.3,1.6,0.7,2.3,1.1c2,1,4.1,2,6.5,2.5
		c0.1,0,0.2,0,0.3,0h2.9c0.1,0,0.2,0,0.3,0l0.3-0.1c0.9-0.2,1.9-0.4,2.9-0.8c1-0.5,2-0.9,3.1-1.4c0.8-0.4,1.7-0.7,2.5-1.1
		c5.9-2.7,11.8-5.3,17.7-8c3.3-1.5,6.6-3,9.9-4.5c4.4-2,8.8-3.9,13.2-5.9c4.4-2,8.8-3.9,13.2-5.9c3.5-1.6,5.2-4.3,5.2-8.2
		C139.4,81.4,139.4,58.8,139.5,36.5C139.5,36.5,139.5,36.5,139.5,36.5z M71.4,83.3v-16l65.1-30.6c0,5.7,0,11.5,0,17.2L71.4,83.3z
		 M136.4,57.2c0,8,0,16,0,24.1l-65,29.4V86.6L136.4,57.2z M3.9,33.9c0.5-0.8,1.6-2.1,4.4-3.4c5.5-2.4,55.5-24.2,61.6-26.8l63.2,27.5
		c1.3,0.7,2.2,1.5,2.8,2.5L70,64.7c0,0-0.1,0-0.1,0s-0.1,0-0.1,0c-2.2-1.1-9.1-4.2-13.9-6.5L13.4,38.5c-2-1.1-5-2.5-9.6-4.5
		C3.8,34,3.9,33.9,3.9,33.9z M68.4,83.2l-19.6-8.8c0-0.3,0-0.6,0-0.9c0-1.3,0-2.4-0.1-3.1c0-5.6,0-11.1,0-11.2
		c0-0.2,0.6-0.5,1.4-0.1c0.9,0.4,2.5,1.1,4.4,1.9l13.7,6.4V83.2z M45.8,70.4c0,0.7,0,1.9,0.1,3.1c0,0.5,0,1.1,0,1.8c0,0,0,0,0,0.1
		c0,2.8,0.1,6.3-0.1,6.9c-0.3,1.2-1.5,5-5.8,4.4c-3.6-0.5-4.5-3.2-4.8-5.2c0-0.2-0.1-0.3-0.1-0.3c0-0.2,0-1.3,0-2.2
		c0-4.9-0.1-6.8-0.8-7.7c-0.8-1.1-1.7-1.4-2.9-1.8c-0.4-0.1-1-0.3-1.6-0.6c-0.4-0.2-0.9-0.1-1.3,0.1c-0.4,0.2-0.7,0.6-0.7,1.1
		c-0.1,1.1-1,3.2-2.6,4.4c-1.1,0.8-2.4,1-3.9,0.6c-4.2-1-4.2-5.4-4.2-5.6c-0.1-9-0.1-22-0.1-26.2l29.4,13.6c-0.6,0.9-0.6,1.9-0.6,2
		C45.8,59.2,45.7,64.7,45.8,70.4z M3.5,37.2l8.2,3.8c1.1,0.6,1.9,1,2.3,1.4C14,44.6,14,52,14,58.7L3.5,53.9V37.2z M3.5,57.2L14.1,62
		c0,3.5,0,6.4,0,7.7c0,2.4,1.3,7.3,6.6,8.5c2.3,0.5,4.5,0.1,6.2-1.1c1.7-1.2,2.8-3,3.4-4.7c0.1,0,0.1,0,0.2,0.1
		c0.9,0.3,1.2,0.4,1.3,0.6c0.3,0.9,0.3,4.5,0.3,6c0,1.9,0,2.4,0.1,2.8l0,0.2c0.9,5.5,4.5,7.2,7.3,7.6c0.5,0.1,0.9,0.1,1.3,0.1
		c3.8,0,6.8-2.5,7.8-6.8c0.2-0.8,0.2-2.6,0.2-5.3l19.5,8.8v24.1l-22.8-10.3c0-0.2,0.1-0.5,0.1-0.7c0-2.8-2.2-5-5-5
		c-1.5,0-2.9,0.7-3.8,1.8L3.5,81.3V57.2z M62.8,134.2c-0.8-0.4-1.6-0.8-2.4-1.1c-7.7-3.4-15.4-6.9-22.6-10.1
		c-4.4-2-8.8-3.9-13.1-5.9c-4.6-2.1-9.3-4.1-13.9-6.2c-0.7-0.3-1.4-0.6-2.1-0.9c-0.6-0.2-1.1-0.5-1.7-0.7c-2.1-1-3.2-2.2-3.5-3.9
		V84.6l32.2,14.5c0,0.1,0,0.3,0,0.4c0,2.8,2.2,5,5,5c1.4,0,2.7-0.6,3.6-1.6l24.1,10.9v22.6C66.5,136,64.7,135.1,62.8,134.2z
		 M133,109.1c-4.4,2-8.8,3.9-13.2,5.9c-4.4,2-8.8,3.9-13.2,5.9c-3.3,1.5-6.6,3-9.9,4.4c-5.9,2.7-11.9,5.3-17.8,8
		c-0.8,0.4-1.6,0.7-2.5,1.1c-1,0.5-2.1,0.9-3.1,1.4c-0.6,0.3-1.3,0.4-2,0.6V114l65-29.4c0,6.4,0,12.8,0,19.1
		C136.5,106.4,135.4,108,133,109.1z"/>
	<path class="st1" d="M31.6,59.6c-2-0.1-3.6,1.3-3.8,3.3c0,0.1,0,0.3-0.1,0.4c-0.1,0.8-0.5,3,2,3.8c0.7,0.2,1.4,0.6,2.2,0.9
		c0.4,0.2,0.8,0.4,1.2,0.5c0.2,0.1,0.4,0.1,0.6,0.1c0.3,0,0.6-0.1,0.8-0.2c0.4-0.3,0.7-0.8,0.7-1.3c0-0.5,0-0.9,0-1.4c0-1,0-2-0.1-3
		C34.9,61,33.6,59.7,31.6,59.6z M30.6,64.3C30.6,64.3,30.6,64.3,30.6,64.3c0-0.1,0-0.3,0-0.4c0-0.2,0.1-0.4,0.1-0.6
		c0.1-0.5,0.4-0.7,0.7-0.7c0.6,0,0.7,0.3,0.7,0.5c0.1,0.6,0.1,1.2,0.1,1.8C31.7,64.6,31.2,64.4,30.6,64.3z"/>
</g>
<g>
	<g>
		<path class="st2" d="M428-79.5c0-3.3-1.5-5.4-4.3-6.7c-1.1-0.5-2.2-1-3.4-1.5c-8.9-3.9-17.7-7.9-26.6-11.9
			c-10.2-4.5-20.3-9.2-30.5-13.6c-2.1-0.9-4.4-1-6.6,0c-6.2,2.7-12.3,5.5-18.4,8.2c-14,6.2-27.9,12.5-41.8,18.7
			c-2.3,1-4,2.6-4.4,5.2v70.5c0.4,2.6,2.1,4.2,4.4,5.2c1.2,0.6,2.5,1.1,3.8,1.7c9,4.1,18,8.1,27,12.1c7.5,3.4,15,6.8,22.6,10.1
			c2.8,1.2,5.5,2.8,8.5,3.5h2.9c0.9-0.2,1.9-0.4,2.8-0.8c1.8-0.9,3.7-1.6,5.6-2.5c9.2-4.2,18.5-8.3,27.7-12.4
			c8.8-4,17.6-7.9,26.4-11.8c2.9-1.3,4.3-3.5,4.3-6.8C427.9-34.7,427.9-57.1,428-79.5z"/>
		<path class="st2" d="M323.6-48.8c-1.2-0.6-2.3-1.2-3.5-1.5c-1.5-0.5-1-1.7-0.9-2.6c0.1-1.2,1.1-2,2.3-2c1.2,0.1,2,0.7,2.1,1.8
			C323.7-51.7,323.6-50.4,323.6-48.8z"/>
		<circle class="st1" cx="330.7" cy="-16.5" r="5"/>
		<path class="st2" d="M292.6-80.9c0,0,13.2,5.6,13,6.9c-0.2,1.3,0,27.8,0,27.8s0,5.8,5.4,7c5.5,1.2,8-3.8,8.3-6.3
			c2.2,0.9,3.1,0.8,3.8,1.8c0.7,1,0.4,8.6,0.5,9.2c0.2,0.7,0.5,5.8,6.1,6.7c4,0.6,6.6-2.1,7.4-5.5c0.3-1.4,0-9.5,0-12.3
			c0-5.7,0-11.2,0-11.2s0-3,3.5-1.5s19.1,8.8,19.1,8.8l67.8-31.9l-67.8,31.9L292-81.1c0,0-0.3-3.1,5.6-5.7
			c5.9-2.6,62.2-27.1,62.2-27.1l63.8,27.8"/>
	</g>
	<polyline class="st2" points="427.9,-33.8 360,-3.1 292,-33.8 	"/>
	<line class="st2" x1="305.6" y1="-55" x2="292" y2="-61.1"/>
	<polyline class="st2" points="337.3,-40.6 359.9,-30.5 360,-30.4 427.9,-61.1 	"/>
	<line class="st2" x1="359.9" y1="-49.9" x2="359.9" y2="6.1"/>
</g>
<image style="overflow:visible;" width="512" height="512" xlink:href="C:\Users\Admin\Downloads\cake.png"  transform="matrix(0.6142 0 0 0.6142 -68.96 -413)">
</image>
</svg>
